<svg width="1371" height="1323" viewBox="0 0 1371 1323" fill="none" xmlns="http://www.w3.org/2000/svg">
<path d="M218.007 1125.01C398.688 1305.25 656.235 1365.77 895.67 1283.6C1056.03 1228.83 1194.74 1106.46 1272.05 952.723C1363.05 771.601 1363.05 550.72 1272.05 369.598C1206.74 239.858 1096.21 130.557 968.057 68.8805L965.026 67.4322C837.477 7.38336 695.577 -11.7852 566.08 13.3766L563.023 13.9791C495.874 27.6741 459.651 39.1595 404.431 65.2232C265.275 131.046 152.184 243.696 86.3613 383.293C27.6069 507.428 9.05251 651.001 35.1162 779.552H35.1172C63.3903 920.034 120.377 1027.38 218.007 1125.01ZM834.73 1251.01C695.326 1286.52 552.006 1272.87 421.172 1211.81L418.083 1210.36L385.832 1195.34L385.784 1195.32L385.81 1195.27L408.341 1153.74C414.305 1142.25 419.827 1131.65 423.858 1123.75C425.874 1119.81 427.517 1116.53 428.655 1114.17C429.225 1112.98 429.668 1112.03 429.969 1111.32C430.119 1110.97 430.234 1110.69 430.311 1110.47C430.349 1110.36 430.377 1110.26 430.396 1110.19C430.416 1110.11 430.425 1110.06 430.425 1110.02C430.425 1109.71 430.268 1109.39 429.977 1109.09C429.685 1108.78 429.262 1108.5 428.741 1108.25C427.699 1107.76 426.271 1107.42 424.731 1107.42C424.308 1107.42 423.746 1107.7 423.061 1108.23C422.377 1108.77 421.579 1109.56 420.683 1110.58C418.89 1112.61 416.71 1115.55 414.28 1119.17C409.422 1126.4 403.569 1136.34 397.826 1147.16C392.083 1157.98 386.559 1167.93 382.307 1175.16C380.18 1178.78 378.371 1181.72 377.011 1183.76C376.331 1184.78 375.762 1185.57 375.321 1186.11C375.101 1186.38 374.912 1186.59 374.756 1186.73C374.678 1186.8 374.606 1186.85 374.543 1186.89C374.481 1186.92 374.422 1186.95 374.367 1186.95C374.025 1186.95 373.501 1186.8 372.816 1186.51C372.13 1186.22 371.276 1185.8 370.271 1185.26C368.26 1184.16 365.643 1182.57 362.55 1180.58C356.364 1176.6 348.272 1171.01 339.325 1164.57C321.432 1151.71 300.114 1135.47 283.767 1121.99C245.326 1090.18 194.516 1030.98 164.472 983.257L156.962 971.771L156.933 971.726L156.979 971.7L194.531 950.494C211.541 940.995 222.803 933.818 228.21 929.017C229.561 927.818 230.545 926.768 231.161 925.87C231.779 924.969 232.021 924.229 231.907 923.645C231.795 923.066 231.328 922.622 230.479 922.322C229.629 922.022 228.406 921.871 226.807 921.871C226.484 921.871 225.925 921.999 225.151 922.249C224.379 922.497 223.398 922.865 222.235 923.337C219.91 924.283 216.86 925.649 213.299 927.333C206.176 930.701 197.009 935.339 187.511 940.42C177.131 946.051 169.534 950.417 163.538 952.745C157.541 955.073 153.131 955.369 149.135 952.843C145.145 950.322 141.578 944.994 137.243 936.111C132.907 927.225 127.798 914.77 120.729 897.983C54.4548 738.482 57.5483 558.214 130.009 402.689C135.31 391.425 139.066 383.056 142.325 377.186C145.583 371.319 148.352 367.934 151.684 366.657C155.018 365.379 158.9 366.217 164.369 368.744C169.839 371.271 176.911 375.498 186.628 381.019H186.629C195.906 386.32 204.961 391.18 212.084 394.713C215.645 396.48 218.723 397.915 221.104 398.909C222.293 399.405 223.309 399.792 224.122 400.053C224.937 400.316 225.546 400.452 225.924 400.452C227.633 400.452 228.96 400.307 229.906 400.017C230.854 399.727 231.41 399.296 231.599 398.732C231.788 398.167 231.617 397.448 231.062 396.567C230.507 395.687 229.575 394.655 228.265 393.469C223.023 388.724 211.762 381.548 194.531 371.828L156.979 350.622L156.933 350.595L156.962 350.551L164.472 339.065C195.787 289.048 237.805 240.316 279.99 203.826L281.999 202.097C299.009 187.738 320.548 171.059 338.552 157.97C347.554 151.426 355.673 145.779 361.9 141.767C365.014 139.762 367.656 138.165 369.699 137.069C370.721 136.521 371.594 136.097 372.302 135.811C373.008 135.526 373.555 135.374 373.925 135.374C374.052 135.374 374.204 135.445 374.377 135.567C374.551 135.691 374.754 135.874 374.982 136.111C375.44 136.586 376.008 137.285 376.671 138.183C377.997 139.98 379.711 142.576 381.699 145.78C385.676 152.187 390.757 161.024 396.059 170.744C401.359 180.462 406.77 189.297 411.242 195.701C413.478 198.903 415.479 201.496 417.113 203.289C417.93 204.185 418.654 204.88 419.27 205.35C419.887 205.822 420.387 206.061 420.756 206.061C421.749 206.061 422.601 206.026 423.29 205.889C423.979 205.752 424.5 205.514 424.838 205.113C425.175 204.712 425.339 204.139 425.295 203.318C425.251 202.497 425.001 201.432 424.519 200.053C422.587 194.536 416.957 184.048 406.132 164.165L386.251 127.496L386.227 127.449L386.273 127.426L419.85 111.522C477.73 83.2445 546.214 63.8043 618.231 54.526C650.854 50.1763 725.857 51.8203 766.545 57.773L768.456 58.0602C792.756 61.5948 827.218 68.6641 845.335 73.9664L845.334 73.9674C864.776 79.2697 893.164 89.541 918.402 99.8131C931.022 104.949 942.855 110.085 952.389 114.6C961.921 119.114 969.16 123.01 972.589 125.665L972.59 125.666L981.867 133.176L981.9 133.203L981.879 133.24L962.882 166.375C957.58 175.542 953.522 182.61 950.547 188.056C947.572 193.503 945.682 197.324 944.717 199.999C944.234 201.336 943.985 202.383 943.944 203.202C943.904 204.019 944.073 204.604 944.425 205.023C944.777 205.442 945.319 205.703 946.039 205.858C946.759 206.013 947.653 206.061 948.701 206.061C949.071 206.061 949.571 205.836 950.188 205.39C950.804 204.947 951.528 204.29 952.345 203.446C953.979 201.757 955.979 199.315 958.215 196.306C962.407 190.665 967.425 183.034 972.403 174.64L973.398 172.952C978.48 163.894 983.561 155.61 987.538 149.589C989.526 146.579 991.238 144.134 992.537 142.441C993.186 141.595 993.734 140.936 994.16 140.488C994.373 140.264 994.557 140.092 994.71 139.975C994.786 139.917 994.856 139.871 994.918 139.84C994.98 139.81 995.038 139.792 995.09 139.792C995.485 139.792 996.043 139.926 996.744 140.178C997.447 140.431 998.298 140.806 999.283 141.291C1001.25 142.261 1003.76 143.675 1006.7 145.453C1012.57 149.009 1020.13 154.021 1028.47 159.847C1044.63 171.136 1063.69 185.483 1078.93 198.218L1080.39 199.446C1114.41 228.166 1169.64 290.905 1193.5 328.904L1193.5 328.903C1197.7 335.31 1201.34 341.386 1203.83 345.916C1205.07 348.18 1206.02 350.06 1206.61 351.401C1206.9 352.071 1207.11 352.609 1207.21 352.994C1207.26 353.186 1207.29 353.343 1207.29 353.462C1207.28 353.569 1207.26 353.661 1207.19 353.706L1207.19 353.707C1207.17 353.724 1207.14 353.748 1207.1 353.778C1207.06 353.808 1207 353.846 1206.93 353.892C1206.79 353.984 1206.6 354.106 1206.35 354.258C1205.86 354.562 1205.17 354.984 1204.3 355.508C1202.55 356.558 1200.08 358.022 1197.07 359.789C1191.05 363.323 1182.88 368.072 1174.04 373.153C1165.21 378.233 1156.92 383.424 1150.69 387.621C1147.57 389.719 1144.96 391.568 1143.05 393.031C1142.09 393.762 1141.31 394.397 1140.73 394.917C1140.14 395.438 1139.76 395.84 1139.6 396.109V396.11L1139.33 396.553C1138.74 397.559 1138.46 398.369 1138.46 398.993C1138.46 399.347 1138.55 399.64 1138.72 399.876C1138.89 400.111 1139.15 400.293 1139.5 400.42C1140.19 400.674 1141.23 400.706 1142.59 400.515C1143.94 400.325 1145.6 399.914 1147.55 399.294C1155.33 396.81 1167.59 390.959 1182.39 382.344C1191.55 376.934 1198.27 372.762 1203.61 370.572C1208.95 368.381 1212.93 368.168 1216.62 370.694C1220.31 373.215 1223.7 378.46 1227.87 387.15C1232.05 395.842 1237.02 407.994 1243.87 424.339C1296.89 551.587 1305.72 692.089 1269.49 824.197C1263.97 844.301 1253.37 873.683 1243.09 898.921C1237.96 911.541 1232.9 923.125 1228.61 931.997C1226.46 936.432 1224.51 940.19 1222.82 943.061C1221.14 945.93 1219.73 947.918 1218.67 948.808H1218.67C1217.45 949.809 1216.06 950.394 1214.29 950.484C1212.53 950.574 1210.4 950.171 1207.69 949.204C1202.61 947.39 1195.49 943.585 1184.98 937.293L1182.83 936.001C1169.35 927.827 1160.19 922.971 1154.4 921.261C1151.5 920.406 1149.46 920.342 1148.15 921.03C1146.84 921.714 1146.23 923.153 1146.23 925.355C1146.23 925.451 1146.28 925.584 1146.39 925.756C1146.5 925.927 1146.65 926.129 1146.86 926.362C1147.28 926.827 1147.9 927.41 1148.69 928.092C1150.27 929.458 1152.57 931.223 1155.38 933.266C1161.01 937.352 1168.74 942.543 1177.13 947.844L1177.14 947.843C1185.75 953.145 1193.48 958.227 1199.06 962.149C1201.85 964.11 1204.1 965.78 1205.66 967.045C1206.44 967.677 1207.04 968.208 1207.45 968.624C1207.65 968.831 1207.81 969.011 1207.92 969.161C1207.97 969.235 1208.01 969.304 1208.04 969.365C1208.07 969.426 1208.08 969.483 1208.08 969.535C1208.08 969.57 1208.08 969.616 1208.06 969.669C1208.04 969.722 1208.02 969.787 1207.98 969.862C1207.92 970.013 1207.82 970.209 1207.7 970.448C1207.45 970.925 1207.08 971.576 1206.62 972.377C1205.68 973.979 1204.32 976.188 1202.67 978.838C1199.35 984.14 1194.82 991.21 1189.96 998.72L1189.96 998.721C1159.48 1043.35 1116.62 1091.5 1080.83 1121.99L1080.83 1121.99C1064.04 1135.91 1044.16 1151.04 1027.7 1162.69C1019.47 1168.52 1012.1 1173.48 1006.4 1176.98C1003.54 1178.73 1001.11 1180.12 999.193 1181.07C998.236 1181.54 997.407 1181.91 996.72 1182.15C996.034 1182.4 995.485 1182.53 995.09 1182.53C995.036 1182.53 994.977 1182.51 994.915 1182.48C994.852 1182.44 994.781 1182.39 994.703 1182.32C994.547 1182.19 994.357 1182 994.137 1181.75C993.696 1181.25 993.127 1180.51 992.447 1179.56C991.087 1177.66 989.277 1174.91 987.15 1171.52C982.898 1164.72 977.375 1155.33 971.631 1144.95V1144.95C962.353 1127.72 955.176 1116.35 950.32 1110.89C949.107 1109.52 948.04 1108.53 947.123 1107.9C946.205 1107.28 945.446 1107.03 944.845 1107.14C944.248 1107.25 943.788 1107.72 943.478 1108.56C943.166 1109.41 943.008 1110.63 943.008 1112.23C943.008 1112.61 943.144 1113.23 943.407 1114.08C943.67 1114.92 944.058 1115.98 944.558 1117.22C945.558 1119.71 947.007 1122.95 948.802 1126.74C952.391 1134.3 957.361 1144.02 962.883 1154.18L982.764 1190.41L982.786 1190.45L982.746 1190.47L968.608 1199.31V1199.31L967.417 1200.02C954.795 1207.47 932.471 1217.4 908.129 1226.82C883.001 1236.54 855.718 1245.7 834.73 1251.01Z" fill="#691919" stroke="black" stroke-width="0.1"/>
<path d="M684.507 142.001C684.81 142.001 685.122 141.754 685.437 141.238C685.749 140.726 686.054 139.964 686.351 138.972C686.943 136.987 687.495 134.091 687.992 130.447C688.986 123.16 689.758 112.89 690.2 100.963C690.642 83.7315 690.642 73.5744 689.814 67.7257C689.401 64.8007 688.78 62.962 687.912 61.8546C687.048 60.7518 685.932 60.3683 684.507 60.3683C683.082 60.3683 681.966 60.7518 681.102 61.8546C680.234 62.9621 679.614 64.801 679.2 67.7257C678.373 73.5744 678.372 83.7309 678.813 100.962C679.255 112.89 680.029 123.16 681.022 130.447C681.519 134.091 682.072 136.987 682.664 138.972C682.96 139.964 683.266 140.726 683.578 141.238C683.893 141.754 684.204 142.001 684.507 142.001Z" fill="#691919" stroke="black" stroke-width="0.1"/>
<path d="M119.009 665.529C131.599 665.529 142.09 665.087 149.433 664.314C153.104 663.928 155.986 663.459 157.949 662.922C158.931 662.653 159.681 662.368 160.184 662.069C160.689 661.769 160.93 661.464 160.93 661.161C160.93 660.858 160.689 660.553 160.184 660.253C159.681 659.954 158.931 659.669 157.949 659.4C155.986 658.863 153.104 658.394 149.433 658.008C142.09 657.235 131.599 656.793 119.009 656.793C106.418 656.793 95.9274 657.235 88.585 658.008C84.9138 658.394 82.0317 658.863 80.0684 659.4C79.0862 659.669 78.3365 659.954 77.834 660.253C77.3284 660.553 77.0879 660.858 77.0879 661.161C77.0879 661.464 77.3284 661.769 77.834 662.069C78.3365 662.368 79.0862 662.653 80.0684 662.922C82.0317 663.459 84.9138 663.928 88.585 664.314C95.9274 665.087 106.418 665.529 119.009 665.529Z" fill="#691919" stroke="black" stroke-width="0.1"/>
<path d="M1245.59 665.529C1258.18 665.529 1268.67 665.087 1276.01 664.314C1279.68 663.928 1282.56 663.459 1284.53 662.922C1285.51 662.653 1286.26 662.368 1286.76 662.069C1287.27 661.769 1287.51 661.464 1287.51 661.161C1287.51 660.858 1287.27 660.553 1286.76 660.253C1286.26 659.954 1285.51 659.669 1284.53 659.4C1282.56 658.863 1279.68 658.394 1276.01 658.008C1268.67 657.235 1258.18 656.793 1245.59 656.793C1233 656.793 1222.51 657.235 1215.16 658.008C1211.49 658.394 1208.61 658.863 1206.65 659.4C1205.67 659.669 1204.92 659.954 1204.41 660.253C1203.91 660.553 1203.67 660.858 1203.67 661.161C1203.67 661.464 1203.91 661.769 1204.41 662.069C1204.92 662.368 1205.67 662.653 1206.65 662.922C1208.61 663.459 1211.49 663.928 1215.16 664.314C1222.51 665.087 1233 665.529 1245.59 665.529Z" fill="#691919" stroke="black" stroke-width="0.1"/>
<path d="M684.508 1261.95C685.818 1261.95 686.88 1261.49 687.739 1260.3C688.602 1259.11 689.263 1257.19 689.76 1254.26C690.753 1248.41 691.085 1238.59 691.085 1222.68C691.085 1204.35 690.312 1192.09 688.602 1185.36C688.174 1183.68 687.689 1182.35 687.144 1181.35C686.598 1180.35 685.994 1179.69 685.334 1179.36C684.02 1178.7 682.443 1179.31 680.567 1181.19C680.492 1181.26 680.412 1181.41 680.33 1181.62C680.249 1181.84 680.167 1182.12 680.086 1182.46C679.923 1183.15 679.763 1184.08 679.607 1185.23C679.297 1187.54 679.007 1190.71 678.759 1194.52C678.262 1202.14 677.931 1212.3 677.931 1223.13C677.931 1239.03 678.263 1248.75 679.256 1254.48C679.752 1257.35 680.413 1259.22 681.275 1260.37C682.135 1261.52 683.196 1261.95 684.508 1261.95Z" fill="#691919" stroke="black" stroke-width="0.1"/>
<mask id="path-6-outside-1_190_12" maskUnits="userSpaceOnUse" x="648.535" y="154.535" width="75" height="47" fill="black">
<rect fill="white" x="648.535" y="154.535" width="75" height="47"/>
<path d="M667.876 155.891C670.451 156.386 672.993 156.882 675.568 157.377C672.828 171.54 670.055 185.669 667.314 199.832H658.797C660.844 189.235 662.858 178.67 664.904 168.073C662.098 170.879 658.104 174.313 653.35 176.723C652.227 174.379 651.105 172.002 649.982 169.658C661.108 164.574 667.513 156.386 667.876 155.891ZM702.697 171.011C699.858 171.474 696.986 171.936 694.147 172.398C694.114 171.969 694.08 171.441 694.08 170.879C694.08 170.153 694.08 169.361 694.213 168.7C694.279 168.403 694.279 168.139 694.345 167.875C695.731 161.602 701.376 156.419 709.828 156.419C717.454 156.419 721.68 159.093 721.68 165.432C721.68 166.522 721.581 167.71 721.317 168.998C720.029 175.534 715.473 178.968 712.271 181.774C710.092 183.589 700.65 190.588 700.287 192.437H717.322C716.86 194.814 716.398 197.158 715.935 199.535H687.544C687.742 198.545 687.874 197.488 688.072 196.399C688.237 195.54 688.468 194.649 688.798 193.725C689.987 190.522 693.288 187.188 697.514 183.854C702.367 180.057 712.04 174.61 713.162 168.965C713.294 168.337 713.36 167.743 713.36 167.215C713.36 164.607 711.809 163.385 708.97 163.385C706.527 163.385 703.39 164.838 702.73 168.139C702.631 168.601 702.565 169.097 702.565 169.658C702.565 170.087 702.598 170.549 702.697 171.011Z"/>
</mask>
<path d="M667.876 155.891C670.451 156.386 672.993 156.882 675.568 157.377C672.828 171.54 670.055 185.669 667.314 199.832H658.797C660.844 189.235 662.858 178.67 664.904 168.073C662.098 170.879 658.104 174.313 653.35 176.723C652.227 174.379 651.105 172.002 649.982 169.658C661.108 164.574 667.513 156.386 667.876 155.891ZM702.697 171.011C699.858 171.474 696.986 171.936 694.147 172.398C694.114 171.969 694.08 171.441 694.08 170.879C694.08 170.153 694.08 169.361 694.213 168.7C694.279 168.403 694.279 168.139 694.345 167.875C695.731 161.602 701.376 156.419 709.828 156.419C717.454 156.419 721.68 159.093 721.68 165.432C721.68 166.522 721.581 167.71 721.317 168.998C720.029 175.534 715.473 178.968 712.271 181.774C710.092 183.589 700.65 190.588 700.287 192.437H717.322C716.86 194.814 716.398 197.158 715.935 199.535H687.544C687.742 198.545 687.874 197.488 688.072 196.399C688.237 195.54 688.468 194.649 688.798 193.725C689.987 190.522 693.288 187.188 697.514 183.854C702.367 180.057 712.04 174.61 713.162 168.965C713.294 168.337 713.36 167.743 713.36 167.215C713.36 164.607 711.809 163.385 708.97 163.385C706.527 163.385 703.39 164.838 702.73 168.139C702.631 168.601 702.565 169.097 702.565 169.658C702.565 170.087 702.598 170.549 702.697 171.011Z" fill="#691919"/>
<path d="M667.876 155.891L668.065 154.909L667.443 154.79L667.069 155.3L667.876 155.891ZM675.568 157.377L676.55 157.567L676.74 156.584L675.757 156.395L675.568 157.377ZM667.314 199.832V200.832H668.14L668.296 200.022L667.314 199.832ZM658.797 199.832L657.815 199.642L657.585 200.832H658.797V199.832ZM664.904 168.073L665.886 168.263L666.505 165.058L664.197 167.366L664.904 168.073ZM653.35 176.723L652.448 177.155L652.89 178.077L653.802 177.615L653.35 176.723ZM649.982 169.658L649.567 168.748L648.641 169.171L649.08 170.09L649.982 169.658ZM667.876 155.891L667.687 156.873C668.974 157.121 670.252 157.368 671.532 157.616C672.811 157.863 674.091 158.111 675.379 158.359L675.568 157.377L675.757 156.395C674.47 156.147 673.191 155.9 671.912 155.652C670.633 155.405 669.353 155.157 668.065 154.909L667.876 155.891ZM675.568 157.377L674.586 157.187C673.216 164.267 671.838 171.34 670.46 178.413C669.081 185.486 667.703 192.56 666.333 199.642L667.314 199.832L668.296 200.022C669.666 192.941 671.044 185.869 672.423 178.796C673.801 171.723 675.179 164.649 676.55 157.567L675.568 157.377ZM667.314 199.832V198.832H658.797V199.832V200.832H667.314V199.832ZM658.797 199.832L659.779 200.022C660.802 194.722 661.818 189.431 662.833 184.141C663.848 178.851 664.863 173.561 665.886 168.263L664.904 168.073L663.923 167.883C662.899 173.183 661.884 178.474 660.869 183.764C659.853 189.055 658.838 194.345 657.815 199.642L658.797 199.832ZM664.904 168.073L664.197 167.366C661.431 170.133 657.521 173.487 652.898 175.831L653.35 176.723L653.802 177.615C658.686 175.139 662.766 171.626 665.612 168.78L664.904 168.073ZM653.35 176.723L654.252 176.291C653.691 175.12 653.13 173.941 652.569 172.761C652.008 171.581 651.446 170.399 650.884 169.226L649.982 169.658L649.08 170.09C649.641 171.26 650.202 172.439 650.763 173.62C651.324 174.8 651.886 175.981 652.448 177.155L653.35 176.723ZM649.982 169.658L650.398 170.567C661.737 165.386 668.264 157.053 668.682 156.483L667.876 155.891L667.069 155.3C666.761 155.72 660.479 163.762 649.567 168.748L649.982 169.658ZM702.697 171.011L702.858 171.998L703.895 171.829L703.675 170.802L702.697 171.011ZM694.147 172.398L693.149 172.475L693.233 173.56L694.307 173.385L694.147 172.398ZM694.213 168.7L693.236 168.483L693.234 168.494L693.232 168.504L694.213 168.7ZM694.345 167.875L695.315 168.118L695.318 168.104L695.321 168.091L694.345 167.875ZM721.317 168.998L720.337 168.797L720.335 168.804L721.317 168.998ZM712.271 181.774L712.911 182.542L712.921 182.534L712.93 182.526L712.271 181.774ZM700.287 192.437L699.306 192.244L699.071 193.437H700.287V192.437ZM717.322 192.437L718.304 192.628L718.535 191.437H717.322V192.437ZM715.935 199.535V200.535H716.76L716.917 199.726L715.935 199.535ZM687.544 199.535L686.563 199.339L686.324 200.535H687.544V199.535ZM688.072 196.399L687.09 196.21L687.088 196.22L688.072 196.399ZM688.798 193.725L687.861 193.377L687.857 193.388L688.798 193.725ZM697.514 183.854L696.898 183.066L696.894 183.069L697.514 183.854ZM713.162 168.965L712.184 168.758L712.181 168.769L713.162 168.965ZM702.73 168.139L703.708 168.349L703.711 168.335L702.73 168.139ZM702.697 171.011L702.536 170.024C701.117 170.255 699.69 170.486 698.262 170.717C696.834 170.949 695.406 171.18 693.986 171.411L694.147 172.398L694.307 173.385C695.726 173.154 697.154 172.923 698.582 172.692C700.009 172.461 701.438 172.23 702.858 171.998L702.697 171.011ZM694.147 172.398L695.144 172.321C695.111 171.903 695.08 171.403 695.08 170.879H694.08H693.08C693.08 171.478 693.116 172.035 693.149 172.475L694.147 172.398ZM694.08 170.879H695.08C695.08 170.126 695.084 169.44 695.193 168.897L694.213 168.7L693.232 168.504C693.077 169.281 693.08 170.18 693.08 170.879H694.08ZM694.213 168.7L695.189 168.917C695.234 168.713 695.256 168.523 695.271 168.396C695.289 168.253 695.299 168.181 695.315 168.118L694.345 167.875L693.374 167.633C693.324 167.834 693.302 168.025 693.286 168.155C693.268 168.3 693.257 168.391 693.236 168.483L694.213 168.7ZM694.345 167.875L695.321 168.091C696.603 162.292 701.829 157.419 709.828 157.419V156.419V155.419C700.924 155.419 694.859 160.913 693.368 167.659L694.345 167.875ZM709.828 156.419V157.419C713.556 157.419 716.267 158.079 718.026 159.358C719.722 160.591 720.68 162.509 720.68 165.432H721.68H722.68C722.68 162.017 721.525 159.429 719.202 157.74C716.941 156.097 713.726 155.419 709.828 155.419V156.419ZM721.68 165.432H720.68C720.68 166.46 720.586 167.581 720.337 168.797L721.317 168.998L722.296 169.198C722.575 167.839 722.68 166.583 722.68 165.432H721.68ZM721.317 168.998L720.335 168.804C719.126 174.945 714.88 178.157 711.612 181.022L712.271 181.774L712.93 182.526C716.066 179.778 720.932 176.123 722.298 169.191L721.317 168.998ZM712.271 181.774L711.631 181.006C711.101 181.447 710.121 182.211 708.913 183.16C707.714 184.101 706.311 185.21 704.962 186.321C703.617 187.43 702.309 188.556 701.309 189.53C700.81 190.015 700.37 190.48 700.036 190.898C699.735 191.274 699.402 191.752 699.306 192.244L700.287 192.437L701.268 192.63C701.262 192.66 701.304 192.515 701.598 192.147C701.858 191.821 702.232 191.422 702.704 190.963C703.644 190.048 704.901 188.963 706.234 187.865C707.564 186.769 708.952 185.672 710.148 184.732C711.334 183.8 712.352 183.008 712.911 182.542L712.271 181.774ZM700.287 192.437V193.437H717.322V192.437V191.437H700.287V192.437ZM717.322 192.437L716.34 192.246C716.109 193.434 715.878 194.614 715.647 195.794C715.416 196.974 715.185 198.155 714.954 199.344L715.935 199.535L716.917 199.726C717.148 198.538 717.379 197.359 717.61 196.178C717.841 194.998 718.072 193.817 718.304 192.628L717.322 192.437ZM715.935 199.535V198.535H687.544V199.535V200.535H715.935V199.535ZM687.544 199.535L688.524 199.731C688.628 199.213 688.713 198.683 688.796 198.16C688.879 197.63 688.959 197.108 689.056 196.578L688.072 196.399L687.088 196.22C686.986 196.779 686.902 197.33 686.82 197.848C686.738 198.373 686.658 198.866 686.563 199.339L687.544 199.535ZM688.072 196.399L689.054 196.588C689.211 195.774 689.429 194.932 689.74 194.061L688.798 193.725L687.857 193.388C687.507 194.366 687.264 195.307 687.09 196.21L688.072 196.399ZM688.798 193.725L689.736 194.073C690.818 191.156 693.91 187.971 698.133 184.639L697.514 183.854L696.894 183.069C692.666 186.405 689.155 189.888 687.861 193.377L688.798 193.725ZM697.514 183.854L698.13 184.641C699.318 183.712 700.805 182.678 702.425 181.537C704.032 180.404 705.754 179.175 707.363 177.882C708.97 176.591 710.493 175.216 711.693 173.78C712.888 172.351 713.817 170.801 714.143 169.16L713.162 168.965L712.181 168.769C711.947 169.951 711.245 171.198 710.159 172.497C709.078 173.789 707.669 175.071 706.111 176.323C704.555 177.572 702.879 178.77 701.272 179.902C699.678 181.026 698.136 182.097 696.898 183.066L697.514 183.854ZM713.162 168.965L714.141 169.171C714.285 168.487 714.36 167.823 714.36 167.215H713.36H712.36C712.36 167.663 712.304 168.187 712.184 168.758L713.162 168.965ZM713.36 167.215H714.36C714.36 165.707 713.904 164.433 712.877 163.56C711.881 162.713 710.51 162.385 708.97 162.385V163.385V164.385C710.268 164.385 711.092 164.668 711.582 165.084C712.041 165.474 712.36 166.115 712.36 167.215H713.36ZM708.97 163.385V162.385C706.236 162.385 702.535 164.013 701.749 167.943L702.73 168.139L703.711 168.335C704.245 165.663 706.817 164.385 708.97 164.385V163.385ZM702.73 168.139L701.752 167.93C701.641 168.449 701.565 169.015 701.565 169.658H702.565H703.565C703.565 169.178 703.621 168.754 703.708 168.349L702.73 168.139ZM702.565 169.658H701.565C701.565 170.136 701.602 170.672 701.719 171.221L702.697 171.011L703.675 170.802C703.594 170.427 703.565 170.038 703.565 169.658H702.565Z" fill="black" mask="url(#path-6-outside-1_190_12)"/>
<mask id="path-8-outside-2_190_12" maskUnits="userSpaceOnUse" x="387.535" y="225.535" width="72" height="47" fill="black">
<rect fill="white" x="387.535" y="225.535" width="72" height="47"/>
<path d="M406.876 226.891C409.451 227.386 411.993 227.882 414.568 228.377C411.828 242.54 409.055 256.669 406.314 270.832H397.797C399.844 260.235 401.858 249.67 403.904 239.073C401.098 241.879 397.104 245.313 392.35 247.723C391.227 245.379 390.105 243.002 388.982 240.658C400.108 235.574 406.513 227.386 406.876 226.891ZM449.983 226.891C452.558 227.386 455.1 227.882 457.676 228.377C454.935 242.54 452.162 256.669 449.422 270.832H440.905C442.952 260.235 444.965 249.67 447.012 239.073C444.206 241.879 440.211 245.313 435.457 247.723C434.335 245.379 433.213 243.002 432.09 240.658C443.216 235.574 449.62 227.386 449.983 226.891Z"/>
</mask>
<path d="M406.876 226.891C409.451 227.386 411.993 227.882 414.568 228.377C411.828 242.54 409.055 256.669 406.314 270.832H397.797C399.844 260.235 401.858 249.67 403.904 239.073C401.098 241.879 397.104 245.313 392.35 247.723C391.227 245.379 390.105 243.002 388.982 240.658C400.108 235.574 406.513 227.386 406.876 226.891ZM449.983 226.891C452.558 227.386 455.1 227.882 457.676 228.377C454.935 242.54 452.162 256.669 449.422 270.832H440.905C442.952 260.235 444.965 249.67 447.012 239.073C444.206 241.879 440.211 245.313 435.457 247.723C434.335 245.379 433.213 243.002 432.09 240.658C443.216 235.574 449.62 227.386 449.983 226.891Z" fill="#691919"/>
<path d="M406.876 226.891L407.065 225.909L406.443 225.79L406.069 226.3L406.876 226.891ZM414.568 228.377L415.55 228.567L415.74 227.584L414.757 227.395L414.568 228.377ZM406.314 270.832V271.832H407.14L407.296 271.022L406.314 270.832ZM397.797 270.832L396.815 270.642L396.585 271.832H397.797V270.832ZM403.904 239.073L404.886 239.263L405.505 236.058L403.197 238.366L403.904 239.073ZM392.35 247.723L391.448 248.155L391.89 249.077L392.802 248.615L392.35 247.723ZM388.982 240.658L388.567 239.748L387.641 240.171L388.08 241.09L388.982 240.658ZM406.876 226.891L406.687 227.873C407.974 228.121 409.252 228.368 410.532 228.616C411.811 228.863 413.091 229.111 414.379 229.359L414.568 228.377L414.757 227.395C413.47 227.147 412.191 226.9 410.912 226.652C409.633 226.405 408.353 226.157 407.065 225.909L406.876 226.891ZM414.568 228.377L413.586 228.187C412.216 235.267 410.838 242.34 409.46 249.413C408.081 256.486 406.703 263.56 405.333 270.642L406.314 270.832L407.296 271.022C408.666 263.941 410.044 256.869 411.423 249.796C412.801 242.723 414.179 235.649 415.55 228.567L414.568 228.377ZM406.314 270.832V269.832H397.797V270.832V271.832H406.314V270.832ZM397.797 270.832L398.779 271.022C399.802 265.722 400.818 260.431 401.833 255.141C402.848 249.851 403.863 244.561 404.886 239.263L403.904 239.073L402.923 238.883C401.899 244.183 400.884 249.474 399.869 254.764C398.853 260.055 397.838 265.345 396.815 270.642L397.797 270.832ZM403.904 239.073L403.197 238.366C400.431 241.133 396.521 244.487 391.898 246.831L392.35 247.723L392.802 248.615C397.686 246.139 401.766 242.626 404.612 239.78L403.904 239.073ZM392.35 247.723L393.252 247.291C392.691 246.12 392.13 244.941 391.569 243.761C391.008 242.581 390.446 241.399 389.884 240.226L388.982 240.658L388.08 241.09C388.641 242.26 389.202 243.439 389.763 244.62C390.324 245.8 390.886 246.981 391.448 248.155L392.35 247.723ZM388.982 240.658L389.398 241.567C400.737 236.386 407.264 228.053 407.682 227.483L406.876 226.891L406.069 226.3C405.761 226.72 399.479 234.762 388.567 239.748L388.982 240.658ZM449.983 226.891L450.172 225.909L449.551 225.79L449.177 226.3L449.983 226.891ZM457.676 228.377L458.657 228.567L458.848 227.584L457.864 227.395L457.676 228.377ZM449.422 270.832V271.832H450.247L450.404 271.022L449.422 270.832ZM440.905 270.832L439.923 270.642L439.693 271.832H440.905V270.832ZM447.012 239.073L447.994 239.263L448.613 236.058L446.305 238.366L447.012 239.073ZM435.457 247.723L434.556 248.155L434.997 249.077L435.91 248.615L435.457 247.723ZM432.09 240.658L431.674 239.748L430.748 240.171L431.188 241.09L432.09 240.658ZM449.983 226.891L449.795 227.873C451.081 228.121 452.36 228.368 453.639 228.616C454.919 228.863 456.198 229.111 457.487 229.359L457.676 228.377L457.864 227.395C456.578 227.147 455.299 226.9 454.019 226.652C452.74 226.405 451.46 226.157 450.172 225.909L449.983 226.891ZM457.676 228.377L456.694 228.187C455.324 235.267 453.946 242.34 452.567 249.413C451.189 256.486 449.811 263.56 448.44 270.642L449.422 270.832L450.404 271.022C451.774 263.941 453.152 256.869 454.53 249.796C455.909 242.723 457.287 235.649 458.657 228.567L457.676 228.377ZM449.422 270.832V269.832H440.905V270.832V271.832H449.422V270.832ZM440.905 270.832L441.887 271.022C442.91 265.722 443.925 260.431 444.941 255.141C445.956 249.851 446.971 244.561 447.994 239.263L447.012 239.073L446.03 238.883C445.007 244.183 443.991 249.474 442.976 254.764C441.961 260.055 440.946 265.345 439.923 270.642L440.905 270.832ZM447.012 239.073L446.305 238.366C443.539 241.133 439.629 244.487 435.005 246.831L435.457 247.723L435.91 248.615C440.794 246.139 444.874 242.626 447.719 239.78L447.012 239.073ZM435.457 247.723L436.359 247.291C435.799 246.12 435.238 244.941 434.677 243.761C434.116 242.581 433.554 241.399 432.992 240.226L432.09 240.658L431.188 241.09C431.749 242.26 432.309 243.439 432.871 244.62C433.432 245.8 433.994 246.981 434.556 248.155L435.457 247.723ZM432.09 240.658L432.506 241.567C443.845 236.386 450.372 228.053 450.79 227.483L449.983 226.891L449.177 226.3C448.869 226.72 442.587 234.762 431.674 239.748L432.09 240.658Z" fill="black" mask="url(#path-8-outside-2_190_12)"/>
<mask id="path-10-outside-3_190_12" maskUnits="userSpaceOnUse" x="908.535" y="225.535" width="29" height="47" fill="black">
<rect fill="white" x="908.535" y="225.535" width="29" height="47"/>
<path d="M927.876 226.891C930.451 227.386 932.993 227.882 935.568 228.377C932.828 242.54 930.055 256.669 927.314 270.832H918.797C920.844 260.235 922.858 249.67 924.904 239.073C922.098 241.879 918.104 245.313 913.35 247.723C912.227 245.379 911.105 243.002 909.982 240.658C921.108 235.574 927.513 227.386 927.876 226.891Z"/>
</mask>
<path d="M927.876 226.891C930.451 227.386 932.993 227.882 935.568 228.377C932.828 242.54 930.055 256.669 927.314 270.832H918.797C920.844 260.235 922.858 249.67 924.904 239.073C922.098 241.879 918.104 245.313 913.35 247.723C912.227 245.379 911.105 243.002 909.982 240.658C921.108 235.574 927.513 227.386 927.876 226.891Z" fill="#691919"/>
<path d="M927.876 226.891L928.065 225.909L927.443 225.79L927.069 226.3L927.876 226.891ZM935.568 228.377L936.55 228.567L936.74 227.584L935.757 227.395L935.568 228.377ZM927.314 270.832V271.832H928.14L928.296 271.022L927.314 270.832ZM918.797 270.832L917.815 270.642L917.585 271.832H918.797V270.832ZM924.904 239.073L925.886 239.263L926.505 236.058L924.197 238.366L924.904 239.073ZM913.35 247.723L912.448 248.155L912.89 249.077L913.802 248.615L913.35 247.723ZM909.982 240.658L909.567 239.748L908.641 240.171L909.08 241.09L909.982 240.658ZM927.876 226.891L927.687 227.873C928.974 228.121 930.252 228.368 931.532 228.616C932.811 228.863 934.091 229.111 935.379 229.359L935.568 228.377L935.757 227.395C934.47 227.147 933.191 226.9 931.912 226.652C930.633 226.405 929.353 226.157 928.065 225.909L927.876 226.891ZM935.568 228.377L934.586 228.187C933.216 235.267 931.838 242.34 930.46 249.413C929.081 256.486 927.703 263.56 926.333 270.642L927.314 270.832L928.296 271.022C929.666 263.941 931.044 256.869 932.423 249.796C933.801 242.723 935.179 235.649 936.55 228.567L935.568 228.377ZM927.314 270.832V269.832H918.797V270.832V271.832H927.314V270.832ZM918.797 270.832L919.779 271.022C920.802 265.722 921.818 260.431 922.833 255.141C923.848 249.851 924.863 244.561 925.886 239.263L924.904 239.073L923.923 238.883C922.899 244.183 921.884 249.474 920.869 254.764C919.853 260.055 918.838 265.345 917.815 270.642L918.797 270.832ZM924.904 239.073L924.197 238.366C921.431 241.133 917.521 244.487 912.898 246.831L913.35 247.723L913.802 248.615C918.686 246.139 922.766 242.626 925.612 239.78L924.904 239.073ZM913.35 247.723L914.252 247.291C913.691 246.12 913.13 244.941 912.569 243.761C912.008 242.581 911.446 241.399 910.884 240.226L909.982 240.658L909.08 241.09C909.641 242.26 910.202 243.439 910.763 244.62C911.324 245.8 911.886 246.981 912.448 248.155L913.35 247.723ZM909.982 240.658L910.398 241.567C921.737 236.386 928.264 228.053 928.682 227.483L927.876 226.891L927.069 226.3C926.761 226.72 920.479 234.762 909.567 239.748L909.982 240.658Z" fill="black" mask="url(#path-10-outside-3_190_12)"/>
<mask id="path-12-outside-4_190_12" maskUnits="userSpaceOnUse" x="225.535" y="409.535" width="74" height="47" fill="black">
<rect fill="white" x="225.535" y="409.535" width="74" height="47"/>
<path d="M244.876 410.891C247.451 411.386 249.993 411.882 252.568 412.377C249.828 426.54 247.055 440.669 244.314 454.832H235.797C237.844 444.235 239.858 433.67 241.904 423.073C239.098 425.879 235.104 429.313 230.35 431.723C229.227 429.379 228.105 427.002 226.982 424.658C238.108 419.574 244.513 411.386 244.876 410.891ZM277.386 435.354C281.315 431.062 285.243 426.804 289.172 422.512C288.776 419.211 288.545 418.055 286.201 418.055C281.117 418.055 278.773 427.662 277.65 433.703C277.518 434.463 277.386 435.354 277.386 435.354ZM288.776 430.567C284.781 434.892 280.753 439.25 276.759 443.575C277.023 446.711 277.617 448.229 279.862 448.229C285.045 448.229 287.059 439.943 288.512 432.185C288.677 431.26 288.776 430.567 288.776 430.567ZM287.587 411.221C295.312 411.221 297.722 416.9 297.722 423.965C297.722 426.771 297.326 429.775 296.765 432.746C294.718 443.442 290.063 455.096 278.971 455.096C270.75 455.096 268.175 449.88 268.175 442.881C268.175 440.174 268.538 437.236 269.133 434.199C271.279 423.139 275.801 411.221 287.587 411.221Z"/>
</mask>
<path d="M244.876 410.891C247.451 411.386 249.993 411.882 252.568 412.377C249.828 426.54 247.055 440.669 244.314 454.832H235.797C237.844 444.235 239.858 433.67 241.904 423.073C239.098 425.879 235.104 429.313 230.35 431.723C229.227 429.379 228.105 427.002 226.982 424.658C238.108 419.574 244.513 411.386 244.876 410.891ZM277.386 435.354C281.315 431.062 285.243 426.804 289.172 422.512C288.776 419.211 288.545 418.055 286.201 418.055C281.117 418.055 278.773 427.662 277.65 433.703C277.518 434.463 277.386 435.354 277.386 435.354ZM288.776 430.567C284.781 434.892 280.753 439.25 276.759 443.575C277.023 446.711 277.617 448.229 279.862 448.229C285.045 448.229 287.059 439.943 288.512 432.185C288.677 431.26 288.776 430.567 288.776 430.567ZM287.587 411.221C295.312 411.221 297.722 416.9 297.722 423.965C297.722 426.771 297.326 429.775 296.765 432.746C294.718 443.442 290.063 455.096 278.971 455.096C270.75 455.096 268.175 449.88 268.175 442.881C268.175 440.174 268.538 437.236 269.133 434.199C271.279 423.139 275.801 411.221 287.587 411.221Z" fill="#691919"/>
<path d="M244.876 410.891L245.065 409.909L244.443 409.79L244.069 410.3L244.876 410.891ZM252.568 412.377L253.55 412.567L253.74 411.584L252.757 411.395L252.568 412.377ZM244.314 454.832V455.832H245.14L245.296 455.022L244.314 454.832ZM235.797 454.832L234.815 454.642L234.585 455.832H235.797V454.832ZM241.904 423.073L242.886 423.263L243.505 420.058L241.197 422.366L241.904 423.073ZM230.35 431.723L229.448 432.155L229.89 433.077L230.802 432.615L230.35 431.723ZM226.982 424.658L226.567 423.748L225.641 424.171L226.08 425.09L226.982 424.658ZM244.876 410.891L244.687 411.873C245.974 412.121 247.252 412.368 248.532 412.616C249.811 412.863 251.091 413.111 252.379 413.359L252.568 412.377L252.757 411.395C251.47 411.147 250.191 410.9 248.912 410.652C247.633 410.405 246.353 410.157 245.065 409.909L244.876 410.891ZM252.568 412.377L251.586 412.187C250.216 419.267 248.838 426.34 247.46 433.413C246.081 440.486 244.703 447.56 243.333 454.642L244.314 454.832L245.296 455.022C246.666 447.941 248.044 440.869 249.423 433.796C250.801 426.723 252.179 419.649 253.55 412.567L252.568 412.377ZM244.314 454.832V453.832H235.797V454.832V455.832H244.314V454.832ZM235.797 454.832L236.779 455.022C237.802 449.722 238.818 444.431 239.833 439.141C240.848 433.851 241.863 428.561 242.886 423.263L241.904 423.073L240.923 422.883C239.899 428.183 238.884 433.474 237.869 438.764C236.853 444.055 235.838 449.345 234.815 454.642L235.797 454.832ZM241.904 423.073L241.197 422.366C238.431 425.133 234.521 428.487 229.898 430.831L230.35 431.723L230.802 432.615C235.686 430.139 239.766 426.626 242.612 423.78L241.904 423.073ZM230.35 431.723L231.252 431.291C230.691 430.12 230.13 428.941 229.569 427.761C229.008 426.581 228.446 425.399 227.884 424.226L226.982 424.658L226.08 425.09C226.641 426.26 227.202 427.439 227.763 428.62C228.324 429.8 228.886 430.981 229.448 432.155L230.35 431.723ZM226.982 424.658L227.398 425.567C238.737 420.386 245.264 412.053 245.682 411.483L244.876 410.891L244.069 410.3C243.761 410.72 237.479 418.762 226.567 423.748L226.982 424.658ZM277.386 435.354L276.397 435.208L275.918 438.439L278.124 436.029L277.386 435.354ZM289.172 422.512L289.91 423.187L290.219 422.849L290.165 422.393L289.172 422.512ZM277.65 433.703L276.667 433.521L276.665 433.532L277.65 433.703ZM288.776 430.567L289.766 430.709L290.22 427.53L288.041 429.889L288.776 430.567ZM276.759 443.575L276.024 442.896L275.725 443.22L275.762 443.658L276.759 443.575ZM288.512 432.185L289.495 432.369L289.496 432.361L288.512 432.185ZM296.765 432.746L297.747 432.934L297.748 432.932L296.765 432.746ZM269.133 434.199L270.114 434.391L270.114 434.389L269.133 434.199ZM277.386 435.354L278.124 436.029C280.087 433.884 282.051 431.747 284.015 429.61C285.979 427.472 287.944 425.334 289.91 423.187L289.172 422.512L288.434 421.837C286.471 423.982 284.507 426.119 282.543 428.256C280.578 430.394 278.613 432.532 276.648 434.679L277.386 435.354ZM289.172 422.512L290.165 422.393C290.066 421.572 289.974 420.844 289.851 420.228C289.729 419.616 289.564 419.039 289.285 418.55C288.99 418.032 288.575 417.629 288.006 417.374C287.468 417.134 286.856 417.055 286.201 417.055V418.055V419.055C286.718 419.055 287.013 419.121 287.19 419.2C287.336 419.266 287.444 419.358 287.548 419.541C287.669 419.753 287.783 420.084 287.889 420.618C287.995 421.147 288.079 421.801 288.179 422.631L289.172 422.512ZM286.201 418.055V417.055C284.58 417.055 283.235 417.831 282.155 418.959C281.087 420.076 280.225 421.586 279.522 423.218C278.113 426.484 277.23 430.489 276.667 433.521L277.65 433.703L278.633 433.886C279.193 430.877 280.043 427.058 281.358 424.01C282.016 422.484 282.764 421.216 283.6 420.342C284.425 419.48 285.28 419.055 286.201 419.055V418.055ZM277.65 433.703L276.665 433.532C276.597 433.92 276.53 434.339 276.481 434.66C276.455 434.82 276.435 434.957 276.42 435.053C276.413 435.102 276.407 435.14 276.403 435.166C276.401 435.18 276.4 435.19 276.398 435.197C276.398 435.2 276.398 435.203 276.397 435.205C276.397 435.206 276.397 435.206 276.397 435.207C276.397 435.207 276.397 435.207 276.397 435.207C276.397 435.207 276.397 435.207 276.397 435.208C276.397 435.208 276.397 435.208 276.397 435.208C276.397 435.208 276.397 435.208 277.386 435.354C278.375 435.501 278.375 435.501 278.375 435.501C278.375 435.501 278.375 435.501 278.375 435.501C278.375 435.501 278.375 435.501 278.375 435.501C278.375 435.501 278.375 435.5 278.375 435.5C278.375 435.5 278.375 435.499 278.376 435.498C278.376 435.497 278.376 435.494 278.377 435.491C278.378 435.485 278.379 435.475 278.381 435.462C278.385 435.437 278.39 435.4 278.397 435.353C278.412 435.258 278.432 435.125 278.457 434.968C278.506 434.652 278.571 434.246 278.635 433.875L277.65 433.703ZM288.776 430.567L288.041 429.889C286.044 432.051 284.038 434.222 282.033 436.392C280.027 438.563 278.022 440.734 276.024 442.896L276.759 443.575L277.493 444.253C279.491 442.091 281.496 439.92 283.502 437.749C285.507 435.579 287.513 433.408 289.51 431.246L288.776 430.567ZM276.759 443.575L275.762 443.658C275.894 445.221 276.116 446.6 276.71 447.592C277.025 448.118 277.45 448.547 278.013 448.834C278.567 449.116 279.191 449.229 279.862 449.229V448.229V447.229C279.411 447.229 279.119 447.153 278.921 447.052C278.734 446.957 278.573 446.81 278.426 446.564C278.095 446.013 277.888 445.064 277.755 443.491L276.759 443.575ZM279.862 448.229V449.229C283.1 449.229 285.142 446.619 286.502 443.518C287.886 440.358 288.769 436.241 289.495 432.369L288.512 432.185L287.529 432.001C286.801 435.886 285.951 439.792 284.67 442.715C283.363 445.696 281.807 447.229 279.862 447.229V448.229ZM288.512 432.185L289.496 432.361C289.58 431.89 289.647 431.479 289.693 431.185C289.717 431.037 289.734 430.919 289.747 430.838C289.753 430.797 289.757 430.765 289.761 430.743C289.762 430.732 289.763 430.724 289.764 430.718C289.765 430.715 289.765 430.713 289.765 430.711C289.765 430.711 289.765 430.71 289.766 430.709C289.766 430.709 289.766 430.709 289.766 430.709C289.766 430.709 289.766 430.709 289.766 430.709C289.766 430.709 289.766 430.709 289.766 430.709C289.766 430.709 289.766 430.709 288.776 430.567C287.786 430.426 287.786 430.426 287.786 430.426C287.786 430.426 287.786 430.426 287.786 430.426C287.786 430.426 287.786 430.426 287.786 430.426C287.786 430.426 287.786 430.426 287.786 430.426C287.786 430.426 287.786 430.427 287.786 430.427C287.785 430.428 287.785 430.43 287.785 430.432C287.784 430.437 287.783 430.445 287.782 430.454C287.779 430.474 287.774 430.504 287.769 430.542C287.757 430.619 287.74 430.732 287.718 430.874C287.673 431.158 287.608 431.555 287.527 432.009L288.512 432.185ZM287.587 411.221V412.221C291.167 412.221 293.369 413.515 294.725 415.506C296.128 417.567 296.722 420.515 296.722 423.965H297.722H298.722C298.722 420.349 298.111 416.926 296.378 414.381C294.598 411.767 291.733 410.221 287.587 410.221V411.221ZM297.722 423.965H296.722C296.722 426.683 296.338 429.62 295.782 432.56L296.765 432.746L297.748 432.932C298.315 429.93 298.722 426.858 298.722 423.965H297.722ZM296.765 432.746L295.783 432.558C294.769 437.858 293.124 443.293 290.425 447.381C287.75 451.434 284.092 454.096 278.971 454.096V455.096V456.096C284.941 456.096 289.158 452.931 292.095 448.483C295.008 444.07 296.714 438.331 297.747 432.934L296.765 432.746ZM278.971 455.096V454.096C275.087 454.096 272.72 452.877 271.284 451.005C269.808 449.08 269.175 446.288 269.175 442.881H268.175H267.175C267.175 446.473 267.83 449.789 269.697 452.222C271.603 454.707 274.634 456.096 278.971 456.096V455.096ZM268.175 442.881H269.175C269.175 440.259 269.528 437.388 270.114 434.391L269.133 434.199L268.151 434.007C267.549 437.084 267.175 440.089 267.175 442.881H268.175ZM269.133 434.199L270.114 434.389C271.18 428.898 272.817 423.309 275.58 419.113C278.314 414.961 282.108 412.221 287.587 412.221V411.221V410.221C281.281 410.221 276.92 413.441 273.91 418.013C270.928 422.541 269.231 428.44 268.151 434.008L269.133 434.199Z" fill="black" mask="url(#path-12-outside-4_190_12)"/>
<mask id="path-14-outside-5_190_12" maskUnits="userSpaceOnUse" x="1080.54" y="409.535" width="38" height="46" fill="black">
<rect fill="white" x="1080.54" y="409.535" width="38" height="46"/>
<path d="M1097.59 426.011C1094.75 426.474 1091.88 426.936 1089.04 427.398C1089.01 426.969 1088.97 426.441 1088.97 425.879C1088.97 425.153 1088.97 424.361 1089.1 423.7C1089.17 423.403 1089.17 423.139 1089.24 422.875C1090.62 416.602 1096.27 411.419 1104.72 411.419C1112.35 411.419 1116.57 414.093 1116.57 420.432C1116.57 421.522 1116.47 422.71 1116.21 423.998C1114.92 430.534 1110.37 433.968 1107.16 436.774C1104.98 438.589 1095.54 445.588 1095.18 447.437H1112.21C1111.75 449.814 1111.29 452.158 1110.83 454.535H1082.44C1082.63 453.545 1082.77 452.488 1082.96 451.399C1083.13 450.54 1083.36 449.649 1083.69 448.725C1084.88 445.522 1088.18 442.188 1092.41 438.854C1097.26 435.057 1106.93 429.61 1108.05 423.965C1108.19 423.337 1108.25 422.743 1108.25 422.215C1108.25 419.607 1106.7 418.385 1103.86 418.385C1101.42 418.385 1098.28 419.838 1097.62 423.139C1097.52 423.601 1097.46 424.097 1097.46 424.658C1097.46 425.087 1097.49 425.549 1097.59 426.011Z"/>
</mask>
<path d="M1097.59 426.011C1094.75 426.474 1091.88 426.936 1089.04 427.398C1089.01 426.969 1088.97 426.441 1088.97 425.879C1088.97 425.153 1088.97 424.361 1089.1 423.7C1089.17 423.403 1089.17 423.139 1089.24 422.875C1090.62 416.602 1096.27 411.419 1104.72 411.419C1112.35 411.419 1116.57 414.093 1116.57 420.432C1116.57 421.522 1116.47 422.71 1116.21 423.998C1114.92 430.534 1110.37 433.968 1107.16 436.774C1104.98 438.589 1095.54 445.588 1095.18 447.437H1112.21C1111.75 449.814 1111.29 452.158 1110.83 454.535H1082.44C1082.63 453.545 1082.77 452.488 1082.96 451.399C1083.13 450.54 1083.36 449.649 1083.69 448.725C1084.88 445.522 1088.18 442.188 1092.41 438.854C1097.26 435.057 1106.93 429.61 1108.05 423.965C1108.19 423.337 1108.25 422.743 1108.25 422.215C1108.25 419.607 1106.7 418.385 1103.86 418.385C1101.42 418.385 1098.28 419.838 1097.62 423.139C1097.52 423.601 1097.46 424.097 1097.46 424.658C1097.46 425.087 1097.49 425.549 1097.59 426.011Z" fill="#691919"/>
<path d="M1097.59 426.011L1097.75 426.998L1098.79 426.829L1098.57 425.802L1097.59 426.011ZM1089.04 427.398L1088.04 427.475L1088.13 428.56L1089.2 428.385L1089.04 427.398ZM1089.1 423.7L1088.13 423.483L1088.13 423.494L1088.12 423.504L1089.1 423.7ZM1089.24 422.875L1090.21 423.118L1090.21 423.104L1090.21 423.091L1089.24 422.875ZM1116.21 423.998L1115.23 423.797L1115.23 423.804L1116.21 423.998ZM1107.16 436.774L1107.8 437.542L1107.81 437.534L1107.82 437.526L1107.16 436.774ZM1095.18 447.437L1094.2 447.244L1093.96 448.437H1095.18V447.437ZM1112.21 447.437L1113.2 447.628L1113.43 446.437H1112.21V447.437ZM1110.83 454.535V455.535H1111.65L1111.81 454.726L1110.83 454.535ZM1082.44 454.535L1081.46 454.339L1081.22 455.535H1082.44V454.535ZM1082.96 451.399L1081.98 451.21L1081.98 451.22L1082.96 451.399ZM1083.69 448.725L1082.75 448.377L1082.75 448.388L1083.69 448.725ZM1092.41 438.854L1091.79 438.066L1091.79 438.069L1092.41 438.854ZM1108.05 423.965L1107.08 423.758L1107.07 423.769L1108.05 423.965ZM1097.62 423.139L1098.6 423.349L1098.6 423.335L1097.62 423.139ZM1097.59 426.011L1097.43 425.024C1096.01 425.255 1094.58 425.486 1093.15 425.717C1091.73 425.949 1090.3 426.18 1088.88 426.411L1089.04 427.398L1089.2 428.385C1090.62 428.154 1092.05 427.923 1093.47 427.692C1094.9 427.461 1096.33 427.23 1097.75 426.998L1097.59 426.011ZM1089.04 427.398L1090.04 427.321C1090 426.903 1089.97 426.403 1089.97 425.879H1088.97H1087.97C1087.97 426.478 1088.01 427.035 1088.04 427.475L1089.04 427.398ZM1088.97 425.879H1089.97C1089.97 425.126 1089.98 424.44 1090.09 423.897L1089.1 423.7L1088.12 423.504C1087.97 424.281 1087.97 425.18 1087.97 425.879H1088.97ZM1089.1 423.7L1090.08 423.917C1090.13 423.713 1090.15 423.523 1090.16 423.396C1090.18 423.253 1090.19 423.181 1090.21 423.118L1089.24 422.875L1088.27 422.633C1088.22 422.834 1088.19 423.025 1088.18 423.155C1088.16 423.3 1088.15 423.391 1088.13 423.483L1089.1 423.7ZM1089.24 422.875L1090.21 423.091C1091.5 417.292 1096.72 412.419 1104.72 412.419V411.419V410.419C1095.82 410.419 1089.75 415.913 1088.26 422.659L1089.24 422.875ZM1104.72 411.419V412.419C1108.45 412.419 1111.16 413.079 1112.92 414.358C1114.61 415.591 1115.57 417.509 1115.57 420.432H1116.57H1117.57C1117.57 417.017 1116.42 414.429 1114.09 412.74C1111.83 411.097 1108.62 410.419 1104.72 410.419V411.419ZM1116.57 420.432H1115.57C1115.57 421.46 1115.48 422.581 1115.23 423.797L1116.21 423.998L1117.19 424.198C1117.47 422.839 1117.57 421.583 1117.57 420.432H1116.57ZM1116.21 423.998L1115.23 423.804C1114.02 429.945 1109.77 433.157 1106.5 436.022L1107.16 436.774L1107.82 437.526C1110.96 434.778 1115.82 431.123 1117.19 424.191L1116.21 423.998ZM1107.16 436.774L1106.52 436.006C1105.99 436.447 1105.01 437.211 1103.8 438.16C1102.61 439.101 1101.2 440.21 1099.85 441.321C1098.51 442.43 1097.2 443.556 1096.2 444.53C1095.7 445.015 1095.26 445.48 1094.93 445.898C1094.63 446.274 1094.29 446.752 1094.2 447.244L1095.18 447.437L1096.16 447.63C1096.15 447.66 1096.2 447.515 1096.49 447.147C1096.75 446.821 1097.12 446.422 1097.6 445.963C1098.54 445.048 1099.79 443.963 1101.13 442.865C1102.46 441.769 1103.84 440.672 1105.04 439.732C1106.23 438.8 1107.24 438.008 1107.8 437.542L1107.16 436.774ZM1095.18 447.437V448.437H1112.21V447.437V446.437H1095.18V447.437ZM1112.21 447.437L1111.23 447.246C1111 448.434 1110.77 449.614 1110.54 450.794C1110.31 451.974 1110.08 453.155 1109.85 454.344L1110.83 454.535L1111.81 454.726C1112.04 453.538 1112.27 452.359 1112.5 451.178C1112.73 449.998 1112.96 448.817 1113.2 447.628L1112.21 447.437ZM1110.83 454.535V453.535H1082.44V454.535V455.535H1110.83V454.535ZM1082.44 454.535L1083.42 454.731C1083.52 454.213 1083.61 453.683 1083.69 453.16C1083.77 452.63 1083.85 452.108 1083.95 451.578L1082.96 451.399L1081.98 451.22C1081.88 451.779 1081.79 452.33 1081.71 452.848C1081.63 453.373 1081.55 453.866 1081.46 454.339L1082.44 454.535ZM1082.96 451.399L1083.95 451.588C1084.1 450.774 1084.32 449.932 1084.63 449.061L1083.69 448.725L1082.75 448.388C1082.4 449.366 1082.16 450.307 1081.98 451.21L1082.96 451.399ZM1083.69 448.725L1084.63 449.073C1085.71 446.156 1088.8 442.971 1093.03 439.639L1092.41 438.854L1091.79 438.069C1087.56 441.405 1084.05 444.888 1082.75 448.377L1083.69 448.725ZM1092.41 438.854L1093.02 439.641C1094.21 438.712 1095.7 437.678 1097.32 436.537C1098.92 435.404 1100.65 434.175 1102.26 432.882C1103.86 431.591 1105.39 430.216 1106.59 428.78C1107.78 427.351 1108.71 425.801 1109.04 424.16L1108.05 423.965L1107.07 423.769C1106.84 424.951 1106.14 426.198 1105.05 427.497C1103.97 428.789 1102.56 430.071 1101 431.323C1099.45 432.572 1097.77 433.77 1096.16 434.902C1094.57 436.026 1093.03 437.097 1091.79 438.066L1092.41 438.854ZM1108.05 423.965L1109.03 424.171C1109.18 423.487 1109.25 422.823 1109.25 422.215H1108.25H1107.25C1107.25 422.663 1107.2 423.187 1107.08 423.758L1108.05 423.965ZM1108.25 422.215H1109.25C1109.25 420.707 1108.8 419.433 1107.77 418.56C1106.77 417.713 1105.4 417.385 1103.86 417.385V418.385V419.385C1105.16 419.385 1105.98 419.668 1106.47 420.084C1106.93 420.474 1107.25 421.115 1107.25 422.215H1108.25ZM1103.86 418.385V417.385C1101.13 417.385 1097.43 419.013 1096.64 422.943L1097.62 423.139L1098.6 423.335C1099.14 420.663 1101.71 419.385 1103.86 419.385V418.385ZM1097.62 423.139L1096.64 422.93C1096.53 423.449 1096.46 424.015 1096.46 424.658H1097.46H1098.46C1098.46 424.178 1098.51 423.754 1098.6 423.349L1097.62 423.139ZM1097.46 424.658H1096.46C1096.46 425.136 1096.49 425.672 1096.61 426.221L1097.59 426.011L1098.57 425.802C1098.49 425.427 1098.46 425.038 1098.46 424.658H1097.46Z" fill="black" mask="url(#path-14-outside-5_190_12)"/>
<mask id="path-16-outside-6_190_12" maskUnits="userSpaceOnUse" x="1137.54" y="634.535" width="35" height="47" fill="black">
<rect fill="white" x="1137.54" y="634.535" width="35" height="47"/>
<path d="M1138.73 668.542H1147.02C1147.02 672.503 1150.25 673.229 1152.9 673.229C1156.86 673.229 1159.89 670.126 1160.49 667.023C1160.62 666.297 1160.69 665.669 1160.69 665.108C1160.69 662.83 1159.66 661.774 1158.41 660.849C1156.73 659.595 1153.92 659.034 1151.28 659.034C1151.71 656.822 1152.14 654.643 1152.57 652.431H1153.09C1157.35 652.431 1161.71 650.483 1162.44 646.224C1162.47 645.993 1162.5 645.729 1162.5 645.498C1162.5 643.715 1161.02 642.494 1158.28 642.494C1154.71 642.494 1150.92 643.979 1150.09 645.168L1145.53 639.523C1145.8 639.027 1150.06 635.957 1159.3 635.957H1159.66C1164.02 635.957 1171.09 637.971 1171.09 644.012C1171.09 644.541 1171.02 645.069 1170.92 645.663C1170.16 649.889 1165.87 654.544 1162.47 655.171C1167.12 656.789 1169.27 659.958 1169.27 664.184C1169.27 665.108 1169.17 666.065 1168.97 667.056C1167.36 675.309 1162.8 680.261 1151.31 680.261C1142 680.261 1138.73 675.474 1138.73 668.542Z"/>
</mask>
<path d="M1138.73 668.542H1147.02C1147.02 672.503 1150.25 673.229 1152.9 673.229C1156.86 673.229 1159.89 670.126 1160.49 667.023C1160.62 666.297 1160.69 665.669 1160.69 665.108C1160.69 662.83 1159.66 661.774 1158.41 660.849C1156.73 659.595 1153.92 659.034 1151.28 659.034C1151.71 656.822 1152.14 654.643 1152.57 652.431H1153.09C1157.35 652.431 1161.71 650.483 1162.44 646.224C1162.47 645.993 1162.5 645.729 1162.5 645.498C1162.5 643.715 1161.02 642.494 1158.28 642.494C1154.71 642.494 1150.92 643.979 1150.09 645.168L1145.53 639.523C1145.8 639.027 1150.06 635.957 1159.3 635.957H1159.66C1164.02 635.957 1171.09 637.971 1171.09 644.012C1171.09 644.541 1171.02 645.069 1170.92 645.663C1170.16 649.889 1165.87 654.544 1162.47 655.171C1167.12 656.789 1169.27 659.958 1169.27 664.184C1169.27 665.108 1169.17 666.065 1168.97 667.056C1167.36 675.309 1162.8 680.261 1151.31 680.261C1142 680.261 1138.73 675.474 1138.73 668.542Z" fill="#691919"/>
<path d="M1138.73 668.542V667.542H1137.73V668.542H1138.73ZM1147.02 668.542H1148.02V667.542H1147.02V668.542ZM1160.49 667.023L1161.47 667.211L1161.47 667.202L1160.49 667.023ZM1158.41 660.849L1157.81 661.651L1157.82 661.654L1158.41 660.849ZM1151.28 659.034L1150.3 658.843L1150.07 660.034H1151.28V659.034ZM1152.57 652.431V651.431H1151.74L1151.58 652.24L1152.57 652.431ZM1162.44 646.224L1163.42 646.393L1163.42 646.379L1163.43 646.366L1162.44 646.224ZM1150.09 645.168L1149.31 645.796L1150.15 646.835L1150.91 645.738L1150.09 645.168ZM1145.53 639.523L1144.65 639.052L1144.34 639.636L1144.76 640.151L1145.53 639.523ZM1170.92 645.663L1171.91 645.84L1171.91 645.828L1170.92 645.663ZM1162.47 655.171L1162.29 654.188L1158.57 654.874L1162.14 656.116L1162.47 655.171ZM1168.97 667.056L1167.99 666.86L1167.99 666.864L1168.97 667.056ZM1138.73 668.542V669.542H1147.02V668.542V667.542H1138.73V668.542ZM1147.02 668.542H1146.02C1146.02 670.854 1147 672.363 1148.46 673.231C1149.83 674.046 1151.52 674.229 1152.9 674.229V673.229V672.229C1151.63 672.229 1150.38 672.049 1149.48 671.511C1148.66 671.025 1148.02 670.191 1148.02 668.542H1147.02ZM1152.9 673.229V674.229C1157.39 674.229 1160.8 670.736 1161.47 667.211L1160.49 667.023L1159.51 666.835C1158.99 669.516 1156.33 672.229 1152.9 672.229V673.229ZM1160.49 667.023L1161.47 667.202C1161.61 666.436 1161.69 665.746 1161.69 665.108H1160.69H1159.69C1159.69 665.593 1159.63 666.157 1159.51 666.844L1160.49 667.023ZM1160.69 665.108H1161.69C1161.69 663.808 1161.39 662.786 1160.87 661.944C1160.36 661.118 1159.66 660.532 1159 660.044L1158.41 660.849L1157.82 661.654C1158.41 662.091 1158.86 662.496 1159.17 662.999C1159.47 663.485 1159.69 664.13 1159.69 665.108H1160.69ZM1158.41 660.849L1159.01 660.047C1157.07 658.602 1154 658.034 1151.28 658.034V659.034V660.034C1153.84 660.034 1156.38 660.588 1157.81 661.651L1158.41 660.849ZM1151.28 659.034L1152.26 659.224C1152.47 658.119 1152.69 657.022 1152.9 655.924C1153.12 654.827 1153.33 653.728 1153.55 652.621L1152.57 652.431L1151.58 652.24C1151.37 653.346 1151.16 654.443 1150.94 655.54C1150.73 656.638 1150.51 657.736 1150.3 658.843L1151.28 659.034ZM1152.57 652.431V653.431H1153.09V652.431V651.431H1152.57V652.431ZM1153.09 652.431V653.431C1157.53 653.431 1162.57 651.385 1163.42 646.393L1162.44 646.224L1161.45 646.056C1160.85 649.581 1157.18 651.431 1153.09 651.431V652.431ZM1162.44 646.224L1163.43 646.366C1163.46 646.134 1163.5 645.807 1163.5 645.498H1162.5H1161.5C1161.5 645.651 1161.48 645.853 1161.45 646.083L1162.44 646.224ZM1162.5 645.498H1163.5C1163.5 644.296 1162.99 643.244 1162.01 642.524C1161.07 641.827 1159.78 641.494 1158.28 641.494V642.494V643.494C1159.51 643.494 1160.34 643.772 1160.82 644.131C1161.28 644.467 1161.5 644.917 1161.5 645.498H1162.5ZM1158.28 642.494V641.494C1156.37 641.494 1154.42 641.89 1152.83 642.441C1152.03 642.717 1151.31 643.039 1150.71 643.384C1150.14 643.715 1149.6 644.12 1149.27 644.598L1150.09 645.168L1150.91 645.738C1150.99 645.621 1151.23 645.395 1151.72 645.114C1152.18 644.846 1152.78 644.574 1153.48 644.33C1154.89 643.841 1156.62 643.494 1158.28 643.494V642.494ZM1150.09 645.168L1150.87 644.54L1146.31 638.895L1145.53 639.523L1144.76 640.151L1149.31 645.796L1150.09 645.168ZM1145.53 639.523L1146.42 639.993C1146.37 640.085 1146.32 640.123 1146.35 640.095C1146.36 640.081 1146.4 640.048 1146.46 640C1146.57 639.903 1146.76 639.769 1147.02 639.608C1147.54 639.289 1148.33 638.887 1149.4 638.493C1151.53 637.706 1154.79 636.957 1159.3 636.957V635.957V634.957C1154.57 634.957 1151.07 635.743 1148.7 636.616C1147.52 637.051 1146.61 637.51 1145.97 637.905C1145.65 638.102 1145.39 638.289 1145.19 638.455C1145.09 638.538 1144.99 638.622 1144.91 638.707C1144.84 638.778 1144.73 638.898 1144.65 639.052L1145.53 639.523ZM1159.3 635.957V636.957H1159.66V635.957V634.957H1159.3V635.957ZM1159.66 635.957V636.957C1161.72 636.957 1164.4 637.438 1166.53 638.597C1168.63 639.742 1170.09 641.469 1170.09 644.012H1171.09H1172.09C1172.09 640.514 1170.01 638.214 1167.49 636.841C1164.99 635.483 1161.96 634.957 1159.66 634.957V635.957ZM1171.09 644.012H1170.09C1170.09 644.459 1170.03 644.924 1169.94 645.499L1170.92 645.663L1171.91 645.828C1172.01 645.214 1172.09 644.622 1172.09 644.012H1171.09ZM1170.92 645.663L1169.94 645.486C1169.6 647.365 1168.45 649.421 1166.94 651.098C1165.42 652.79 1163.68 653.931 1162.29 654.188L1162.47 655.171L1162.65 656.154C1164.66 655.784 1166.77 654.283 1168.43 652.435C1170.11 650.571 1171.48 648.187 1171.91 645.84L1170.92 645.663ZM1162.47 655.171L1162.14 656.116C1164.32 656.873 1165.84 657.966 1166.81 659.291C1167.78 660.614 1168.27 662.245 1168.27 664.184H1169.27H1170.27C1170.27 661.896 1169.69 659.83 1168.42 658.107C1167.16 656.388 1165.27 655.086 1162.8 654.226L1162.47 655.171ZM1169.27 664.184H1168.27C1168.27 665.037 1168.18 665.928 1167.99 666.86L1168.97 667.056L1169.95 667.252C1170.16 666.203 1170.27 665.18 1170.27 664.184H1169.27ZM1168.97 667.056L1167.99 666.864C1167.21 670.861 1165.74 673.91 1163.21 675.979C1160.68 678.051 1156.92 679.261 1151.31 679.261V680.261V681.261C1157.19 681.261 1161.46 679.995 1164.48 677.528C1167.5 675.058 1169.12 671.505 1169.95 667.248L1168.97 667.056ZM1151.31 680.261V679.261C1146.82 679.261 1143.98 678.108 1142.25 676.309C1140.52 674.502 1139.73 671.868 1139.73 668.542H1138.73H1137.73C1137.73 672.148 1138.58 675.374 1140.81 677.694C1143.04 680.021 1146.5 681.261 1151.31 681.261V680.261Z" fill="black" mask="url(#path-16-outside-6_190_12)"/>
<mask id="path-18-outside-7_190_12" maskUnits="userSpaceOnUse" x="177.111" y="635.734" width="37" height="46" fill="black">
<rect fill="white" x="177.111" y="635.734" width="37" height="46"/>
<path d="M199.811 643.221C196.179 643.221 193.934 645.862 193.472 648.107C193.373 648.536 193.34 648.966 193.34 649.362C193.34 652.168 195.387 653.852 198.061 653.852C201.23 653.852 203.211 652.465 204.763 651.012C204.829 650.187 204.895 649.395 204.895 648.668C204.895 645.169 203.805 643.221 199.811 643.221ZM185.021 648.206C186.341 641.604 191.822 636.751 200.801 636.751C209.781 636.751 212.917 642.132 212.917 649.923C212.917 652.531 212.554 655.403 211.96 658.473C209.649 670.391 205.555 679.8 192.614 679.8C184.592 679.8 181.917 677.555 178.748 674.089L185.483 669.038C187.068 671.91 188.817 672.966 192.581 672.966C197.83 672.966 201.792 668.08 203.211 660.553C203.31 660.025 203.475 658.903 203.475 658.903C202.452 659.563 200.471 660.487 196.212 660.487C189.907 660.487 184.79 656.625 184.79 650.517C184.79 649.791 184.856 648.999 185.021 648.206Z"/>
</mask>
<path d="M199.811 643.221C196.179 643.221 193.934 645.862 193.472 648.107C193.373 648.536 193.34 648.966 193.34 649.362C193.34 652.168 195.387 653.852 198.061 653.852C201.23 653.852 203.211 652.465 204.763 651.012C204.829 650.187 204.895 649.395 204.895 648.668C204.895 645.169 203.805 643.221 199.811 643.221ZM185.021 648.206C186.341 641.604 191.822 636.751 200.801 636.751C209.781 636.751 212.917 642.132 212.917 649.923C212.917 652.531 212.554 655.403 211.96 658.473C209.649 670.391 205.555 679.8 192.614 679.8C184.592 679.8 181.917 677.555 178.748 674.089L185.483 669.038C187.068 671.91 188.817 672.966 192.581 672.966C197.83 672.966 201.792 668.08 203.211 660.553C203.31 660.025 203.475 658.903 203.475 658.903C202.452 659.563 200.471 660.487 196.212 660.487C189.907 660.487 184.79 656.625 184.79 650.517C184.79 649.791 184.856 648.999 185.021 648.206Z" fill="#691919"/>
<path d="M193.472 648.107L194.447 648.332L194.449 648.32L194.452 648.309L193.472 648.107ZM204.763 651.012L205.446 651.742L205.729 651.478L205.76 651.092L204.763 651.012ZM185.021 648.206L186 648.41L186.001 648.402L185.021 648.206ZM211.96 658.473L212.941 658.664L212.942 658.663L211.96 658.473ZM178.748 674.089L178.148 673.289L177.266 673.95L178.01 674.764L178.748 674.089ZM185.483 669.038L186.359 668.555L185.803 667.548L184.883 668.238L185.483 669.038ZM203.211 660.553L204.194 660.739L204.194 660.738L203.211 660.553ZM203.475 658.903L204.465 659.048L204.785 656.867L202.933 658.062L203.475 658.903ZM199.811 643.221V642.221C195.644 642.221 193.038 645.258 192.493 647.906L193.472 648.107L194.452 648.309C194.831 646.467 196.714 644.221 199.811 644.221V643.221ZM193.472 648.107L192.498 647.882C192.377 648.404 192.34 648.912 192.34 649.362H193.34H194.34C194.34 649.019 194.369 648.668 194.447 648.332L193.472 648.107ZM193.34 649.362H192.34C192.34 651.023 192.954 652.422 194.024 653.398C195.083 654.364 196.517 654.852 198.061 654.852V653.852V652.852C196.931 652.852 196.004 652.497 195.372 651.92C194.75 651.353 194.34 650.507 194.34 649.362H193.34ZM198.061 653.852V654.852C201.583 654.852 203.797 653.286 205.446 651.742L204.763 651.012L204.079 650.282C202.625 651.644 200.877 652.852 198.061 652.852V653.852ZM204.763 651.012L205.76 651.092C205.825 650.28 205.895 649.443 205.895 648.668H204.895H203.895C203.895 649.346 203.833 650.094 203.766 650.933L204.763 651.012ZM204.895 648.668H205.895C205.895 646.861 205.624 645.196 204.618 643.992C203.577 642.744 201.952 642.221 199.811 642.221V643.221V644.221C201.664 644.221 202.581 644.672 203.083 645.273C203.621 645.918 203.895 646.976 203.895 648.668H204.895ZM185.021 648.206L186.001 648.402C186.617 645.322 188.195 642.677 190.647 640.796C193.102 638.913 196.493 637.751 200.801 637.751V636.751V635.751C196.129 635.751 192.29 637.015 189.43 639.209C186.568 641.405 184.745 644.487 184.04 648.01L185.021 648.206ZM200.801 636.751V637.751C205.084 637.751 207.789 639.025 209.454 641.05C211.15 643.114 211.917 646.135 211.917 649.923H212.917H213.917C213.917 645.92 213.116 642.355 210.999 639.78C208.851 637.167 205.498 635.751 200.801 635.751V636.751ZM212.917 649.923H211.917C211.917 652.444 211.566 655.247 210.978 658.283L211.96 658.473L212.942 658.663C213.542 655.559 213.917 652.618 213.917 649.923H212.917ZM211.96 658.473L210.978 658.283C209.828 664.216 208.26 669.352 205.478 673C202.75 676.576 198.795 678.8 192.614 678.8V679.8V680.8C199.374 680.8 203.936 678.319 207.068 674.212C210.146 670.176 211.781 664.649 212.941 658.664L211.96 658.473ZM192.614 679.8V678.8C188.692 678.8 186.181 678.251 184.295 677.343C182.408 676.436 181.054 675.129 179.486 673.414L178.748 674.089L178.01 674.764C179.612 676.515 181.179 678.064 183.428 679.146C185.676 680.227 188.514 680.8 192.614 680.8V679.8ZM178.748 674.089L179.348 674.889L186.083 669.838L185.483 669.038L184.883 668.238L178.148 673.289L178.748 674.089ZM185.483 669.038L184.607 669.521C185.448 671.045 186.395 672.202 187.724 672.95C189.042 673.693 190.617 673.966 192.581 673.966V672.966V671.966C190.781 671.966 189.599 671.711 188.706 671.208C187.822 670.71 187.102 669.903 186.359 668.555L185.483 669.038ZM192.581 672.966V673.966C198.584 673.966 202.748 668.405 204.194 660.739L203.211 660.553L202.229 660.368C200.835 667.756 197.076 671.966 192.581 671.966V672.966ZM203.211 660.553L204.194 660.738C204.247 660.456 204.315 660.028 204.369 659.683C204.396 659.508 204.42 659.349 204.437 659.235C204.445 659.177 204.452 659.131 204.457 659.099C204.46 659.083 204.461 659.07 204.463 659.061C204.463 659.057 204.464 659.054 204.464 659.052C204.464 659.05 204.464 659.05 204.465 659.049C204.465 659.049 204.465 659.049 204.465 659.048C204.465 659.048 204.465 659.048 204.465 659.048C204.465 659.048 204.465 659.048 204.465 659.048C204.465 659.048 204.465 659.048 203.475 658.903C202.486 658.757 202.486 658.757 202.486 658.757C202.486 658.757 202.486 658.757 202.486 658.757C202.486 658.757 202.486 658.757 202.486 658.757C202.486 658.757 202.486 658.758 202.486 658.758C202.486 658.758 202.486 658.759 202.485 658.76C202.485 658.762 202.485 658.765 202.484 658.769C202.483 658.777 202.481 658.789 202.479 658.805C202.474 658.836 202.467 658.882 202.459 658.938C202.442 659.05 202.419 659.205 202.392 659.377C202.338 659.724 202.275 660.123 202.228 660.369L203.211 660.553ZM203.475 658.903L202.933 658.062C202.095 658.603 200.31 659.487 196.212 659.487V660.487V661.487C200.632 661.487 202.808 660.523 204.017 659.743L203.475 658.903ZM196.212 660.487V659.487C190.284 659.487 185.79 655.912 185.79 650.517H184.79H183.79C183.79 657.337 189.529 661.487 196.212 661.487V660.487ZM184.79 650.517H185.79C185.79 649.849 185.851 649.126 186 648.41L185.021 648.206L184.042 648.002C183.861 648.871 183.79 649.732 183.79 650.517H184.79Z" fill="black" mask="url(#path-18-outside-7_190_12)"/>
<mask id="path-20-outside-8_190_12" maskUnits="userSpaceOnUse" x="247.535" y="885.535" width="35" height="46" fill="black">
<rect fill="white" x="247.535" y="885.535" width="35" height="46"/>
<path d="M263.018 922.833C265.296 922.833 269.72 921.282 270.579 916.726C270.645 916.363 270.678 915.999 270.678 915.603C270.678 913.16 269.225 910.387 265.792 908.67C261.038 910.651 258.397 914.052 257.835 916.726C257.736 917.188 257.703 917.617 257.703 918.013C257.703 921.579 260.972 922.833 263.018 922.833ZM267.112 901.804C270.81 901.044 272.493 898.37 272.79 896.852C272.857 896.522 272.89 896.224 272.89 895.96C272.89 893.649 270.678 893.517 268.73 893.517C266.551 893.517 263.91 893.715 263.349 896.852C263.316 897.05 263.283 897.281 263.283 897.545C263.283 899.064 264.174 901.143 267.112 901.804ZM270.017 886.849C277.544 886.849 281.242 889.886 281.242 894.772C281.242 895.465 281.176 896.224 281.011 897.017C280.318 900.417 276.785 904.379 273.682 905.237C276.818 906.69 279.294 909.859 279.294 914.415C279.294 915.24 279.195 916.132 279.03 917.056C277.577 924.88 270.215 929.832 261.665 929.832C254.072 929.832 248.988 925.937 248.988 919.598C248.988 918.773 249.087 917.947 249.252 917.056C250.374 911.047 254.864 906.954 259.222 905.237C256.812 904.478 254.93 901.374 254.93 898.337C254.93 897.875 254.963 897.446 255.062 897.017C256.383 890.843 261.401 886.849 270.017 886.849Z"/>
</mask>
<path d="M263.018 922.833C265.296 922.833 269.72 921.282 270.579 916.726C270.645 916.363 270.678 915.999 270.678 915.603C270.678 913.16 269.225 910.387 265.792 908.67C261.038 910.651 258.397 914.052 257.835 916.726C257.736 917.188 257.703 917.617 257.703 918.013C257.703 921.579 260.972 922.833 263.018 922.833ZM267.112 901.804C270.81 901.044 272.493 898.37 272.79 896.852C272.857 896.522 272.89 896.224 272.89 895.96C272.89 893.649 270.678 893.517 268.73 893.517C266.551 893.517 263.91 893.715 263.349 896.852C263.316 897.05 263.283 897.281 263.283 897.545C263.283 899.064 264.174 901.143 267.112 901.804ZM270.017 886.849C277.544 886.849 281.242 889.886 281.242 894.772C281.242 895.465 281.176 896.224 281.011 897.017C280.318 900.417 276.785 904.379 273.682 905.237C276.818 906.69 279.294 909.859 279.294 914.415C279.294 915.24 279.195 916.132 279.03 917.056C277.577 924.88 270.215 929.832 261.665 929.832C254.072 929.832 248.988 925.937 248.988 919.598C248.988 918.773 249.087 917.947 249.252 917.056C250.374 911.047 254.864 906.954 259.222 905.237C256.812 904.478 254.93 901.374 254.93 898.337C254.93 897.875 254.963 897.446 255.062 897.017C256.383 890.843 261.401 886.849 270.017 886.849Z" fill="#691919"/>
<path d="M270.579 916.726L271.561 916.911L271.562 916.905L270.579 916.726ZM265.792 908.67L266.239 907.776L265.829 907.571L265.407 907.747L265.792 908.67ZM257.835 916.726L258.813 916.935L258.814 916.931L257.835 916.726ZM267.112 901.804L266.893 902.779L267.103 902.826L267.313 902.783L267.112 901.804ZM272.79 896.852L271.81 896.656L271.809 896.66L272.79 896.852ZM263.349 896.852L262.364 896.675L262.362 896.687L263.349 896.852ZM281.011 897.017L280.032 896.813L280.031 896.817L281.011 897.017ZM273.682 905.237L273.415 904.273L270.79 905L273.262 906.144L273.682 905.237ZM279.03 917.056L280.013 917.238L280.014 917.232L279.03 917.056ZM249.252 917.056L248.269 916.872L248.269 916.874L249.252 917.056ZM259.222 905.237L259.588 906.167L262.217 905.132L259.522 904.283L259.222 905.237ZM255.062 897.017L256.037 897.242L256.038 897.234L256.04 897.226L255.062 897.017ZM263.018 922.833V923.833C264.345 923.833 266.208 923.393 267.869 922.331C269.556 921.252 271.072 919.507 271.561 916.911L270.579 916.726L269.596 916.541C269.227 918.501 268.101 919.809 266.792 920.645C265.458 921.498 263.97 921.833 263.018 921.833V922.833ZM270.579 916.726L271.562 916.905C271.64 916.481 271.678 916.058 271.678 915.603H270.678H269.678C269.678 915.941 269.65 916.244 269.595 916.547L270.579 916.726ZM270.678 915.603H271.678C271.678 912.743 269.975 909.644 266.239 907.776L265.792 908.67L265.344 909.565C268.475 911.13 269.678 913.577 269.678 915.603H270.678ZM265.792 908.67L265.407 907.747C260.429 909.821 257.502 913.447 256.857 916.52L257.835 916.726L258.814 916.931C259.291 914.656 261.646 911.481 266.176 909.594L265.792 908.67ZM257.835 916.726L256.858 916.516C256.741 917.059 256.703 917.56 256.703 918.013H257.703H258.703C258.703 917.674 258.731 917.316 258.813 916.935L257.835 916.726ZM257.703 918.013H256.703C256.703 920.154 257.706 921.65 259.016 922.577C260.284 923.474 261.823 923.833 263.018 923.833V922.833V921.833C262.167 921.833 261.049 921.565 260.171 920.944C259.334 920.352 258.703 919.438 258.703 918.013H257.703ZM267.112 901.804L267.313 902.783C271.426 901.939 273.401 898.938 273.772 897.044L272.79 896.852L271.809 896.66C271.585 897.803 270.193 900.15 266.911 900.824L267.112 901.804ZM272.79 896.852L273.771 897.048C273.847 896.67 273.89 896.305 273.89 895.96H272.89H271.89C271.89 896.143 271.866 896.373 271.81 896.656L272.79 896.852ZM272.89 895.96H273.89C273.89 895.218 273.709 894.564 273.331 894.027C272.955 893.495 272.442 893.158 271.915 892.945C270.911 892.539 269.679 892.517 268.73 892.517V893.517V894.517C269.729 894.517 270.576 894.561 271.165 894.799C271.435 894.908 271.596 895.038 271.696 895.18C271.793 895.317 271.89 895.547 271.89 895.96H272.89ZM268.73 893.517V892.517C267.646 892.517 266.246 892.558 265.03 893.093C263.72 893.67 262.703 894.782 262.364 896.675L263.349 896.852L264.333 897.028C264.555 895.785 265.139 895.23 265.836 894.924C266.625 894.576 267.635 894.517 268.73 894.517V893.517ZM263.349 896.852L262.362 896.687C262.326 896.903 262.283 897.198 262.283 897.545H263.283H264.283C264.283 897.364 264.305 897.196 264.335 897.016L263.349 896.852ZM263.283 897.545H262.283C262.283 898.49 262.558 899.606 263.294 900.593C264.039 901.595 265.213 902.402 266.893 902.779L267.112 901.804L267.331 900.828C266.073 900.545 265.332 899.982 264.898 899.399C264.452 898.801 264.283 898.118 264.283 897.545H263.283ZM270.017 886.849V887.849C273.668 887.849 276.233 888.589 277.86 889.784C279.442 890.946 280.242 892.612 280.242 894.772H281.242H282.242C282.242 892.046 281.193 889.75 279.044 888.172C276.941 886.627 273.893 885.849 270.017 885.849V886.849ZM281.242 894.772H280.242C280.242 895.402 280.182 896.093 280.032 896.813L281.011 897.017L281.99 897.221C282.17 896.356 282.242 895.528 282.242 894.772H281.242ZM281.011 897.017L280.031 896.817C279.73 898.293 278.784 899.979 277.504 901.415C276.219 902.856 274.715 903.914 273.415 904.273L273.682 905.237L273.948 906.201C275.752 905.702 277.566 904.35 278.996 902.746C280.432 901.136 281.598 899.14 281.991 897.216L281.011 897.017ZM273.682 905.237L273.262 906.144C276.061 907.441 278.294 910.266 278.294 914.415H279.294H280.294C280.294 909.451 277.575 905.938 274.102 904.33L273.682 905.237ZM279.294 914.415H278.294C278.294 915.164 278.204 915.994 278.046 916.88L279.03 917.056L280.014 917.232C280.186 916.269 280.294 915.316 280.294 914.415H279.294ZM279.03 917.056L278.047 916.873C276.704 924.107 269.863 928.832 261.665 928.832V929.832V930.832C270.568 930.832 278.451 925.653 280.013 917.238L279.03 917.056ZM261.665 929.832V928.832C258.028 928.832 255.099 927.899 253.101 926.309C251.128 924.739 249.988 922.473 249.988 919.598H248.988H247.988C247.988 923.062 249.39 925.912 251.856 927.875C254.299 929.818 257.708 930.832 261.665 930.832V929.832ZM248.988 919.598H249.988C249.988 918.853 250.077 918.092 250.235 917.238L249.252 917.056L248.269 916.874C248.097 917.803 247.988 918.692 247.988 919.598H248.988ZM249.252 917.056L250.235 917.24C251.281 911.638 255.481 907.786 259.588 906.167L259.222 905.237L258.855 904.307C254.247 906.122 249.467 910.457 248.269 916.872L249.252 917.056ZM259.222 905.237L259.522 904.283C258.611 903.996 257.71 903.228 257.023 902.116C256.343 901.013 255.93 899.658 255.93 898.337H254.93H253.93C253.93 900.053 254.459 901.769 255.321 903.167C256.178 904.555 257.423 905.719 258.921 906.191L259.222 905.237ZM254.93 898.337H255.93C255.93 897.923 255.96 897.574 256.037 897.242L255.062 897.017L254.088 896.792C253.966 897.318 253.93 897.828 253.93 898.337H254.93ZM255.062 897.017L256.04 897.226C256.653 894.362 258.108 892.046 260.382 890.433C262.668 888.812 265.859 887.849 270.017 887.849V886.849V885.849C265.559 885.849 261.932 886.882 259.225 888.802C256.506 890.73 254.792 893.498 254.084 896.808L255.062 897.017Z" fill="black" mask="url(#path-20-outside-8_190_12)"/>
<mask id="path-22-outside-9_190_12" maskUnits="userSpaceOnUse" x="1084.54" y="884.535" width="35" height="46" fill="black">
<rect fill="white" x="1084.54" y="884.535" width="35" height="46"/>
<path d="M1104.4 909.628C1105.09 906.062 1105.79 902.464 1106.48 898.898C1103.24 903.157 1099.22 906.822 1095.95 909.694C1098.75 909.661 1101.59 909.661 1104.4 909.628ZM1086.21 911.113C1087.63 909.595 1104.86 895.201 1109.19 886.419C1111.93 886.386 1114.67 886.386 1117.41 886.353C1115.89 894.112 1114.4 901.87 1112.88 909.628H1117.08C1116.61 911.939 1116.19 914.25 1115.72 916.561H1111.53C1110.71 920.885 1109.85 925.21 1109.02 929.535H1100.54C1101.36 925.243 1102.22 920.951 1103.05 916.66C1098.06 916.693 1093.08 916.693 1088.09 916.726C1087.46 914.844 1086.84 912.995 1086.21 911.113Z"/>
</mask>
<path d="M1104.4 909.628C1105.09 906.062 1105.79 902.464 1106.48 898.898C1103.24 903.157 1099.22 906.822 1095.95 909.694C1098.75 909.661 1101.59 909.661 1104.4 909.628ZM1086.21 911.113C1087.63 909.595 1104.86 895.201 1109.19 886.419C1111.93 886.386 1114.67 886.386 1117.41 886.353C1115.89 894.112 1114.4 901.87 1112.88 909.628H1117.08C1116.61 911.939 1116.19 914.25 1115.72 916.561H1111.53C1110.71 920.885 1109.85 925.21 1109.02 929.535H1100.54C1101.36 925.243 1102.22 920.951 1103.05 916.66C1098.06 916.693 1093.08 916.693 1088.09 916.726C1087.46 914.844 1086.84 912.995 1086.21 911.113Z" fill="#691919"/>
<path d="M1104.4 909.628L1104.41 910.628L1105.23 910.618L1105.38 909.819L1104.4 909.628ZM1106.48 898.898L1107.46 899.089L1105.68 898.294L1106.48 898.898ZM1095.95 909.694L1095.29 908.943L1093.26 910.726L1095.96 910.694L1095.95 909.694ZM1086.21 911.113L1085.48 910.431L1085.07 910.865L1085.26 911.43L1086.21 911.113ZM1109.19 886.419L1109.17 885.419L1108.56 885.427L1108.29 885.978L1109.19 886.419ZM1117.41 886.353L1118.39 886.545L1118.62 885.339L1117.39 885.353L1117.41 886.353ZM1112.88 909.628L1111.9 909.436L1111.67 910.628H1112.88V909.628ZM1117.08 909.628L1118.06 909.824L1118.3 908.628H1117.08V909.628ZM1115.72 916.561V917.561H1116.54L1116.7 916.757L1115.72 916.561ZM1111.53 916.561V915.561H1110.7L1110.55 916.373L1111.53 916.561ZM1109.02 929.535V930.535H1109.85L1110 929.722L1109.02 929.535ZM1100.54 929.535L1099.56 929.346L1099.33 930.535H1100.54V929.535ZM1103.05 916.66L1104.03 916.849L1104.26 915.652L1103.04 915.66L1103.05 916.66ZM1088.09 916.726L1087.14 917.042L1087.37 917.731L1088.1 917.726L1088.09 916.726ZM1104.4 909.628L1105.38 909.819C1105.73 908.036 1106.07 906.244 1106.42 904.453C1106.77 902.662 1107.11 900.872 1107.46 899.089L1106.48 898.898L1105.5 898.708C1105.15 900.491 1104.8 902.282 1104.46 904.073C1104.11 905.864 1103.76 907.655 1103.42 909.437L1104.4 909.628ZM1106.48 898.898L1105.68 898.294C1102.51 902.466 1098.55 906.073 1095.29 908.943L1095.95 909.694L1096.61 910.445C1099.88 907.57 1103.97 903.849 1107.28 899.503L1106.48 898.898ZM1095.95 909.694L1095.96 910.694C1097.36 910.677 1098.77 910.669 1100.18 910.661C1101.59 910.653 1103 910.644 1104.41 910.628L1104.4 909.628L1104.39 908.628C1102.99 908.644 1101.58 908.653 1100.17 908.661C1098.76 908.669 1097.34 908.677 1095.94 908.694L1095.95 909.694ZM1086.21 911.113L1086.94 911.796C1087.26 911.458 1088.54 910.329 1090.46 908.591C1092.35 906.888 1094.78 904.662 1097.31 902.207C1099.83 899.753 1102.46 897.06 1104.73 894.422C1106.99 891.794 1108.95 889.172 1110.08 886.861L1109.19 886.419L1108.29 885.978C1107.27 888.058 1105.44 890.528 1103.21 893.116C1100.99 895.694 1098.41 898.341 1095.91 900.773C1093.41 903.204 1091 905.41 1089.12 907.107C1087.28 908.77 1085.87 910.01 1085.48 910.431L1086.21 911.113ZM1109.19 886.419L1109.2 887.419C1110.57 887.403 1111.93 887.395 1113.3 887.386C1114.67 887.378 1116.05 887.37 1117.42 887.353L1117.41 886.353L1117.39 885.353C1116.03 885.37 1114.66 885.378 1113.29 885.386C1111.92 885.395 1110.55 885.403 1109.17 885.419L1109.19 886.419ZM1117.41 886.353L1116.43 886.161C1115.67 890.042 1114.91 893.922 1114.16 897.801C1113.41 901.68 1112.66 905.558 1111.9 909.436L1112.88 909.628L1113.87 909.82C1114.63 905.94 1115.38 902.06 1116.13 898.181C1116.88 894.301 1117.63 890.423 1118.39 886.545L1117.41 886.353ZM1112.88 909.628V910.628H1117.08V909.628V908.628H1112.88V909.628ZM1117.08 909.628L1116.1 909.432C1115.86 910.591 1115.64 911.75 1115.42 912.905C1115.2 914.061 1114.97 915.213 1114.74 916.365L1115.72 916.561L1116.7 916.757C1116.94 915.597 1117.16 914.439 1117.38 913.284C1117.6 912.128 1117.83 910.976 1118.06 909.824L1117.08 909.628ZM1115.72 916.561V915.561H1111.53V916.561V917.561H1115.72V916.561ZM1111.53 916.561L1110.55 916.373C1110.14 918.534 1109.72 920.694 1109.29 922.857C1108.87 925.019 1108.45 927.183 1108.04 929.348L1109.02 929.535L1110 929.722C1110.42 927.562 1110.84 925.402 1111.26 923.239C1111.68 921.077 1112.1 918.913 1112.51 916.748L1111.53 916.561ZM1109.02 929.535V928.535H1100.54V929.535V930.535H1109.02V929.535ZM1100.54 929.535L1101.52 929.724C1101.93 927.58 1102.35 925.436 1102.77 923.29C1103.19 921.144 1103.62 918.997 1104.03 916.849L1103.05 916.66L1102.06 916.471C1101.65 918.615 1101.23 920.759 1100.81 922.905C1100.39 925.05 1099.97 927.198 1099.56 929.346L1100.54 929.535ZM1103.05 916.66L1103.04 915.66C1100.55 915.676 1098.06 915.685 1095.57 915.693C1093.07 915.701 1090.58 915.709 1088.08 915.726L1088.09 916.726L1088.1 917.726C1090.59 917.709 1093.08 917.701 1095.57 917.693C1098.06 917.684 1100.56 917.676 1103.05 917.66L1103.05 916.66ZM1088.09 916.726L1089.04 916.41C1088.73 915.467 1088.41 914.533 1088.1 913.601C1087.78 912.668 1087.47 911.737 1087.16 910.797L1086.21 911.113L1085.26 911.43C1085.57 912.372 1085.89 913.306 1086.2 914.238C1086.52 915.171 1086.83 916.103 1087.14 917.042L1088.09 916.726Z" fill="black" mask="url(#path-22-outside-9_190_12)"/>
<mask id="path-24-outside-10_190_12" maskUnits="userSpaceOnUse" x="429.535" y="1035.54" width="37" height="45" fill="black">
<rect fill="white" x="429.535" y="1035.54" width="37" height="45"/>
<path d="M437.331 1036.88C440.104 1036.88 443.636 1037.08 446.178 1037.08C451.163 1037.08 456.643 1036.85 461.364 1036.85H462.718C463.477 1038.63 464.237 1040.45 464.996 1042.23C452.154 1057.68 445.287 1064.55 442.382 1079.54H433.765C436.373 1066.1 443.405 1057.28 455.521 1044.11C452.616 1044.21 449.215 1044.21 446.211 1044.21C444.131 1044.21 443.306 1044.21 441.259 1044.11C441.193 1044.14 440.269 1046.32 439.906 1047.54C437.265 1046.85 434.59 1046.13 431.949 1045.43C432.94 1043.48 435.845 1039.06 437.331 1036.88Z"/>
</mask>
<path d="M437.331 1036.88C440.104 1036.88 443.636 1037.08 446.178 1037.08C451.163 1037.08 456.643 1036.85 461.364 1036.85H462.718C463.477 1038.63 464.237 1040.45 464.996 1042.23C452.154 1057.68 445.287 1064.55 442.382 1079.54H433.765C436.373 1066.1 443.405 1057.28 455.521 1044.11C452.616 1044.21 449.215 1044.21 446.211 1044.21C444.131 1044.21 443.306 1044.21 441.259 1044.11C441.193 1044.14 440.269 1046.32 439.906 1047.54C437.265 1046.85 434.59 1046.13 431.949 1045.43C432.94 1043.48 435.845 1039.06 437.331 1036.88Z" fill="#691919"/>
<path d="M437.331 1036.88V1035.88H436.802L436.504 1036.32L437.331 1036.88ZM462.718 1036.85L463.638 1036.46L463.379 1035.85H462.718V1036.85ZM464.996 1042.23L465.765 1042.87L466.155 1042.4L465.916 1041.84L464.996 1042.23ZM442.382 1079.54V1080.54H443.206L443.363 1079.73L442.382 1079.54ZM433.765 1079.54L432.783 1079.34L432.552 1080.54H433.765V1079.54ZM455.521 1044.11L456.257 1044.79L457.874 1043.03L455.487 1043.11L455.521 1044.11ZM441.259 1044.11L441.308 1043.11L441.046 1043.1L440.812 1043.22L441.259 1044.11ZM439.906 1047.54L439.652 1048.51L440.588 1048.76L440.864 1047.83L439.906 1047.54ZM431.949 1045.43L431.058 1044.98L430.496 1046.08L431.695 1046.4L431.949 1045.43ZM437.331 1036.88V1037.88C438.698 1037.88 440.258 1037.93 441.809 1037.98C443.351 1038.03 444.888 1038.08 446.178 1038.08V1037.08V1036.08C444.927 1036.08 443.426 1036.03 441.873 1035.98C440.329 1035.93 438.736 1035.88 437.331 1035.88V1036.88ZM446.178 1037.08V1038.08C448.684 1038.08 451.311 1038.02 453.893 1037.96C456.479 1037.91 459.017 1037.85 461.364 1037.85V1036.85V1035.85C458.991 1035.85 456.428 1035.91 453.848 1035.96C451.263 1036.02 448.658 1036.08 446.178 1036.08V1037.08ZM461.364 1036.85V1037.85H462.718V1036.85V1035.85H461.364V1036.85ZM462.718 1036.85L461.798 1037.24C462.177 1038.13 462.556 1039.03 462.936 1039.93C463.315 1040.83 463.695 1041.73 464.076 1042.62L464.996 1042.23L465.916 1041.84C465.537 1040.95 465.158 1040.05 464.778 1039.15C464.399 1038.25 464.018 1037.35 463.638 1036.46L462.718 1036.85ZM464.996 1042.23L464.227 1041.59C451.442 1056.97 444.364 1064.05 441.4 1079.34L442.382 1079.54L443.363 1079.73C446.209 1065.04 452.866 1058.39 465.765 1042.87L464.996 1042.23ZM442.382 1079.54V1078.54H433.765V1079.54V1080.54H442.382V1079.54ZM433.765 1079.54L434.747 1079.73C437.296 1066.59 444.144 1057.96 456.257 1044.79L455.521 1044.11L454.785 1043.43C442.666 1056.61 435.45 1065.61 432.783 1079.34L433.765 1079.54ZM455.521 1044.11L455.487 1043.11C452.602 1043.21 449.22 1043.21 446.211 1043.21V1044.21V1045.21C449.211 1045.21 452.63 1045.21 455.555 1045.11L455.521 1044.11ZM446.211 1044.21V1043.21C444.137 1043.21 443.33 1043.21 441.308 1043.11L441.259 1044.11L441.211 1045.11C443.282 1045.21 444.126 1045.21 446.211 1045.21V1044.21ZM441.259 1044.11L440.812 1043.22C440.648 1043.3 440.549 1043.41 440.524 1043.43C440.483 1043.48 440.455 1043.51 440.439 1043.54C440.408 1043.58 440.384 1043.62 440.372 1043.64C440.345 1043.69 440.321 1043.73 440.301 1043.77C440.26 1043.86 440.211 1043.96 440.158 1044.08C440.05 1044.32 439.913 1044.65 439.767 1045.01C439.48 1045.72 439.143 1046.6 438.947 1047.26L439.906 1047.54L440.864 1047.83C441.032 1047.27 441.339 1046.45 441.62 1045.76C441.76 1045.42 441.888 1045.11 441.984 1044.9C442.033 1044.79 442.069 1044.71 442.093 1044.66C442.106 1044.64 442.108 1044.63 442.102 1044.64C442.1 1044.65 442.086 1044.67 442.062 1044.71C442.05 1044.72 442.025 1044.76 441.987 1044.8C441.965 1044.82 441.868 1044.93 441.706 1045.01L441.259 1044.11ZM439.906 1047.54L440.16 1046.58C438.841 1046.23 437.515 1045.88 436.186 1045.52C434.857 1045.17 433.526 1044.81 432.203 1044.46L431.949 1045.43L431.695 1046.4C433.014 1046.75 434.34 1047.1 435.669 1047.45C436.998 1047.81 438.329 1048.16 439.652 1048.51L439.906 1047.54ZM431.949 1045.43L432.841 1045.89C433.797 1044.01 436.663 1039.64 438.157 1037.44L437.331 1036.88L436.504 1036.32C435.027 1038.48 432.083 1042.96 431.058 1044.98L431.949 1045.43Z" fill="black" mask="url(#path-24-outside-10_190_12)"/>
<mask id="path-26-outside-11_190_12" maskUnits="userSpaceOnUse" x="901.535" y="1035.54" width="35" height="46" fill="black">
<rect fill="white" x="901.535" y="1035.54" width="35" height="46"/>
<path d="M919.164 1056.13C915.203 1056.13 912.793 1059.13 912.199 1059.79C910.284 1058.9 908.369 1058.04 906.454 1057.15C908.402 1050.45 910.383 1043.72 912.331 1037.01C919.759 1037.05 927.22 1037.05 934.648 1037.08C934.219 1039.26 933.789 1041.4 933.36 1043.58H918.867C918.273 1045.76 917.646 1047.97 917.051 1050.15C917.051 1050.15 918.438 1049.82 921.013 1049.82C922.895 1049.82 925.404 1049.95 927.451 1051.04C930.158 1052.63 932.898 1055.01 932.898 1060.52C932.898 1061.74 932.733 1063.16 932.436 1064.74C930.422 1075.24 922.565 1079.54 914.642 1079.6H914.575C908.369 1079.6 904.473 1077.09 902.856 1071.81C905.596 1070.59 908.369 1069.4 911.109 1068.18C911.538 1070.75 913.222 1072.6 915.929 1072.6C918.9 1072.6 922.664 1070.49 923.786 1064.68C923.951 1063.82 924.017 1063 924.017 1062.24C924.017 1058.41 921.971 1056.13 919.164 1056.13Z"/>
</mask>
<path d="M919.164 1056.13C915.203 1056.13 912.793 1059.13 912.199 1059.79C910.284 1058.9 908.369 1058.04 906.454 1057.15C908.402 1050.45 910.383 1043.72 912.331 1037.01C919.759 1037.05 927.22 1037.05 934.648 1037.08C934.219 1039.26 933.789 1041.4 933.36 1043.58H918.867C918.273 1045.76 917.646 1047.97 917.051 1050.15C917.051 1050.15 918.438 1049.82 921.013 1049.82C922.895 1049.82 925.404 1049.95 927.451 1051.04C930.158 1052.63 932.898 1055.01 932.898 1060.52C932.898 1061.74 932.733 1063.16 932.436 1064.74C930.422 1075.24 922.565 1079.54 914.642 1079.6H914.575C908.369 1079.6 904.473 1077.09 902.856 1071.81C905.596 1070.59 908.369 1069.4 911.109 1068.18C911.538 1070.75 913.222 1072.6 915.929 1072.6C918.9 1072.6 922.664 1070.49 923.786 1064.68C923.951 1063.82 924.017 1063 924.017 1062.24C924.017 1058.41 921.971 1056.13 919.164 1056.13Z" fill="#691919"/>
<path d="M912.199 1059.79L911.776 1060.7L912.447 1061.01L912.942 1060.46L912.199 1059.79ZM906.454 1057.15L905.494 1056.87L905.255 1057.7L906.032 1058.06L906.454 1057.15ZM912.331 1037.01L912.335 1036.01L911.581 1036.01L911.37 1036.73L912.331 1037.01ZM934.648 1037.08L935.629 1037.27L935.863 1036.09L934.652 1036.08L934.648 1037.08ZM933.36 1043.58V1044.58H934.182L934.341 1043.78L933.36 1043.58ZM918.867 1043.58V1042.58H918.103L917.902 1043.32L918.867 1043.58ZM917.051 1050.15L916.087 1049.89L915.643 1051.52L917.283 1051.13L917.051 1050.15ZM927.451 1051.04L927.956 1050.18L927.938 1050.17L927.921 1050.16L927.451 1051.04ZM932.436 1064.74L933.418 1064.93L933.419 1064.93L932.436 1064.74ZM914.642 1079.6V1080.6L914.65 1080.6L914.642 1079.6ZM902.856 1071.81L902.449 1070.9L901.64 1071.26L901.9 1072.1L902.856 1071.81ZM911.109 1068.18L912.095 1068.01L911.883 1066.74L910.702 1067.27L911.109 1068.18ZM923.786 1064.68L924.768 1064.87L924.768 1064.87L923.786 1064.68ZM919.164 1056.13V1055.13C914.695 1055.13 912.002 1058.52 911.455 1059.12L912.199 1059.79L912.942 1060.46C913.583 1059.75 915.71 1057.13 919.164 1057.13V1056.13ZM912.199 1059.79L912.621 1058.89C911.659 1058.44 910.699 1058 909.742 1057.56C908.784 1057.13 907.83 1056.69 906.876 1056.25L906.454 1057.15L906.032 1058.06C906.993 1058.51 907.954 1058.94 908.911 1059.38C909.869 1059.82 910.823 1060.26 911.776 1060.7L912.199 1059.79ZM906.454 1057.15L907.414 1057.43C908.388 1054.08 909.37 1050.72 910.352 1047.36C911.334 1044 912.317 1040.64 913.291 1037.29L912.331 1037.01L911.37 1036.73C910.397 1040.08 909.415 1043.44 908.433 1046.8C907.45 1050.16 906.468 1053.52 905.494 1056.87L906.454 1057.15ZM912.331 1037.01L912.326 1038.01C916.041 1038.03 919.765 1038.04 923.487 1038.05C927.209 1038.05 930.931 1038.06 934.643 1038.08L934.648 1037.08L934.652 1036.08C930.937 1036.06 927.213 1036.05 923.491 1036.05C919.769 1036.04 916.048 1036.03 912.335 1036.01L912.331 1037.01ZM934.648 1037.08L933.667 1036.89C933.452 1037.98 933.238 1039.06 933.023 1040.14C932.808 1041.22 932.594 1042.3 932.379 1043.39L933.36 1043.58L934.341 1043.78C934.556 1042.69 934.77 1041.61 934.985 1040.53C935.199 1039.45 935.414 1038.36 935.629 1037.27L934.648 1037.08ZM933.36 1043.58V1042.58H918.867V1043.58V1044.58H933.36V1043.58ZM918.867 1043.58L917.902 1043.32C917.606 1044.41 917.301 1045.5 916.996 1046.6C916.691 1047.7 916.385 1048.8 916.087 1049.89L917.051 1050.15L918.016 1050.42C918.313 1049.33 918.617 1048.23 918.923 1047.14C919.228 1046.04 919.534 1044.94 919.832 1043.85L918.867 1043.58ZM917.051 1050.15C917.283 1051.13 917.283 1051.13 917.283 1051.13C917.283 1051.13 917.282 1051.13 917.282 1051.13C917.282 1051.13 917.282 1051.13 917.282 1051.13C917.281 1051.13 917.281 1051.13 917.281 1051.13C917.281 1051.13 917.281 1051.13 917.281 1051.13C917.281 1051.13 917.283 1051.13 917.286 1051.13C917.293 1051.12 917.305 1051.12 917.322 1051.12C917.356 1051.11 917.411 1051.1 917.487 1051.09C917.639 1051.06 917.874 1051.02 918.189 1050.98C918.819 1050.9 919.768 1050.82 921.013 1050.82V1049.82V1048.82C919.683 1048.82 918.651 1048.91 917.944 1049C917.591 1049.04 917.318 1049.08 917.129 1049.12C917.035 1049.13 916.962 1049.15 916.91 1049.16C916.885 1049.17 916.864 1049.17 916.849 1049.17C916.841 1049.18 916.835 1049.18 916.83 1049.18C916.828 1049.18 916.826 1049.18 916.824 1049.18C916.823 1049.18 916.822 1049.18 916.822 1049.18C916.821 1049.18 916.821 1049.18 916.821 1049.18C916.821 1049.18 916.82 1049.18 916.82 1049.18C916.82 1049.18 916.82 1049.18 917.051 1050.15ZM921.013 1049.82V1050.82C922.885 1050.82 925.171 1050.96 926.981 1051.93L927.451 1051.04L927.921 1050.16C925.636 1048.95 922.905 1048.82 921.013 1048.82V1049.82ZM927.451 1051.04L926.946 1051.91C928.242 1052.67 929.462 1053.57 930.367 1054.88C931.261 1056.17 931.898 1057.94 931.898 1060.52H932.898H933.898C933.898 1057.58 933.165 1055.41 932.012 1053.74C930.87 1052.09 929.366 1051.01 927.956 1050.18L927.451 1051.04ZM932.898 1060.52H931.898C931.898 1061.66 931.744 1063.01 931.453 1064.56L932.436 1064.74L933.419 1064.93C933.722 1063.31 933.898 1061.82 933.898 1060.52H932.898ZM932.436 1064.74L931.454 1064.56C930.49 1069.58 928.148 1073.05 925.156 1075.28C922.151 1077.53 918.423 1078.57 914.633 1078.6L914.642 1079.6L914.65 1080.6C918.783 1080.57 922.946 1079.43 926.353 1076.89C929.774 1074.33 932.368 1070.41 933.418 1064.93L932.436 1064.74ZM914.642 1079.6V1078.6H914.575V1079.6V1080.6H914.642V1079.6ZM914.575 1079.6V1078.6C911.6 1078.6 909.285 1078 907.545 1076.85C905.82 1075.71 904.565 1073.98 903.812 1071.52L902.856 1071.81L901.9 1072.1C902.764 1074.93 904.266 1077.08 906.444 1078.52C908.608 1079.95 911.344 1080.6 914.575 1080.6V1079.6ZM902.856 1071.81L903.263 1072.72C904.629 1072.11 906.004 1071.51 907.383 1070.91C908.761 1070.31 910.142 1069.7 911.516 1069.09L911.109 1068.18L910.702 1067.27C909.336 1067.87 907.961 1068.48 906.582 1069.08C905.204 1069.68 903.822 1070.28 902.449 1070.9L902.856 1071.81ZM911.109 1068.18L910.123 1068.34C910.365 1069.8 910.973 1071.11 911.971 1072.08C912.981 1073.05 914.332 1073.6 915.929 1073.6V1072.6V1071.6C914.819 1071.6 913.975 1071.23 913.359 1070.64C912.731 1070.03 912.282 1069.14 912.095 1068.01L911.109 1068.18ZM915.929 1072.6V1073.6C919.418 1073.6 923.562 1071.11 924.768 1064.87L923.786 1064.68L922.804 1064.49C921.765 1069.87 918.383 1071.6 915.929 1071.6V1072.6ZM923.786 1064.68L924.768 1064.87C924.946 1063.94 925.017 1063.05 925.017 1062.24H924.017H923.017C923.017 1062.94 922.956 1063.7 922.804 1064.49L923.786 1064.68ZM924.017 1062.24H925.017C925.017 1060.15 924.46 1058.38 923.415 1057.11C922.358 1055.83 920.859 1055.13 919.164 1055.13V1056.13V1057.13C920.276 1057.13 921.203 1057.57 921.871 1058.38C922.552 1059.21 923.017 1060.49 923.017 1062.24H924.017Z" fill="black" mask="url(#path-26-outside-11_190_12)"/>
<mask id="path-28-outside-12_190_12" maskUnits="userSpaceOnUse" x="668.535" y="1111.54" width="35" height="47" fill="black">
<rect fill="white" x="668.535" y="1111.54" width="35" height="47"/>
<path d="M701.968 1120.52C692.592 1120.52 684.768 1124.45 680.873 1132.93C680.873 1132.93 684.108 1130.06 688.532 1130.06C694.573 1130.06 698.304 1134.91 698.304 1141.12C698.304 1151.25 690.314 1156.63 681.104 1156.63C674.93 1156.63 669.879 1151.52 669.879 1144.19C669.879 1126.56 682.985 1113.06 701.605 1113.06C701.737 1115.53 701.836 1118.04 701.968 1120.52ZM678.463 1144.49C678.463 1147.49 679.585 1149.93 682.622 1149.93C685.924 1149.93 689.786 1146.47 689.786 1142.08C689.786 1139.17 688.136 1136.69 686.287 1136.69C681.665 1136.69 678.463 1139.83 678.463 1144.49Z"/>
</mask>
<path d="M701.968 1120.52C692.592 1120.52 684.768 1124.45 680.873 1132.93C680.873 1132.93 684.108 1130.06 688.532 1130.06C694.573 1130.06 698.304 1134.91 698.304 1141.12C698.304 1151.25 690.314 1156.63 681.104 1156.63C674.93 1156.63 669.879 1151.52 669.879 1144.19C669.879 1126.56 682.985 1113.06 701.605 1113.06C701.737 1115.53 701.836 1118.04 701.968 1120.52ZM678.463 1144.49C678.463 1147.49 679.585 1149.93 682.622 1149.93C685.924 1149.93 689.786 1146.47 689.786 1142.08C689.786 1139.17 688.136 1136.69 686.287 1136.69C681.665 1136.69 678.463 1139.83 678.463 1144.49Z" fill="#691919"/>
<path d="M701.968 1120.52V1121.52H703.023L702.967 1120.46L701.968 1120.52ZM680.873 1132.93L679.964 1132.51L681.536 1133.68L680.873 1132.93ZM701.605 1113.06L702.604 1113L702.553 1112.06H701.605V1113.06ZM701.968 1120.52V1119.52C692.294 1119.52 684.058 1123.6 679.964 1132.51L680.873 1132.93L681.781 1133.35C685.479 1125.3 692.891 1121.52 701.968 1121.52V1120.52ZM680.873 1132.93C681.536 1133.68 681.536 1133.68 681.536 1133.68C681.536 1133.68 681.536 1133.68 681.536 1133.68C681.535 1133.68 681.535 1133.68 681.535 1133.68C681.535 1133.68 681.535 1133.68 681.535 1133.68C681.535 1133.68 681.536 1133.68 681.538 1133.68C681.541 1133.67 681.548 1133.67 681.557 1133.66C681.576 1133.64 681.607 1133.62 681.649 1133.58C681.733 1133.52 681.863 1133.42 682.033 1133.29C682.375 1133.05 682.877 1132.71 683.51 1132.38C684.781 1131.71 686.533 1131.06 688.532 1131.06V1130.06V1129.06C686.106 1129.06 684.029 1129.84 682.577 1130.61C681.847 1130.99 681.265 1131.38 680.861 1131.67C680.659 1131.82 680.501 1131.94 680.391 1132.03C680.336 1132.07 680.293 1132.11 680.263 1132.14C680.247 1132.15 680.235 1132.16 680.226 1132.17C680.222 1132.17 680.218 1132.17 680.215 1132.18C680.214 1132.18 680.212 1132.18 680.211 1132.18C680.211 1132.18 680.21 1132.18 680.21 1132.18C680.21 1132.18 680.209 1132.18 680.209 1132.18C680.209 1132.18 680.209 1132.18 680.873 1132.93ZM688.532 1130.06V1131.06C691.262 1131.06 693.425 1132.14 694.921 1133.91C696.43 1135.69 697.304 1138.21 697.304 1141.12H698.304H699.304C699.304 1137.82 698.313 1134.81 696.446 1132.61C694.566 1130.4 691.843 1129.06 688.532 1129.06V1130.06ZM698.304 1141.12H697.304C697.304 1145.9 695.432 1149.49 692.519 1151.91C689.584 1154.34 685.524 1155.63 681.104 1155.63V1156.63V1157.63C685.894 1157.63 690.434 1156.24 693.796 1153.45C697.18 1150.64 699.304 1146.47 699.304 1141.12H698.304ZM681.104 1156.63V1155.63C675.553 1155.63 670.879 1151.04 670.879 1144.19H669.879H668.879C668.879 1152 674.308 1157.63 681.104 1157.63V1156.63ZM669.879 1144.19H670.879C670.879 1127.12 683.534 1114.06 701.605 1114.06V1113.06V1112.06C682.437 1112.06 668.879 1126 668.879 1144.19H669.879ZM701.605 1113.06L700.607 1113.11C700.672 1114.34 700.73 1115.59 700.788 1116.83C700.845 1118.08 700.903 1119.33 700.97 1120.57L701.968 1120.52L702.967 1120.46C702.901 1119.23 702.843 1117.99 702.786 1116.74C702.728 1115.49 702.67 1114.25 702.604 1113L701.605 1113.06ZM678.463 1144.49H677.463C677.463 1146.09 677.757 1147.67 678.573 1148.89C679.429 1150.17 680.789 1150.93 682.622 1150.93V1149.93V1148.93C681.419 1148.93 680.699 1148.47 680.234 1147.78C679.729 1147.02 679.463 1145.89 679.463 1144.49H678.463ZM682.622 1149.93V1150.93C684.605 1150.93 686.64 1149.91 688.159 1148.35C689.69 1146.78 690.786 1144.57 690.786 1142.08H689.786H688.786C688.786 1143.97 687.951 1145.69 686.726 1146.95C685.488 1148.22 683.941 1148.93 682.622 1148.93V1149.93ZM689.786 1142.08H690.786C690.786 1140.44 690.325 1138.9 689.566 1137.75C688.823 1136.61 687.679 1135.69 686.287 1135.69V1136.69V1137.69C686.744 1137.69 687.349 1138.01 687.893 1138.84C688.422 1139.65 688.786 1140.8 688.786 1142.08H689.786ZM686.287 1136.69V1135.69C683.745 1135.69 681.525 1136.56 679.938 1138.13C678.349 1139.71 677.463 1141.92 677.463 1144.49H678.463H679.463C679.463 1142.39 680.177 1140.71 681.345 1139.55C682.514 1138.4 684.207 1137.69 686.287 1137.69V1136.69Z" fill="black" mask="url(#path-28-outside-12_190_12)"/>
<path d="M2.53516 7.535L2.53514 289.535" stroke="#691919" stroke-width="5.07"/>
<path d="M196.535 2.535L6.53516 2.535" stroke="#691919" stroke-width="5.07"/>
<path d="M1367.54 1314.54L1367.54 1032.54" stroke="#691919" stroke-width="5.07"/>
<path d="M1173.54 1319.54L1363.54 1319.54" stroke="#691919" stroke-width="5.07"/>
<path d="M2.53516 1314.54L2.53514 1032.54" stroke="#691919" stroke-width="5.07"/>
<path d="M6.53516 1317H4.00015V1322.07H6.53516V1319.54V1317ZM196.535 1319.54V1317H6.53516V1319.54V1322.07H196.535V1319.54Z" fill="#691919"/>
<path d="M1367.54 12.535L1367.54 294.535" stroke="#691919" stroke-width="5.07"/>
<path d="M1173.54 7.535L1363.54 7.535" stroke="#691919" stroke-width="5.07"/>
</svg>
