<svg width="208" height="89" viewBox="0 0 208 89" fill="none" xmlns="http://www.w3.org/2000/svg">
<path d="M30.4513 43.8624C26.8573 43.4139 25.0547 40.7279 25.0389 37.2282C25.0264 34.6342 25.0232 32.0397 25.0295 29.4444C25.0295 29.4138 25.0448 29.3985 25.0753 29.3985H30.5382C30.5632 29.3985 30.5872 29.4083 30.6048 29.4259C30.6226 29.4435 30.6325 29.4674 30.6325 29.4923C30.6319 31.6765 30.6307 33.8662 30.6288 36.0617C30.6269 37.1804 30.9257 38.3422 32.2334 38.5111C33.6745 38.6961 34.1593 37.6234 34.2564 36.3601C34.3429 35.2365 34.3442 34.1121 34.2601 32.9872C34.1331 31.2848 33.3177 29.9221 32.3053 28.6073C31.0157 26.933 29.72 25.2635 28.418 23.5986C26.6089 21.2833 25.503 18.8019 25.3695 15.842C25.2041 12.1715 25.1163 7.75032 29.3072 6.32101C29.9953 6.08639 30.7477 5.94781 31.5646 5.90526C32.9482 5.83269 34.1312 5.86521 35.1138 6.00287C38.4958 6.47774 39.7333 8.83519 39.7539 12.0373C39.7676 14.1677 39.7682 16.2987 39.7557 18.4303C39.7557 18.461 39.7405 18.4764 39.71 18.4764L34.4142 18.4932C34.3892 18.4932 34.3652 18.4832 34.3475 18.4654C34.3298 18.4477 34.3199 18.4236 34.3199 18.3984C34.3205 16.7028 34.3221 14.9967 34.3246 13.2799C34.3264 12.2945 34.2312 11.0829 32.9909 10.9346C31.5114 10.7582 31.1154 11.7492 31.0827 13.0396C31.064 13.7611 31.0815 14.4821 31.135 15.2029C31.2546 16.8011 31.9915 18.0774 32.9357 19.32C34.3399 21.1682 35.7496 23.012 37.1649 24.8514C38.7199 26.8739 39.8772 28.902 40.1817 31.4847C40.3694 33.0783 40.3628 34.8398 40.2592 36.5131C40.0247 40.3046 38.2091 43.4974 34.1088 43.8887C32.8062 44.0132 31.5871 44.0044 30.4513 43.8624Z" fill="#FFEFEF"/>
<path d="M23.3788 39.344C23.4093 40.7323 23.4142 42.0966 23.3936 43.4368C23.3918 43.525 23.3473 43.5691 23.2601 43.5691H17.8438C17.8191 43.5691 17.7954 43.5592 17.7778 43.5416C17.7603 43.524 17.7505 43.5001 17.7505 43.4753V27.2629C17.7505 27.238 17.7407 27.2141 17.7231 27.1965C17.7056 27.1789 17.6818 27.169 17.6571 27.169H13.9912C13.9661 27.169 13.9422 27.1789 13.9245 27.1965C13.9067 27.2141 13.8969 27.238 13.8969 27.2629L13.8987 43.4518C13.8987 43.53 13.8598 43.5691 13.7819 43.5691L8.32838 43.5672C8.28977 43.5672 8.27051 43.5478 8.27051 43.509V6.28765C8.27051 6.25636 8.28605 6.24072 8.31721 6.24072H13.8623C13.8715 6.24072 13.8802 6.24438 13.8868 6.25089C13.8932 6.2574 13.8969 6.26623 13.8969 6.27544L13.9015 21.1064C13.9015 21.1168 13.9036 21.1273 13.9076 21.1369C13.9117 21.1466 13.9176 21.1553 13.925 21.1628C13.9325 21.1702 13.9414 21.1761 13.9511 21.1801C13.9608 21.1841 13.9712 21.1862 13.9818 21.1862H17.6571C17.6818 21.1862 17.7056 21.1762 17.7231 21.1587C17.7407 21.1411 17.7505 21.1172 17.7505 21.0923V6.29984C17.7505 6.26043 17.7698 6.24072 17.8084 6.24072H23.3292C23.3483 6.24072 23.3666 6.24833 23.38 6.26189C23.3936 6.27544 23.4012 6.29382 23.4012 6.31298C23.4012 17.2764 23.4012 28.2483 23.4012 39.2286C23.4012 39.2449 23.398 39.2598 23.3918 39.2736C23.3825 39.2962 23.3781 39.3196 23.3788 39.344Z" fill="#FFEFEF"/>
<path d="M47.617 21.4208L53.1435 21.4236C53.1571 21.4236 53.1702 21.4291 53.1798 21.4387C53.1895 21.4484 53.1948 21.4615 53.1948 21.4752L53.192 27.0705C53.192 27.0842 53.1866 27.0973 53.177 27.107C53.1674 27.1166 53.1542 27.1221 53.1406 27.1221H47.617C47.6034 27.1221 47.5904 27.1275 47.5807 27.1372C47.5711 27.1469 47.5657 27.16 47.5657 27.1737L47.5647 37.8161C47.5647 37.8298 47.5701 37.843 47.5798 37.8526C47.5894 37.8624 47.6025 37.8678 47.6161 37.8678H54.9863C54.9999 37.8678 55.0129 37.8732 55.0225 37.8829C55.0321 37.8925 55.0376 37.9057 55.0376 37.9194V43.5174C55.0376 43.5312 55.0321 43.5443 55.0225 43.5539C55.0129 43.5637 54.9999 43.5691 54.9863 43.5691H41.9664C41.9528 43.5691 41.9397 43.5637 41.9301 43.5539C41.9205 43.5443 41.915 43.5312 41.915 43.5174V6.29233C41.915 6.27865 41.9205 6.26552 41.9301 6.25584C41.9397 6.24616 41.9528 6.24072 41.9664 6.24072H54.7061C54.7197 6.24072 54.7327 6.24616 54.7423 6.25584C54.752 6.26552 54.7574 6.27865 54.7574 6.29233V11.6089C54.7574 11.6225 54.752 11.6357 54.7423 11.6454C54.7327 11.6551 54.7197 11.6605 54.7061 11.6605H47.617C47.6034 11.6605 47.5904 11.6659 47.5807 11.6756C47.5711 11.6853 47.5657 11.6984 47.5657 11.7121V21.3692C47.5657 21.376 47.567 21.3826 47.5696 21.3889C47.5722 21.3952 47.576 21.4009 47.5807 21.4057C47.5855 21.4104 47.5912 21.4143 47.5974 21.4168C47.6036 21.4194 47.6103 21.4208 47.617 21.4208Z" fill="#FFEFEF"/>
<path d="M66.1624 36.6224L65.4283 43.5006C65.4262 43.5195 65.4173 43.537 65.4031 43.5496C65.389 43.5623 65.3707 43.5692 65.3517 43.5691H60.4483C60.4373 43.5692 60.4266 43.5669 60.4166 43.5624C60.4067 43.5581 60.3978 43.5515 60.3905 43.5433C60.3833 43.5352 60.3779 43.5255 60.3746 43.5151C60.3713 43.5047 60.3703 43.4937 60.3717 43.4827L64.8996 6.3083C64.902 6.28955 64.911 6.27231 64.9251 6.25985C64.9393 6.24739 64.9574 6.24059 64.9763 6.24072H71.545C71.5635 6.24078 71.5814 6.24756 71.5953 6.25981C71.6091 6.27205 71.6182 6.28895 71.6207 6.30736L76.4438 43.4818C76.4452 43.4927 76.4444 43.5037 76.4413 43.5142C76.4381 43.5247 76.4328 43.5344 76.4257 43.5427C76.4185 43.551 76.4096 43.5576 76.3998 43.5621C76.3898 43.5667 76.379 43.5691 76.3681 43.5691H71.0678C71.0488 43.5692 71.0305 43.5623 71.0164 43.5496C71.0022 43.537 70.9932 43.5195 70.9911 43.5006L70.257 36.6205C70.2549 36.6017 70.2459 36.5842 70.2319 36.5715C70.2177 36.5588 70.1994 36.5519 70.1805 36.552L66.239 36.5539C66.2201 36.5538 66.2018 36.5607 66.1876 36.5734C66.1734 36.586 66.1645 36.6035 66.1624 36.6224ZM66.7303 30.9136C66.7299 30.9177 66.7303 30.922 66.7317 30.9259C66.733 30.9299 66.7351 30.9335 66.738 30.9367C66.7408 30.9398 66.7442 30.9422 66.7481 30.9439C66.7519 30.9456 66.756 30.9465 66.7601 30.9464L69.6107 30.9483C69.6149 30.9483 69.619 30.9475 69.6228 30.9458C69.6266 30.9441 69.63 30.9416 69.6329 30.9385C69.6357 30.9355 69.6378 30.9318 69.6392 30.9278C69.6405 30.9238 69.641 30.9196 69.6406 30.9155L68.1882 17.5054C68.187 17.4984 68.1834 17.4922 68.178 17.4877C68.1726 17.4831 68.1659 17.4806 68.1588 17.4806C68.1518 17.4806 68.145 17.4831 68.1396 17.4877C68.1342 17.4922 68.1307 17.4984 68.1294 17.5054L66.7303 30.9136Z" fill="#FFEFEF"/>
<path d="M83.0453 26.9234C83.0064 26.9253 82.987 26.946 82.987 26.9854V43.4634C82.987 43.4912 82.9756 43.5179 82.9562 43.5377C82.936 43.5574 82.9101 43.5684 82.8818 43.5684L77.4293 43.5704C77.4046 43.5704 77.3808 43.5603 77.3633 43.5426C77.3457 43.5248 77.3359 43.5007 77.3359 43.4755V6.33301C77.3359 6.30861 77.3456 6.28522 77.3627 6.26798C77.3799 6.25073 77.4032 6.24103 77.4275 6.24103C80.5458 6.24041 83.6749 6.24073 86.816 6.24197C90.8125 6.24385 92.1681 8.63229 92.1309 12.3074C92.1098 14.5082 92.1341 16.7089 92.1074 18.9097C92.0839 20.7622 91.451 22.5107 89.7466 23.3694C89.7425 23.3715 89.7393 23.3747 89.7369 23.3786C89.7344 23.3825 89.7336 23.387 89.7336 23.3915C89.7336 23.396 89.7344 23.4004 89.7369 23.4041C89.7393 23.4078 89.7425 23.4107 89.7466 23.4126C91.2244 24.0852 92.0046 25.2504 92.0872 26.9084C92.105 27.2538 92.1147 27.6007 92.1163 27.9492C92.1341 31.2652 92.1406 34.5812 92.1382 37.8972C92.1357 39.7132 91.9051 41.6202 92.6901 43.3273C92.7015 43.3532 92.7071 43.3819 92.7047 43.4104C92.7031 43.4389 92.6942 43.4665 92.6788 43.4907C92.6634 43.5147 92.6424 43.5346 92.6173 43.5484C92.5922 43.5621 92.5639 43.5693 92.5356 43.5694H87.1858C87.1445 43.5693 87.1041 43.5573 87.0693 43.5346C87.0345 43.5119 87.007 43.4797 86.9908 43.4418C86.7116 42.808 86.5683 42.1251 86.5602 41.393C86.5149 37.2149 86.5003 33.0368 86.5181 28.8586C86.523 27.6564 86.0625 27.0286 84.8646 26.9422C84.2512 26.8984 83.645 26.8922 83.0453 26.9234ZM84.9464 21.5337C86.4234 21.362 86.5691 19.6896 86.5367 18.5418C86.4898 16.9023 86.5125 15.2599 86.5133 13.6194C86.5133 12.4877 86.281 11.4383 84.9763 11.3483C84.3329 11.3033 83.6968 11.2926 83.0679 11.3164C83.0461 11.3171 83.025 11.3263 83.0105 11.3421C82.9951 11.3578 82.9862 11.3789 82.987 11.4009V21.4915C82.9862 21.5054 82.9894 21.5191 82.9951 21.5318C82.9999 21.5446 83.008 21.556 83.0185 21.5656C83.0283 21.5751 83.0404 21.5824 83.0533 21.587C83.0663 21.5917 83.0801 21.5938 83.0938 21.5928C83.7243 21.5497 84.3426 21.6041 84.9464 21.5337Z" fill="#FFEFEF"/>
<path d="M103.427 43.5691H97.9958C97.9845 43.5691 97.9732 43.5669 97.9627 43.5624C97.9521 43.558 97.9424 43.5516 97.9343 43.5436C97.9262 43.5355 97.9198 43.5258 97.9157 43.5152C97.9117 43.5046 97.9092 43.4933 97.9092 43.4818V11.7478C97.9092 11.7247 97.9003 11.7024 97.8833 11.686C97.8672 11.6697 97.8453 11.6605 97.8226 11.6605H93.2564C93.2329 11.6605 93.211 11.6513 93.1948 11.6349C93.1779 11.6185 93.1689 11.5964 93.1689 11.5732V6.328C93.1689 6.31654 93.1714 6.30519 93.1754 6.2946C93.1803 6.28401 93.1868 6.27439 93.1948 6.26629C93.2029 6.25818 93.2118 6.25175 93.2224 6.24737C93.2329 6.24298 93.2442 6.24072 93.2564 6.24072H108.166C108.177 6.24072 108.189 6.24298 108.199 6.24737C108.21 6.25175 108.219 6.25818 108.228 6.26629C108.236 6.27439 108.242 6.28401 108.246 6.2946C108.251 6.30519 108.253 6.31654 108.253 6.328V11.5732C108.253 11.5964 108.244 11.6185 108.228 11.6349C108.211 11.6513 108.189 11.6605 108.166 11.6605H103.6C103.588 11.6605 103.577 11.6627 103.567 11.6671C103.556 11.6716 103.546 11.678 103.538 11.686C103.53 11.6941 103.524 11.7038 103.52 11.7144C103.516 11.725 103.513 11.7363 103.513 11.7478V43.4818C103.513 43.5049 103.504 43.5271 103.488 43.5436C103.471 43.5599 103.449 43.5691 103.427 43.5691Z" fill="#FFEFEF"/>
<path d="M123.355 36.5511L119.383 36.5529C119.368 36.5531 119.354 36.5588 119.343 36.5688C119.332 36.5788 119.324 36.5925 119.323 36.6074L118.586 43.5147C118.585 43.5295 118.577 43.5433 118.567 43.5533C118.556 43.5633 118.541 43.5689 118.526 43.5691H113.589C113.581 43.569 113.572 43.5671 113.564 43.5636C113.557 43.5599 113.55 43.5548 113.544 43.5483C113.539 43.5418 113.534 43.5343 113.532 43.526C113.53 43.5178 113.529 43.5091 113.53 43.5006L118.06 6.29422C118.062 6.27937 118.069 6.26572 118.081 6.25586C118.092 6.24599 118.106 6.24061 118.121 6.24072H124.72C124.734 6.24084 124.749 6.24633 124.76 6.25617C124.77 6.26601 124.778 6.27953 124.779 6.29422L129.606 43.5015C129.607 43.5101 129.606 43.5187 129.604 43.5269C129.601 43.5352 129.597 43.5428 129.592 43.5493C129.586 43.5557 129.58 43.5609 129.571 43.5645C129.563 43.5681 129.555 43.57 129.546 43.5701L124.212 43.5662C124.197 43.5662 124.182 43.5605 124.172 43.5505C124.16 43.5404 124.154 43.5267 124.152 43.5119L123.415 36.6055C123.413 36.5906 123.407 36.5769 123.395 36.5668C123.384 36.5568 123.37 36.5512 123.355 36.5511ZM122.755 30.9464C122.762 30.9465 122.768 30.9452 122.774 30.9426C122.78 30.9401 122.785 30.9363 122.789 30.9316C122.793 30.9269 122.797 30.9214 122.798 30.9154C122.801 30.9093 122.801 30.903 122.801 30.8967L121.356 17.5711C121.332 17.3471 121.307 17.3474 121.284 17.572L119.887 30.9173C119.887 30.9213 119.887 30.9254 119.889 30.9292C119.889 30.9331 119.892 30.9367 119.894 30.9397C119.897 30.9427 119.901 30.9451 119.904 30.9468C119.908 30.9484 119.912 30.9492 119.916 30.9492L122.755 30.9464Z" fill="#FFEFEF"/>
<path d="M135.63 22.317C135.608 22.536 135.596 22.7319 135.596 22.9045C135.595 29.778 135.595 36.6502 135.595 43.5212C135.595 43.5344 135.59 43.5471 135.581 43.5564C135.572 43.5658 135.559 43.5709 135.546 43.5709L130.64 43.5654C130.55 43.5654 130.505 43.52 130.505 43.4292V6.28765C130.505 6.2752 130.51 6.26326 130.519 6.25447C130.528 6.24567 130.539 6.24072 130.552 6.24072H135.585C135.601 6.24072 135.612 6.24886 135.616 6.26512L140.371 25.9161C140.41 26.0819 140.431 26.0794 140.431 25.9086L140.427 6.2792C140.427 6.26899 140.431 6.25921 140.439 6.25199C140.446 6.24478 140.456 6.24072 140.466 6.24072H145.542C145.555 6.24072 145.567 6.24567 145.576 6.25447C145.584 6.26326 145.589 6.2752 145.589 6.28765V43.448C145.589 43.4637 145.586 43.4792 145.58 43.4936C145.574 43.5081 145.565 43.5213 145.554 43.5323C145.543 43.5433 145.53 43.5522 145.516 43.5582C145.501 43.5641 145.486 43.5672 145.47 43.5672L141.059 43.5701C141.038 43.57 141.018 43.563 141.001 43.5501C140.985 43.5371 140.974 43.5191 140.968 43.4987L135.649 22.3151C135.641 22.2814 135.634 22.282 135.63 22.317Z" fill="#FFEFEF"/>
<path d="M147.838 43.5586C147.792 43.5581 147.749 43.5396 147.717 43.507C147.685 43.4746 147.667 43.4307 147.667 43.385V6.33345C147.667 6.30905 147.677 6.28566 147.694 6.26841C147.711 6.25116 147.733 6.24147 147.758 6.24147C150.682 6.24022 153.617 6.23834 156.563 6.23584C159.74 6.23396 161.8 7.69613 162.437 10.8307C162.582 11.5471 162.655 12.2243 162.656 12.8625C162.658 20.7833 162.653 28.7039 162.64 36.6241C162.632 40.7957 160.718 43.5445 156.336 43.568C153.542 43.5829 150.709 43.5799 147.838 43.5586ZM156.847 14.0826C156.845 12.9066 156.7 11.4088 155.161 11.3327C154.563 11.3034 153.971 11.2971 153.383 11.314C153.371 11.3142 153.361 11.3188 153.353 11.3267C153.345 11.3346 153.341 11.3452 153.341 11.3562V38.0572C153.341 38.0928 153.359 38.1116 153.395 38.1134C153.916 38.1423 154.436 38.1416 154.958 38.1116C156.719 38.0112 156.86 36.5049 156.861 35.1225C156.866 28.1095 156.862 21.0962 156.847 14.0826Z" fill="#FFEFEF"/>
<path d="M40.7022 79.7128C39.7281 78.4317 39.375 76.7697 39.3712 75.193C39.365 72.6347 39.366 70.0764 39.3741 67.5181C39.3741 67.4905 39.3874 67.4768 39.4142 67.4768L44.9042 67.4777C44.9354 67.4777 44.951 67.4936 44.951 67.5256C44.9503 69.3656 44.9512 71.2041 44.9537 73.0411C44.9547 74.3558 44.8015 76.5003 46.6844 76.5867C47.9388 76.6439 48.4693 75.8049 48.5673 74.6562C48.6785 73.3611 48.7056 71.7872 48.5505 70.647C48.3423 69.1238 47.5885 67.93 46.6406 66.6931C45.3373 64.9938 44.0287 63.2986 42.7149 61.6075C41.0058 59.4057 39.9803 57.1731 39.7439 54.367C39.3442 49.6276 39.6543 44.389 45.728 43.9939C50.4157 43.6889 54.0256 44.4575 54.0863 50.1016C54.1094 52.1938 54.1134 54.327 54.0984 56.5011C54.0984 56.5126 54.0939 56.5236 54.0859 56.5317C54.0778 56.5398 54.0669 56.5443 54.0555 56.5443H48.6879C48.6752 56.5443 48.6631 56.5393 48.6542 56.5303C48.6452 56.5213 48.6402 56.5091 48.6402 56.4964C48.6402 54.6971 48.6396 52.8908 48.6383 51.0776C48.6374 49.9092 48.3077 48.891 46.9076 48.9913C46.1181 49.0489 45.6564 49.4581 45.5225 50.2188C45.346 51.2184 45.3629 52.4844 45.4665 53.4275C45.6468 55.0699 46.4911 56.3848 47.4746 57.6761C49.1328 59.8534 50.2738 61.34 50.8977 62.1358C52.3061 63.933 53.5819 65.6983 54.1965 67.901C54.6859 69.6531 54.6701 71.5142 54.628 73.4136C54.6056 74.4485 54.5474 75.2599 54.4533 75.8481C53.9098 79.2472 51.9036 81.6302 48.3684 81.971C45.6963 82.2275 42.4954 82.0729 40.7022 79.7128Z" fill="#FFEFEF"/>
<path d="M74.7242 78.0424C74.7233 78.038 74.721 78.0341 74.7177 78.0312C74.7143 78.0284 74.7101 78.0267 74.7055 78.0266C74.701 78.0263 74.6965 78.0275 74.6927 78.03C74.6888 78.0326 74.6858 78.0363 74.6841 78.0405C73.8799 80.0441 72.1381 81.8546 69.932 82.0982C66.4024 82.4891 64.3448 79.8124 63.8983 76.6271C63.8442 76.2424 63.8171 75.6589 63.8171 74.8768C63.8146 67.1549 63.819 59.4331 63.8302 51.7112C63.8348 48.8019 64.794 45.6345 67.7669 44.467C69.2894 43.8692 71.0005 43.8917 72.6592 43.9809C77.2264 44.2268 78.5153 47.2844 78.5704 51.3424C78.591 52.8527 78.6013 54.4212 78.6013 56.048C78.6013 56.0733 78.5912 56.0977 78.5734 56.1156C78.5555 56.1336 78.5313 56.1437 78.506 56.1437L73.1766 56.1493C73.1521 56.1493 73.1286 56.1395 73.1112 56.1221C73.0939 56.1047 73.0842 56.081 73.0842 56.0564C73.0873 54.4966 73.086 52.9328 73.0805 51.3649C73.0758 50.1111 72.322 49.1697 70.9818 49.4138C69.6629 49.6541 69.5611 51.1058 69.5611 52.1785C69.5581 59.3661 69.5555 66.554 69.5537 73.7422C69.5527 74.9548 69.9665 76.3906 71.4263 76.3812C73.0926 76.3719 73.4811 75.1546 73.4811 73.7591C73.4799 70.7497 73.4817 67.7471 73.4867 64.7515C73.4867 64.7417 73.4848 64.7319 73.481 64.7229C73.4773 64.7138 73.4717 64.7056 73.4647 64.6988C73.4578 64.6918 73.4496 64.6864 73.4405 64.6827C73.4315 64.6791 73.4218 64.6772 73.412 64.6773L71.0332 64.6895C71.0205 64.6897 71.0081 64.6873 70.9963 64.6826C70.9847 64.6778 70.9741 64.6708 70.9652 64.6619C70.9562 64.653 70.9491 64.6424 70.9443 64.6307C70.9394 64.619 70.9369 64.6065 70.9369 64.5939V59.0315C70.9369 59.0065 70.9467 58.9826 70.9643 58.9651C70.9818 58.9474 71.0056 58.9376 71.0303 58.9376H78.7703C78.7921 58.9376 78.813 58.9461 78.8285 58.9614C78.8438 58.9768 78.8525 58.9975 78.8525 59.0192V81.5786C78.8525 81.6101 78.837 81.6255 78.8058 81.6255H75.7021C75.6878 81.6255 75.674 81.6207 75.6627 81.6118C75.6513 81.6037 75.6432 81.5915 75.6396 81.5778L74.7242 78.0424Z" fill="#FFEFEF"/>
<path d="M117.814 70.2658C118.218 75.3036 117.707 81.8422 110.998 82.0138C109.824 82.0437 108.629 82.0615 107.472 81.8325C103.758 81.1008 102.611 78.1397 102.601 74.7123C102.595 72.3161 102.595 69.9198 102.6 67.5235C102.601 67.4929 102.616 67.4776 102.647 67.4776H108.155C108.168 67.4776 108.179 67.4826 108.189 67.4916C108.198 67.5005 108.202 67.5127 108.202 67.5254C108.202 69.7627 108.202 72.007 108.202 74.2581C108.202 75.6545 108.787 76.6954 110.325 76.5565C111.467 76.4523 111.761 75.3974 111.832 74.4158C111.914 73.2996 111.915 72.1828 111.835 71.0654C111.713 69.3902 110.933 68.051 109.93 66.7492C108.571 64.9874 107.209 63.2281 105.844 61.4712C103.967 59.0574 102.968 56.4315 102.922 53.358C102.892 51.466 102.811 50.0339 103.218 48.4253C104.325 44.0557 108.511 43.6935 112.218 44.0144C116.089 44.3494 117.32 46.8421 117.329 50.445C117.334 52.4626 117.334 54.4804 117.33 56.4982C117.33 56.5104 117.325 56.522 117.316 56.5307C117.308 56.5393 117.296 56.5441 117.284 56.5441H111.939C111.926 56.5441 111.914 56.539 111.905 56.5299C111.895 56.5207 111.891 56.5083 111.891 56.4953C111.892 54.7823 111.893 53.0624 111.895 51.3355C111.895 50.3614 111.805 49.1592 110.577 49.0053C109.234 48.8363 108.759 49.604 108.683 50.8025C108.639 51.4957 108.63 52.1899 108.655 52.885C108.723 54.6954 109.534 56.1209 110.601 57.5155C112.12 59.4994 113.639 61.484 115.157 63.4692C116.72 65.5142 117.602 67.6314 117.814 70.2658Z" fill="#FFEFEF"/>
<path d="M126.086 82.0681C122.99 82.0559 120.507 80.5807 119.715 77.4453C119.396 76.1792 119.318 75.1572 119.318 73.712C119.314 66.2767 119.314 58.8413 119.316 51.406C119.318 47.5225 121.042 44.3138 125.289 44.0032C128.427 43.7732 132.101 43.9019 133.558 47.2766C134.155 48.6609 134.252 50.2779 134.256 51.788C134.26 53.9765 134.261 56.1645 134.257 58.3517C134.257 58.3639 134.252 58.3757 134.244 58.3842C134.235 58.3929 134.223 58.3978 134.211 58.3978H128.749C128.738 58.3977 128.728 58.3941 128.72 58.3876C128.712 58.3812 128.706 58.3723 128.703 58.3621C128.648 58.1397 128.699 57.8769 128.7 57.7182C128.704 55.7862 128.703 53.8542 128.697 51.9222C128.693 50.2967 128.118 48.9838 126.18 49.4633C125.349 49.6689 125.084 50.567 125.083 51.3177C125.081 58.9489 125.08 66.5801 125.081 74.2113C125.081 75.2821 125.421 76.3923 126.662 76.5349C128.089 76.6992 128.717 75.4801 128.693 74.2525C128.639 71.3338 128.706 68.3898 128.7 65.4129C128.7 65.4005 128.705 65.3885 128.714 65.3798C128.723 65.3709 128.734 65.366 128.747 65.366H134.212C134.224 65.366 134.236 65.371 134.245 65.38C134.254 65.389 134.26 65.4012 134.26 65.4138C134.259 68.3082 134.257 71.2093 134.254 74.1174C134.25 78.4269 132.559 82.0478 127.651 82.0681C127.129 82.0705 126.607 82.0705 126.086 82.0681Z" fill="#FFEFEF"/>
<path d="M157.337 81.5694C153.646 80.2468 153.112 76.1915 153.109 72.8214C153.102 62.1502 153.102 55.3324 153.108 52.368C153.114 48.9801 154.088 45.3697 157.73 44.2989C159.124 43.8888 160.716 43.8897 162.172 43.9826C167.572 44.3299 168.559 48.5249 168.562 53.0343C168.566 59.7102 168.566 66.3859 168.563 73.0617C168.561 77.5721 167.338 81.8778 161.903 82.0607C160.374 82.1125 158.836 82.1068 157.337 81.5694ZM158.872 73.0091C158.875 74.3465 158.832 76.4835 160.765 76.5529C162.43 76.612 162.799 75.1414 162.799 73.8125C162.799 66.5254 162.795 59.2384 162.787 51.9514C162.786 50.9734 162.487 49.744 161.423 49.4596C160.762 49.2832 160.184 49.3746 159.688 49.7337C158.8 50.3747 158.877 51.8209 158.873 52.7725C158.855 59.5183 158.855 66.2639 158.872 73.0091Z" fill="#FFEFEF"/>
<path d="M172.717 80.4576C170.66 78.6173 170.344 75.6395 170.343 73.0624C170.34 66.07 170.34 59.078 170.342 52.0862C170.343 48.1108 171.931 44.4629 176.367 44.0302C178.092 43.8613 179.928 43.8556 181.542 44.3981C185.159 45.6144 185.773 49.358 185.774 52.6709C185.776 59.632 185.776 66.593 185.774 73.5541C185.774 78.1743 184.076 82.0476 178.794 82.0711C176.564 82.08 174.487 82.0419 172.717 80.4576ZM177.359 76.4015C178.263 76.7694 179.381 76.455 179.747 75.4762C179.926 74.9988 180.015 74.4833 180.015 73.9295C180.012 66.6901 180.009 59.4509 180.006 52.212C180.006 51.4668 179.933 50.7676 179.611 50.1914C179.053 49.1956 177.423 49.1103 176.686 49.9295C176.181 50.4936 176.088 51.4611 176.088 52.227C176.084 59.4358 176.089 66.6447 176.101 73.8535C176.103 74.8633 176.303 75.9726 177.359 76.4015Z" fill="#FFEFEF"/>
<path d="M17.2312 81.6076C14.2548 81.631 11.2813 81.6351 8.31065 81.6197C8.29997 81.6197 8.28977 81.6157 8.28224 81.6076C8.27472 81.6003 8.27043 81.5898 8.27051 81.5792V44.3449C8.27051 44.3336 8.27488 44.323 8.28281 44.315C8.29066 44.3071 8.30135 44.3026 8.31251 44.3026C11.3984 44.2864 14.49 44.2917 17.587 44.3186C18.1512 44.3236 18.7421 44.419 19.3597 44.6049C22.6418 45.5949 23.234 48.4958 23.2349 51.529C23.2387 59.2928 23.2392 67.057 23.2368 74.8213C23.2368 75.1329 23.2013 75.5791 23.1303 76.1597C22.7166 79.5326 20.6963 81.5801 17.2312 81.6076ZM17.4367 52.139C17.4348 50.8899 17.2499 49.3958 15.6238 49.3921C14.8131 49.3902 14.2573 49.3883 13.9566 49.3864C13.9193 49.3864 13.9006 49.4052 13.9006 49.4428L13.8978 76.1109C13.8978 76.1478 13.9161 76.1668 13.9529 76.1681C15.423 76.2263 16.9967 76.4017 17.3339 74.6318C17.4087 74.2376 17.446 73.8394 17.446 73.4371C17.4478 66.3377 17.4448 59.2383 17.4367 52.139Z" fill="#FFEFEF"/>
<path d="M25.2158 81.563V44.3589C25.2158 44.3424 25.2224 44.3267 25.2339 44.315C25.2454 44.3034 25.2611 44.2969 25.2775 44.2969H37.9966C38.0129 44.2969 38.0286 44.3034 38.0402 44.315C38.0518 44.3267 38.0582 44.3424 38.0582 44.3589V49.6547C38.0582 49.6711 38.0518 49.6869 38.0402 49.6986C38.0286 49.7101 38.0129 49.7167 37.9966 49.7167H30.9281C30.92 49.7167 30.912 49.7183 30.9046 49.7214C30.8971 49.7245 30.8903 49.7291 30.8846 49.7348C30.8788 49.7406 30.8743 49.7474 30.8712 49.7549C30.8681 49.7624 30.8665 49.7705 30.8665 49.7786V59.4188C30.8665 59.4269 30.8681 59.435 30.8712 59.4424C30.8743 59.45 30.8788 59.4568 30.8846 59.4626C30.8903 59.4683 30.8971 59.4729 30.9046 59.476C30.912 59.4791 30.92 59.4807 30.9281 59.4807L36.4555 59.475C36.4719 59.475 36.4876 59.4816 36.4991 59.4933C36.5107 59.5048 36.5172 59.5206 36.5172 59.537V65.1163C36.5172 65.1327 36.5107 65.1485 36.4991 65.1602C36.4876 65.1717 36.4719 65.1783 36.4555 65.1783H30.9281C30.92 65.1783 30.912 65.1798 30.9046 65.183C30.8971 65.1861 30.8903 65.1907 30.8846 65.1964C30.8788 65.2022 30.8743 65.209 30.8712 65.2165C30.8681 65.224 30.8665 65.232 30.8665 65.2402V75.8855C30.8665 75.9019 30.873 75.9177 30.8846 75.9293C30.8962 75.9409 30.9118 75.9474 30.9281 75.9474H38.3002C38.3165 75.9474 38.3322 75.9539 38.3438 75.9656C38.3553 75.9772 38.3618 75.9929 38.3618 76.0093V81.563C38.3618 81.5799 38.3553 81.5953 38.3438 81.6075C38.3322 81.6188 38.3165 81.6253 38.3002 81.6253H25.2775C25.2611 81.6253 25.2454 81.6188 25.2339 81.6075C25.2224 81.5953 25.2158 81.5799 25.2158 81.563Z" fill="#FFEFEF"/>
<path d="M61.821 44.2979H56.2768C56.2474 44.2979 56.2236 44.3218 56.2236 44.3513V81.5716C56.2236 81.6016 56.2474 81.625 56.2768 81.625H61.821C61.8504 81.625 61.8743 81.6016 61.8743 81.5716V44.3513C61.8743 44.3218 61.8504 44.2979 61.821 44.2979Z" fill="#FFEFEF"/>
<path d="M90.712 64.007V44.3457C90.712 44.334 90.7168 44.3228 90.7249 44.3145C90.733 44.3063 90.7443 44.3016 90.7565 44.3016L95.8027 44.2988C95.8213 44.2988 95.8391 44.3061 95.8521 44.3191C95.865 44.3322 95.8723 44.3498 95.8723 44.3683V81.5783C95.8723 81.5905 95.8674 81.6026 95.8585 81.6115C95.8496 81.6204 95.8375 81.6253 95.8254 81.6253H91.3173C91.3012 81.6253 91.2866 81.6196 91.2744 81.6107C91.2623 81.601 91.2534 81.5872 91.2494 81.5719L85.9158 60.3282C85.9142 60.3208 85.9093 60.3144 85.9029 60.3102C85.8972 60.3059 85.8899 60.3041 85.8818 60.305C85.8745 60.3059 85.8681 60.3096 85.8624 60.3152C85.8575 60.3208 85.8551 60.3281 85.8551 60.3357C85.8559 60.35 85.8575 60.3632 85.86 60.3751C85.8648 60.396 85.8697 60.4154 85.8729 60.431C85.8762 60.4465 85.8778 60.4574 85.8786 60.4624V81.5783C85.8786 81.5905 85.8737 81.6026 85.8648 81.6115C85.8559 81.6204 85.8438 81.6253 85.8316 81.6253H80.8815C80.8567 81.6253 80.833 81.6156 80.8154 81.5977C80.798 81.5799 80.7881 81.5565 80.7881 81.5314V44.3438C80.7881 44.3314 80.793 44.3195 80.8018 44.3106C80.8105 44.3018 80.8224 44.2969 80.8348 44.2969H85.8567C85.8656 44.2969 85.8745 44.3 85.881 44.3056C85.8883 44.3112 85.8931 44.3191 85.8948 44.3279L90.6577 64.0136C90.6577 64.0172 90.6593 64.0206 90.661 64.0238C90.6626 64.0269 90.665 64.0297 90.6674 64.0319C90.6707 64.0341 90.6739 64.0358 90.6772 64.0367C90.6804 64.0377 90.6844 64.0379 90.6877 64.0375C90.6917 64.0371 90.695 64.036 90.6982 64.0342C90.7014 64.0324 90.7039 64.0301 90.7063 64.0273C90.7087 64.0244 90.7103 64.0212 90.7111 64.0177C90.712 64.0142 90.712 64.0106 90.712 64.007Z" fill="#FFEFEF"/>
<path d="M141.687 65.2937L141.681 81.5565C141.681 81.5654 141.679 81.5743 141.676 81.5832C141.672 81.5913 141.668 81.5986 141.661 81.605C141.655 81.6115 141.647 81.6164 141.639 81.6204C141.63 81.6236 141.622 81.6253 141.613 81.6253H136.1C136.082 81.6253 136.065 81.618 136.052 81.605C136.04 81.5921 136.032 81.5751 136.032 81.5565V44.3673C136.032 44.3492 136.04 44.3317 136.052 44.3188C136.065 44.306 136.082 44.2988 136.1 44.2988L141.616 44.3035C141.634 44.3035 141.651 44.3107 141.664 44.3235C141.677 44.3364 141.684 44.3538 141.684 44.372L141.682 59.1738C141.682 59.192 141.689 59.2094 141.702 59.2223C141.715 59.2351 141.732 59.2424 141.75 59.2424H145.444C145.463 59.2424 145.48 59.2351 145.493 59.2223C145.506 59.2094 145.512 59.192 145.512 59.1738V44.3654C145.512 44.3472 145.519 44.3298 145.532 44.3169C145.545 44.3042 145.562 44.2969 145.581 44.2969H151.118C151.136 44.2969 151.154 44.3042 151.166 44.3169C151.179 44.3298 151.186 44.3472 151.186 44.3654V81.5565C151.186 81.5751 151.179 81.5921 151.166 81.605C151.154 81.618 151.136 81.6253 151.118 81.6253H145.581C145.562 81.6253 145.545 81.618 145.532 81.605C145.519 81.5921 145.512 81.5751 145.512 81.5565V65.2937C145.512 65.2755 145.506 65.2581 145.493 65.2452C145.48 65.2324 145.463 65.2252 145.444 65.2252H141.755C141.736 65.2252 141.719 65.2324 141.706 65.2452C141.694 65.2581 141.687 65.2755 141.687 65.2937Z" fill="#FFEFEF"/>
<path d="M193.426 75.8536H200.182C200.2 75.8536 200.217 75.8606 200.229 75.8731C200.242 75.8856 200.248 75.9025 200.248 75.9202V81.5589C200.248 81.5767 200.242 81.5929 200.229 81.6058C200.217 81.618 200.2 81.6253 200.182 81.6253H187.776C187.759 81.6253 187.742 81.618 187.729 81.6058C187.716 81.5929 187.71 81.5767 187.71 81.5589V44.3636C187.71 44.3458 187.716 44.3289 187.729 44.3164C187.742 44.3039 187.759 44.2969 187.776 44.2969H193.294C193.311 44.2969 193.328 44.3039 193.341 44.3164C193.353 44.3289 193.361 44.3458 193.361 44.3636V75.7869C193.361 75.8046 193.367 75.8216 193.38 75.834C193.392 75.8466 193.409 75.8536 193.426 75.8536Z" fill="#FFEFEF"/>
</svg>
