<svg width="227" height="227" viewBox="0 0 227 227" fill="none" xmlns="http://www.w3.org/2000/svg">
<path d="M0 27.24V54.48H27.24H54.48V27.24V-1.90735e-05H27.24H0V27.24ZM46.762 26.9676C46.8528 37.5912 46.8528 46.308 46.8528 46.3988C46.762 46.4896 37.8636 46.6712 27.0584 46.8528L7.264 47.216V27.24V7.26398L26.9676 7.44558L46.6712 7.71798L46.762 26.9676Z" fill="black"/>
<path d="M15.4365 27.2399V39.0439H27.2405H39.0445V27.2399V15.4359H27.2405H15.4365V27.2399Z" fill="black"/>
<path d="M78.088 3.63199V7.26399H74.002H69.916V11.35V15.436H66.284H62.652V19.522V23.608H66.284H69.916V31.326V39.044H74.002H78.088V46.762V54.48H82.174H86.26V58.566V62.652H89.892H93.524V66.284V69.916H89.892H86.26V74.002V78.088H82.174H78.088V74.002V69.916H74.002H69.916V58.566V47.216H66.284H62.652V54.934V62.652H46.762H30.872V66.284V69.916H27.24H23.608V66.284V62.652H11.804H0V66.284V69.916H7.718H15.436V74.002V78.088H7.718H0V85.806V93.524H3.632H7.264V89.892V86.26H11.35H15.436V82.174V78.088H19.4312H23.4264L23.2448 82.174L23.0632 86.26H26.9676H30.872V89.892V93.4332L38.7716 93.7056L46.6712 93.978L46.8528 97.7916L46.9436 101.696H43.0392H39.044V109.414V117.132H34.958H30.872V109.505V101.787L27.0584 101.514C23.3356 101.242 23.3356 101.242 23.2448 97.61C23.154 93.978 23.154 93.978 19.2496 93.7056L15.436 93.4332V97.5192V101.696H7.718H0V105.782V109.868H7.718H15.436V113.5V117.132H11.35H7.264V121.218V125.304H3.632H0V129.39V133.476H3.632H7.264V137.108V140.74H3.632H0V144.826V148.912H3.632H7.264V152.998V157.084H3.632H0V160.716V164.348H3.632H7.264V160.716V157.084H11.35H15.436V160.716V164.348H19.522H23.608V160.716V157.084H27.24H30.872V160.716V164.348H42.676H54.48V160.716V157.084H42.676H30.872V152.998V148.912H34.958H39.044V144.917V140.831L42.9484 140.558C45.5816 140.377 46.762 139.832 46.8528 138.924C47.216 133.204 47.0344 133.476 50.848 133.476H54.48V129.39V125.304H62.198H69.916V129.39V133.476H66.284H62.652V141.194V148.912H66.284H69.916V144.826V140.74H78.088H86.26V144.826V148.912H89.892H93.524V152.998V157.084H89.892H86.26V160.716V164.348H78.088H69.916V160.716V157.084H66.284H62.652V176.606V196.128H66.284H69.916V199.76V203.392H66.284H62.652V215.196V227H70.37H78.088V219.282V211.564H85.806H93.524V215.65V219.736H89.892H86.26V223.368V227H89.892H93.524V223.368V219.736H101.696H109.868V223.368V227H125.304H140.74V223.368V219.736H144.826H148.912V223.368V227H160.716H172.52V219.282V211.564H164.802H157.084V207.478V203.392H160.716H164.348V199.76V196.128H172.429H180.601L180.42 203.846L180.238 211.564H184.142H187.956V215.559V219.645L184.142 219.918C180.42 220.19 180.329 220.281 179.966 223.55L179.693 227H187.865H196.128V219.282V211.564H199.76C203.483 211.564 203.574 211.382 203.574 207.024C203.574 203.664 203.392 203.574 200.032 203.664L196.582 203.846L196.31 195.856L196.037 187.956H199.942H203.846V180.238V172.52H200.032H196.128V164.802V157.084H199.76H203.392V152.998V148.912H199.76H196.128V144.826V140.74H203.846H211.564V148.912V157.084H215.65H219.736V152.998V148.912H223.368H227V137.108V125.304H223.368H219.736V121.218V117.132H223.368H227V105.328V93.524H223.368H219.736V89.892V86.26H223.368H227V78.088V69.916H223.368H219.736V74.002V78.1788L211.836 77.9064L203.846 77.634L203.574 73.7296L203.301 69.916H207.387H211.564V66.284V62.652H207.478H203.392V66.284V69.916H199.76H196.128V74.002V78.088H192.042H187.956V82.0832V86.1692L184.142 86.4416C181.418 86.6232 180.238 87.168 180.147 88.076C179.784 94.0688 180.964 93.524 168.434 93.524H157.084V101.696V109.868H164.802H172.52V113.5V117.132H164.802H157.084V121.218V125.304H148.912H140.74V121.218V117.132H144.826H148.912V113.5V109.868H141.194H133.476V105.782V101.696H137.108H140.74V93.978V86.26H144.826H148.912V78.088V69.916H144.826H140.74V66.284V62.652H148.912H157.084V74.456V86.26H168.343C177.786 86.26 179.693 85.9876 180.147 84.8072C180.42 83.99 180.692 78.7236 180.692 73.0032V62.652H172.52H164.348V50.848V39.044H160.716H157.084V34.958V30.872H152.998H148.912V23.154V15.436H152.998H157.084V7.71799V0H129.39H101.696V7.71799V15.436H121.218H140.74V23.154V30.872H144.826H148.912V34.958V39.044H137.108H125.304V31.326C125.304 25.0608 125.032 23.608 123.942 23.5172C123.216 23.5172 119.856 23.5172 116.496 23.4264H110.322L110.05 27.1492L109.777 30.872H113.409H117.132V38.9532V47.0344L113.5 46.6712L109.868 46.308V50.394V54.48H105.782H101.696L101.514 38.8624L101.242 23.2448L97.4284 23.3356L93.524 23.4264V19.4312V15.436H89.892H86.26V19.522V23.608L89.7104 23.3356L93.07 23.154L93.3424 31.0536L93.6148 39.044H85.806H78.088V31.0536V23.154L74.002 23.4264L69.916 23.7896V19.6128V15.436H74.002H78.088V11.35V7.26399H82.174H86.26V3.63199V0H82.174H78.088V3.63199ZM93.524 50.5756V54.48H97.61H101.696V58.566V62.652H97.61H93.524V58.566V54.48H89.892H86.26V50.5756V46.762H89.892L93.524 46.6712V50.5756ZM125.122 50.6664L125.395 54.48H121.309H117.132V50.9388C117.132 47.0344 117.949 46.308 122.126 46.6712C124.668 46.8528 124.85 47.216 125.122 50.6664ZM140.558 50.6664L140.831 54.48H137.199H133.476V50.5756V46.6712L136.926 46.762C140.195 46.8528 140.286 46.9436 140.558 50.6664ZM157.084 50.394V54.48H152.998H148.912V50.394V46.308H152.998H157.084V50.394ZM133.476 66.284V69.916H137.108H140.74V74.002V78.088H137.108H133.476V89.892V101.696H129.39H125.304V105.782V109.868H129.39H133.476V121.672V133.476H148.912H164.348V129.39V125.304H168.434H172.52V129.39V133.476H168.434H164.348V141.194V148.912H152.544H140.74V144.826V140.74H137.108H133.476V148.912V157.084H129.39H125.395L125.122 168.616L124.85 180.238L121.672 180.42C119.947 180.42 118.222 180.601 117.858 180.601C117.404 180.692 117.132 182.326 117.132 184.324V187.956H125.304H133.476V192.042V196.128H129.39H125.304V207.932V219.736H121.218H117.132V212.109C117.132 204.028 116.86 203.483 112.592 203.755C110.594 203.846 110.322 204.3 110.05 207.66L109.777 211.564H105.691H101.696V207.387V203.301L105.782 203.664L109.868 204.028V200.032V196.128H105.782H101.696V192.042V187.956H97.61H93.524V192.042V196.128H89.892H86.26V200.032C86.26 204.209 86.5324 204.118 79.2684 203.483C78.542 203.392 78.088 202.03 78.088 199.76V196.128H74.002H69.916V184.324V172.52H74.002H78.088V184.324V196.128H82.174H86.26V192.042V187.956H89.9828H93.6148L93.3424 184.142C93.07 180.329 92.9792 180.329 89.7104 180.329H86.26V176.424V172.52H89.892H93.524V164.802V157.084H101.696H109.868V160.716V164.348H113.5H117.132V160.716V157.084H121.218H125.304V152.998V148.912H121.218H117.132V141.194V133.476H113.5H109.868V121.672V109.868H105.782H101.696V117.586V125.304H97.61H93.524V129.39V133.476H89.892H86.26V129.39V125.304H89.892H93.524V121.218V117.132H81.72H69.916V113.5V109.868H66.284H62.652V105.782V101.696H66.284H69.916V97.61V93.524H66.284H62.652V89.892V86.26H58.566H54.48V89.892V93.524H50.848C47.0344 93.524 47.216 93.7964 46.8528 88.076C46.762 87.168 45.5816 86.6232 42.9484 86.4416L39.044 86.1692V82.0832V78.088H42.676H46.308V74.002V69.916H50.394H54.48V74.002V78.088H58.566H62.652V74.002V69.916H66.284H69.916V74.002V78.088H74.002H78.088V82.174V86.26H74.002H69.916V89.892V93.524H74.002H78.088V101.696V109.868H85.806H93.524V101.696V93.524H89.892H86.26V89.892V86.26H89.892H93.524V89.892V93.524H97.61H101.696V97.61V101.696H105.782H109.868V97.61V93.524H117.586H125.304V89.892V86.26H121.218H117.132V82.174V78.088H113.5H109.868V82.174V86.26H105.782H101.696V82.174V78.088H105.782H109.868V70.37V62.652H121.672H133.476V66.284ZM172.52 74.002V78.088H168.434H164.348V74.002V69.916H168.434H172.52V74.002ZM203.846 82.174C203.846 85.806 203.846 85.806 207.75 86.0784L211.564 86.3508V94.0688V101.696H215.65H219.736V105.782V109.868H215.65H211.564V121.672V133.476H215.65H219.736V137.108V140.74H215.65H211.564V137.199C211.564 133.567 211.564 133.567 207.75 133.294L203.846 133.022V113.228V93.524H200.032H196.128V101.696V109.868H192.042H187.956V113.5V117.132H192.042H196.128V128.936V140.74H188.047H180.056L180.238 144.826L180.42 148.912H176.515H172.52V144.826V140.74H176.152C179.875 140.74 179.966 140.558 180.147 136.2C180.238 134.202 180.692 133.93 184.142 133.658L187.956 133.385V129.299V125.304H184.142H180.238L180.42 109.686L180.51 93.978L188.319 93.7056L196.128 93.4332V85.7152V77.9972L200.032 78.2696C203.846 78.542 203.846 78.542 203.846 82.174ZM23.4264 105.782V109.868H19.4312H15.436V105.782V101.696H19.4312H23.4264V105.782ZM54.48 105.782V109.868H50.5756C46.8528 109.868 46.762 109.777 46.5804 106.872C46.308 102.332 46.8528 101.696 50.848 101.696H54.48V105.782ZM54.48 121.309V125.395L50.6664 125.122C46.4896 124.85 45.6724 123.579 46.6712 119.311C47.1252 117.495 47.7608 117.132 50.848 117.132H54.48V121.309ZM15.436 129.299V133.385L19.3404 133.658C23.154 133.93 23.154 133.93 23.0632 137.29V140.74H26.9676H30.872V144.826V148.912H27.24H23.608V152.998V157.084H19.522H15.436V152.998V148.912H11.35H7.264V144.826V140.74H11.35H15.436V137.108V133.476H11.35H7.264V129.39V125.304H11.35H15.436V129.299ZM46.762 129.118L46.6712 133.022L42.8576 133.294L39.044 133.567V129.481V125.304H42.9484H46.8528L46.762 129.118ZM148.912 168.434V179.784H152.998H157.084V191.497V203.301L149.275 203.574C145.008 203.755 141.285 203.664 141.103 203.483C140.922 203.301 140.74 192.768 140.74 180.056V157.084H144.826H148.912V168.434ZM187.956 176.152V187.956H176.152H164.348V176.152V164.348H176.152H187.956V176.152ZM78.088 207.478V211.564H74.002H69.916V207.478V203.392H74.002H78.088V207.478ZM140.74 207.478V211.564H137.108H133.476V207.66V203.664L137.108 203.574L140.74 203.392V207.478Z" fill="black"/>
<path d="M125.304 74.0019V78.0879H129.39H133.476V74.0019V69.9159H129.39H125.304V74.0019Z" fill="black"/>
<path d="M47.125 78.9958C47.0342 79.4498 47.0342 80.9026 47.0342 82.1738C47.0342 86.0782 47.125 86.2598 50.8478 86.2598H54.4798V82.1738V78.0878H50.8478C48.8502 78.0878 47.125 78.451 47.125 78.9958Z" fill="black"/>
<path d="M62.6523 82.1738V86.2598H66.2843H69.9163V82.1738V78.0878H66.2843H62.6523V82.1738Z" fill="black"/>
<path d="M125.304 137.108V140.74H129.39H133.476V137.108V133.476H129.39H125.304V137.108Z" fill="black"/>
<path d="M101.878 176.333C102.15 180.238 102.15 180.238 105.782 180.238C109.414 180.238 109.414 180.238 109.687 176.333L109.959 172.52H105.782H101.605L101.878 176.333Z" fill="black"/>
<path d="M172.521 176.333V180.238L175.88 180.056C177.787 179.965 179.603 179.875 179.875 179.875C180.148 179.784 180.42 178.149 180.329 176.152L180.239 172.52H176.425H172.521V176.333Z" fill="black"/>
<path d="M172.521 27.24V54.48H199.761H227.001V27.24V-1.90735e-05H199.761H172.521V27.24ZM219.737 27.0584V46.762L201.395 46.9436C191.225 47.0344 182.327 46.9436 181.601 46.762C180.42 46.3988 180.239 43.4932 180.42 27.0584C180.511 16.4348 180.693 7.62718 180.693 7.44558C180.693 7.35478 189.5 7.26398 200.215 7.26398H219.737V27.0584Z" fill="black"/>
<path d="M187.956 27.2399V39.0439H199.76H211.564V27.2399V15.4359H199.76H187.956V27.2399Z" fill="black"/>
<path d="M47.1253 141.83C46.3081 148.821 46.3989 148.912 50.5757 148.912H54.4801V144.826V140.74H50.8481C48.5781 140.74 47.1253 141.194 47.1253 141.83Z" fill="black"/>
<path d="M203.574 168.162C203.847 172.066 203.847 172.066 207.66 172.339C211.383 172.611 211.474 172.702 211.746 176.334L212.019 180.147L218.375 180.057C221.916 179.966 225.275 179.875 225.911 179.875C226.637 179.784 227.001 177.605 227.001 172.066V164.348H215.106H203.302L203.574 168.162Z" fill="black"/>
<path d="M0 199.76V227H27.24H54.48V199.76V172.52H27.24H0V199.76ZM45.854 180.51C46.3988 180.874 46.762 188.592 46.762 200.486V219.736H27.0584H7.264V199.851V180.056L26.1504 179.966C36.5016 179.875 45.4 180.147 45.854 180.51Z" fill="black"/>
<path d="M15.4365 199.76V211.564H27.2405H39.0445V199.76V187.956H27.2405H15.4365V199.76Z" fill="black"/>
<path d="M203.755 199.215C203.846 200.94 204.027 202.575 204.3 202.756C204.572 203.029 208.113 203.392 212.29 203.483L219.736 203.755V207.66V211.564H215.65H211.564V219.282V227H219.282H227V223.368V219.736H223.368H219.736V215.65V211.564H223.368H227V203.846V196.128H215.377H203.664L203.755 199.215Z" fill="black"/>
</svg>
