<svg width="244" height="435" viewBox="0 0 244 435" fill="none" xmlns="http://www.w3.org/2000/svg">
<path d="M25.917 282.812L207.044 282.812L183.086 350.656L49.875 350.657L25.917 282.812Z" fill="black"/>
<path d="M27.4424 151.697L208.569 151.698L184.611 83.8528L51.4004 83.8528L27.4424 151.697Z" fill="black"/>
<rect x="224.115" y="202.771" width="19.8197" height="28.205" fill="black"/>
<rect x="64.0322" y="324.739" width="105.197" height="109.771" fill="#691919"/>
<rect x="64.0322" width="105.197" height="109.771" fill="#691919"/>
<circle cx="116.631" cy="217.255" r="116.631" fill="black"/>
<circle cx="116.345" cy="216.969" r="104.339" fill="#691919"/>
<path d="M114.387 109.142C114.381 107.473 114.328 104.758 114.323 103.441L114.321 103.016L115.052 103.013L115.055 103.676C115.06 104.942 115.125 107.283 115.131 108.81L115.134 109.496C115.136 110.021 115.133 110.277 115.112 110.739L114.376 110.738C114.393 110.454 114.397 110.258 114.396 110.006C114.395 109.791 114.389 109.535 114.387 109.142ZM120.389 109.207C120.464 107.539 120.547 104.825 120.607 103.509L120.626 103.085L121.357 103.118L121.327 103.78C121.269 105.045 121.217 107.386 121.148 108.912L121.117 109.597C121.093 110.122 121.077 110.377 121.033 110.838L120.298 110.8C120.329 110.517 120.342 110.321 120.354 110.07C120.364 109.855 120.371 109.599 120.389 109.207ZM126.381 109.578C126.548 107.918 126.779 105.211 126.911 103.901L126.953 103.478L127.681 103.551L127.615 104.211C127.488 105.471 127.309 107.806 127.156 109.325L127.087 110.007C127.034 110.53 127.004 110.785 126.935 111.242L126.203 111.164C126.25 110.884 126.274 110.688 126.299 110.438C126.321 110.224 126.342 109.969 126.381 109.578ZM132.345 110.277C132.603 108.629 132.982 105.939 133.186 104.638L133.251 104.218L133.974 104.331L133.871 104.986C133.676 106.238 133.368 108.559 133.132 110.067L133.026 110.745C132.944 111.264 132.9 111.517 132.806 111.969L132.08 111.851C132.142 111.574 132.177 111.38 132.215 111.132C132.249 110.919 132.284 110.666 132.345 110.277ZM138.261 111.304C138.609 109.672 139.136 107.008 139.411 105.72L139.5 105.304L140.216 105.457L140.077 106.105C139.813 107.344 139.377 109.644 139.058 111.138L138.915 111.808C138.805 112.323 138.747 112.572 138.628 113.019L137.909 112.861C137.987 112.587 138.032 112.396 138.085 112.15C138.13 111.94 138.179 111.688 138.261 111.304ZM144.111 112.655C144.549 111.045 145.223 108.414 145.568 107.143L145.68 106.733L146.386 106.925L146.212 107.565C145.879 108.787 145.318 111.06 144.917 112.533L144.737 113.195C144.599 113.702 144.527 113.948 144.384 114.388L143.675 114.19C143.767 113.922 143.823 113.733 143.889 113.49C143.945 113.283 144.008 113.035 144.111 112.655ZM149.879 114.329C150.406 112.745 151.224 110.155 151.64 108.906L151.774 108.503L152.468 108.734L152.259 109.363C151.859 110.564 151.172 112.803 150.69 114.251L150.473 114.902C150.307 115.401 150.222 115.643 150.054 116.073L149.357 115.837C149.464 115.574 149.531 115.388 149.61 115.15C149.678 114.946 149.754 114.702 149.879 114.329ZM155.545 116.329C156.167 114.781 157.14 112.245 157.631 111.023L157.79 110.629L158.468 110.901L158.221 111.517C157.749 112.692 156.928 114.884 156.359 116.302L156.103 116.938C155.907 117.426 155.808 117.662 155.614 118.082L154.933 117.803C155.056 117.547 155.133 117.366 155.227 117.133C155.307 116.933 155.398 116.694 155.545 116.329ZM161.08 118.659C161.786 117.147 162.898 114.669 163.455 113.476L163.635 113.091L164.298 113.4L164.017 114.001C163.481 115.149 162.54 117.293 161.894 118.676L161.604 119.298C161.382 119.774 161.269 120.004 161.053 120.413L160.388 120.097C160.524 119.848 160.612 119.672 160.718 119.444C160.809 119.249 160.913 119.015 161.08 118.659ZM166.478 121.289C167.266 119.818 168.512 117.405 169.134 116.245L169.335 115.87L169.979 116.215L169.666 116.8C169.068 117.916 168.011 120.005 167.29 121.351L166.966 121.956C166.718 122.419 166.593 122.643 166.355 123.039L165.708 122.687C165.858 122.446 165.955 122.275 166.074 122.053C166.175 121.864 166.292 121.636 166.478 121.289ZM171.723 124.211C172.59 122.786 173.967 120.444 174.651 119.319L174.872 118.956L175.497 119.336L175.152 119.902C174.494 120.984 173.324 123.013 172.531 124.317L172.174 124.903C171.901 125.352 171.764 125.569 171.505 125.951L170.878 125.565C171.041 125.332 171.147 125.167 171.278 124.952C171.39 124.768 171.519 124.547 171.723 124.211ZM176.801 127.415C177.744 126.039 179.246 123.776 179.991 122.69L180.231 122.339L180.835 122.753L180.46 123.3C179.744 124.344 178.465 126.306 177.602 127.565L177.214 128.131C176.916 128.564 176.768 128.773 176.488 129.141L175.883 128.721C176.059 128.497 176.174 128.338 176.316 128.13C176.437 127.953 176.578 127.739 176.801 127.415ZM181.697 130.891C182.714 129.568 184.336 127.39 185.139 126.346L185.398 126.009L185.978 126.455L185.574 126.98C184.802 127.984 183.419 129.873 182.488 131.084L182.07 131.628C181.75 132.045 181.59 132.245 181.291 132.597L180.71 132.145C180.897 131.931 181.021 131.778 181.174 131.579C181.305 131.408 181.457 131.203 181.697 130.891ZM186.395 134.632C187.486 133.368 189.229 131.285 190.089 130.289L190.367 129.967L190.921 130.445L190.488 130.946C189.66 131.905 188.172 133.713 187.175 134.869L186.727 135.388C186.383 135.787 186.212 135.977 185.893 136.312L185.339 135.828C185.538 135.625 185.67 135.479 185.834 135.289C185.975 135.126 186.139 134.929 186.395 134.632ZM190.874 138.635C192.036 137.438 193.898 135.46 194.815 134.515L195.111 134.21L195.636 134.72L195.174 135.195C194.292 136.104 192.701 137.822 191.638 138.918L191.161 139.41C190.794 139.788 190.613 139.968 190.275 140.284L189.75 139.768C189.96 139.577 190.1 139.439 190.276 139.259C190.425 139.105 190.6 138.918 190.874 138.635ZM195.115 142.886C196.34 141.754 198.306 139.88 199.273 138.986L199.585 138.697L200.082 139.234L199.595 139.684C198.665 140.544 196.984 142.173 195.862 143.21L195.359 143.676C194.973 144.033 194.782 144.203 194.427 144.5L193.931 143.956C194.151 143.777 194.299 143.647 194.483 143.476C194.641 143.331 194.826 143.153 195.115 142.886ZM199.119 147.361C200.404 146.296 202.468 144.531 203.482 143.691L203.809 143.42L204.276 143.983L203.766 144.406C202.791 145.214 201.023 146.75 199.848 147.724L199.32 148.162C198.915 148.497 198.715 148.657 198.345 148.934L197.879 148.365C198.108 148.198 198.263 148.076 198.456 147.916C198.622 147.778 198.816 147.612 199.119 147.361ZM202.874 152.045C204.215 151.052 206.372 149.402 207.43 148.618L207.772 148.365L208.207 148.953L207.675 149.347C206.657 150.101 204.809 151.539 203.582 152.448L203.031 152.856C202.609 153.169 202.4 153.318 202.016 153.575L201.581 152.981C201.82 152.827 201.981 152.713 202.183 152.563C202.355 152.436 202.558 152.279 202.874 152.045ZM206.37 156.927C207.762 156.008 210.006 154.478 211.105 153.753L211.46 153.518L211.863 154.129L211.31 154.494C210.253 155.192 208.329 156.527 207.055 157.368L206.482 157.745C206.044 158.035 205.827 158.172 205.429 158.408L205.028 157.791C205.274 157.65 205.441 157.545 205.651 157.407C205.83 157.288 206.041 157.144 206.37 156.927ZM209.594 161.992C211.035 161.15 213.359 159.745 214.496 159.081L214.863 158.866L215.232 159.498L214.66 159.832C213.566 160.471 211.573 161.699 210.254 162.47L209.662 162.815C209.208 163.081 208.985 163.206 208.575 163.419L208.207 162.781C208.461 162.654 208.633 162.559 208.85 162.432C209.036 162.324 209.255 162.19 209.594 161.992ZM212.531 167.234C214.02 166.481 216.424 165.219 217.599 164.624L217.979 164.432L218.309 165.085L217.717 165.384C216.587 165.956 214.523 167.062 213.161 167.751L212.549 168.06C212.08 168.298 211.849 168.409 211.427 168.597L211.099 167.938C211.36 167.827 211.537 167.742 211.762 167.629C211.953 167.532 212.18 167.412 212.531 167.234ZM215.152 172.638C216.68 171.968 219.151 170.841 220.358 170.313L220.747 170.142L221.041 170.812L220.433 171.078C219.273 171.586 217.151 172.576 215.752 173.188L215.124 173.464C214.643 173.675 214.406 173.773 213.974 173.937L213.683 173.261C213.95 173.164 214.132 173.09 214.362 172.989C214.559 172.903 214.792 172.796 215.152 172.638ZM217.47 178.177C219.033 177.593 221.562 176.603 222.796 176.142L223.194 175.993L223.45 176.679L222.829 176.911C221.643 177.354 219.469 178.225 218.039 178.76L217.397 179C216.904 179.184 216.663 179.27 216.222 179.41L215.969 178.719C216.241 178.637 216.426 178.572 216.662 178.484C216.863 178.409 217.101 178.315 217.47 178.177ZM219.479 183.836C221.072 183.339 223.652 182.49 224.909 182.098L225.315 181.971L225.533 182.669L224.9 182.867C223.691 183.244 221.473 183.994 220.015 184.449L219.361 184.653C218.859 184.81 218.613 184.882 218.165 184.998L217.95 184.294C218.227 184.227 218.416 184.173 218.656 184.098C218.861 184.034 219.104 183.953 219.479 183.836ZM221.173 189.596C222.791 189.188 225.414 188.483 226.691 188.161L227.103 188.057L227.282 188.766L226.639 188.929C225.411 189.239 223.155 189.865 221.674 190.238L221.009 190.406C220.5 190.535 220.25 190.593 219.797 190.684L219.621 189.969C219.901 189.918 220.092 189.874 220.336 189.812C220.545 189.76 220.792 189.693 221.173 189.596ZM222.546 195.442C224.184 195.123 226.842 194.565 228.134 194.314L228.552 194.233L228.691 194.951L228.04 195.077C226.797 195.319 224.51 195.819 223.011 196.111L222.338 196.241C221.822 196.342 221.569 196.386 221.112 196.452L220.976 195.728C221.258 195.692 221.452 195.659 221.698 195.611C221.909 195.57 222.16 195.517 222.546 195.442ZM223.593 201.355C225.247 201.127 227.931 200.716 229.236 200.537L229.657 200.479L229.757 201.204L229.1 201.294C227.845 201.467 225.534 201.84 224.021 202.048L223.342 202.141C222.821 202.213 222.567 202.243 222.106 202.284L222.01 201.554C222.293 201.533 222.489 201.511 222.738 201.477C222.951 201.448 223.204 201.408 223.593 201.355ZM224.313 207.316C225.976 207.18 228.68 206.918 229.992 206.81L230.416 206.776L230.475 207.505L229.815 207.559C228.553 207.662 226.224 207.908 224.702 208.032L224.019 208.088C223.495 208.131 223.239 208.147 222.777 208.162L222.721 207.428C223.005 207.423 223.202 207.412 223.452 207.391C223.667 207.374 223.921 207.348 224.313 207.316ZM224.7 213.31C226.369 213.269 229.083 213.161 230.399 213.129L230.824 213.118L230.842 213.85L230.179 213.866C228.913 213.897 226.574 214.01 225.048 214.047L224.362 214.064C223.837 214.077 223.581 214.079 223.118 214.067L223.105 213.331C223.389 213.343 223.585 213.342 223.837 213.336C224.052 213.331 224.307 213.32 224.7 213.31ZM224.748 219.316C226.416 219.368 229.131 219.412 230.447 219.453L230.872 219.466L230.85 220.197L230.187 220.176C228.921 220.137 226.58 220.119 225.054 220.071L224.368 220.05C223.843 220.034 223.587 220.021 223.126 219.984L223.153 219.248C223.436 219.275 223.633 219.286 223.884 219.294C224.099 219.301 224.355 219.304 224.748 219.316ZM224.462 225.315C226.125 225.458 228.834 225.65 230.146 225.763L230.569 225.8L230.506 226.528L229.846 226.471C228.584 226.363 226.247 226.216 224.726 226.085L224.043 226.026C223.519 225.981 223.264 225.955 222.806 225.892L222.874 225.159C223.155 225.202 223.35 225.223 223.601 225.245C223.815 225.263 224.07 225.281 224.462 225.315ZM223.848 231.288C225.5 231.523 228.194 231.864 229.498 232.049L229.919 232.109L229.816 232.833L229.16 232.74C227.906 232.562 225.581 232.287 224.069 232.072L223.39 231.976C222.869 231.902 222.616 231.861 222.162 231.774L222.27 231.046C222.548 231.104 222.742 231.136 222.991 231.171C223.204 231.201 223.458 231.233 223.848 231.288ZM222.905 237.218C224.542 237.544 227.213 238.033 228.505 238.29L228.922 238.373L228.779 239.09L228.129 238.961C226.887 238.714 224.58 238.311 223.083 238.013L222.41 237.88C221.894 237.777 221.644 237.723 221.196 237.61L221.344 236.889C221.618 236.962 221.81 237.005 222.057 237.054C222.267 237.096 222.519 237.142 222.905 237.218ZM221.637 243.087C223.253 243.503 225.893 244.139 227.168 244.467L227.58 244.573L227.398 245.281L226.756 245.116C225.53 244.801 223.249 244.271 221.77 243.891L221.106 243.72C220.596 243.589 220.35 243.521 219.908 243.384L220.096 242.672C220.366 242.761 220.555 242.814 220.798 242.877C221.007 242.93 221.256 242.99 221.637 243.087ZM220.046 248.877C221.636 249.381 224.238 250.162 225.493 250.56L225.898 250.689L225.677 251.386L225.045 251.186C223.838 250.803 221.59 250.148 220.134 249.687L219.481 249.48C218.979 249.321 218.737 249.239 218.303 249.078L218.53 248.378C218.795 248.481 218.981 248.545 219.22 248.621C219.425 248.686 219.671 248.759 220.046 248.877ZM218.137 254.57C219.698 255.161 222.252 256.085 223.484 256.551L223.881 256.702L223.622 257.386L223.002 257.151C221.818 256.702 219.609 255.925 218.181 255.384L217.54 255.141C217.048 254.955 216.81 254.86 216.387 254.675L216.652 253.988C216.91 254.106 217.093 254.18 217.328 254.269C217.529 254.345 217.77 254.431 218.137 254.57ZM215.918 260.15C217.444 260.826 219.944 261.888 221.147 262.422L221.536 262.594L221.24 263.263L220.634 262.994C219.476 262.481 217.313 261.583 215.917 260.965L215.29 260.687C214.81 260.474 214.577 260.366 214.165 260.158L214.467 259.487C214.719 259.619 214.896 259.702 215.126 259.804C215.323 259.891 215.559 259.991 215.918 260.15ZM213.387 265.599C214.869 266.365 217.301 267.574 218.471 268.178L218.849 268.373L218.513 269.023L217.924 268.719C216.799 268.138 214.694 267.113 213.337 266.412L212.728 266.097C212.261 265.856 212.035 265.734 211.635 265.502L211.977 264.85C212.221 264.997 212.393 265.091 212.617 265.206C212.808 265.305 213.037 265.418 213.387 265.599ZM210.541 270.888C211.979 271.736 214.339 273.08 215.473 273.749L215.839 273.965L215.467 274.595L214.896 274.258C213.806 273.615 211.761 272.473 210.446 271.697L209.855 271.349C209.403 271.082 209.184 270.948 208.798 270.693L209.176 270.062C209.411 270.221 209.578 270.325 209.795 270.453C209.98 270.562 210.203 270.688 210.541 270.888ZM207.406 276.009C208.795 276.934 211.079 278.405 212.175 279.135L212.529 279.371L212.123 279.979L211.571 279.612C210.517 278.91 208.538 277.658 207.267 276.812L206.697 276.432C206.259 276.141 206.048 275.995 205.677 275.72L206.089 275.11C206.314 275.282 206.475 275.395 206.685 275.534C206.864 275.653 207.079 275.791 207.406 276.009ZM203.998 280.952C205.334 281.951 207.534 283.544 208.589 284.332L208.929 284.587L208.491 285.173L207.96 284.776C206.946 284.018 205.038 282.66 203.815 281.746L203.266 281.335C202.845 281.021 202.642 280.864 202.286 280.569L202.73 279.982C202.947 280.166 203.101 280.288 203.303 280.438C203.475 280.567 203.683 280.717 203.998 280.952ZM200.325 285.702C201.606 286.772 203.716 288.482 204.726 289.326L205.052 289.599L204.583 290.16L204.075 289.735C203.103 288.923 201.272 287.464 200.1 286.485L199.574 286.045C199.17 285.708 198.977 285.54 198.637 285.226L199.113 284.665C199.318 284.86 199.466 284.99 199.659 285.151C199.824 285.289 200.024 285.45 200.325 285.702ZM196.4 290.246C197.621 291.384 199.635 293.205 200.598 294.103L200.909 294.393L200.411 294.928L199.926 294.476C198.999 293.613 197.25 292.057 196.133 291.015L195.631 290.548C195.247 290.189 195.063 290.011 194.741 289.68L195.246 289.144C195.441 289.351 195.581 289.488 195.765 289.66C195.922 289.806 196.113 289.978 196.4 290.246ZM192.232 294.569C193.387 295.773 195.296 297.705 196.208 298.655L196.502 298.962L195.974 299.469L195.515 298.99C194.639 298.076 192.979 296.424 191.922 295.322L191.447 294.827C191.083 294.448 190.91 294.26 190.606 293.911L191.141 293.404C191.324 293.622 191.457 293.767 191.631 293.948C191.779 294.103 191.96 294.285 192.232 294.569ZM187.823 298.65C188.905 299.92 190.697 301.961 191.551 302.963L191.827 303.287L191.27 303.761L190.84 303.256C190.019 302.292 188.459 300.546 187.469 299.383L187.024 298.861C186.683 298.461 186.521 298.263 186.239 297.897L186.802 297.423C186.972 297.651 187.096 297.803 187.259 297.995C187.398 298.158 187.568 298.35 187.823 298.65ZM183.189 302.468C184.201 303.796 185.88 305.931 186.678 306.978L186.935 307.316L186.354 307.759L185.952 307.232C185.184 306.225 183.722 304.396 182.796 303.182L182.38 302.637C182.061 302.218 181.91 302.012 181.648 301.631L182.236 301.188C182.394 301.425 182.509 301.584 182.662 301.784C182.792 301.955 182.951 302.156 183.189 302.468ZM178.355 306.03C179.293 307.41 180.853 309.633 181.593 310.722L181.832 311.074L181.227 311.485L180.855 310.937C180.143 309.889 178.782 307.984 177.924 306.721L177.538 306.154C177.243 305.719 177.103 305.504 176.862 305.11L177.473 304.7C177.617 304.944 177.724 305.11 177.866 305.318C177.986 305.495 178.134 305.705 178.355 306.03ZM173.334 309.323C174.196 310.752 175.633 313.057 176.312 314.185L176.532 314.549L175.905 314.926L175.563 314.359C174.909 313.274 173.654 311.297 172.866 309.989L172.512 309.402C172.241 308.952 172.112 308.73 171.894 308.323L172.527 307.947C172.657 308.199 172.755 308.37 172.885 308.585C172.995 308.769 173.131 308.986 173.334 309.323ZM168.142 312.337C168.923 313.811 170.232 316.191 170.849 317.354L171.048 317.73L170.402 318.073L170.092 317.487C169.498 316.368 168.353 314.326 167.637 312.977L167.316 312.371C167.07 311.907 166.954 311.678 166.758 311.26L167.41 310.919C167.527 311.178 167.615 311.354 167.733 311.576C167.833 311.766 167.957 311.99 168.142 312.337ZM162.791 315.063C163.491 316.578 164.667 319.026 165.22 320.221L165.398 320.607L164.734 320.914L164.456 320.312C163.925 319.162 162.893 317.06 162.253 315.674L161.965 315.051C161.745 314.574 161.642 314.34 161.469 313.911L162.139 313.607C162.241 313.872 162.319 314.052 162.425 314.28C162.515 314.475 162.626 314.706 162.791 315.063ZM157.294 317.485C157.903 319.039 158.933 321.552 159.414 322.778L159.569 323.174L158.888 323.441L158.646 322.824C158.184 321.645 157.278 319.485 156.72 318.064L156.47 317.425C156.278 316.936 156.189 316.696 156.041 316.258L156.728 315.993C156.815 316.264 156.882 316.448 156.974 316.682C157.052 316.883 157.15 317.119 157.294 317.485ZM151.665 319.582C152.184 321.168 153.069 323.736 153.479 324.987L153.611 325.391L152.916 325.619L152.71 324.989C152.316 323.786 151.535 321.578 151.059 320.127L150.846 319.475C150.682 318.976 150.607 318.731 150.485 318.285L151.186 318.06C151.256 318.335 151.313 318.523 151.392 318.762C151.459 318.967 151.543 319.209 151.665 319.582ZM145.928 321.357C146.359 322.969 147.101 325.582 147.441 326.854L147.551 327.265L146.844 327.454L146.673 326.813C146.346 325.59 145.688 323.343 145.293 321.867L145.116 321.205C144.98 320.697 144.918 320.449 144.821 319.997L145.533 319.811C145.589 320.089 145.635 320.28 145.7 320.523C145.756 320.731 145.826 320.977 145.928 321.357ZM140.102 322.812C140.444 324.446 141.04 327.095 141.309 328.384L141.396 328.8L140.68 328.95L140.545 328.301C140.286 327.062 139.753 324.782 139.44 323.287L139.3 322.616C139.192 322.101 139.144 321.849 139.072 321.393L139.794 321.247C139.834 321.528 139.87 321.721 139.921 321.967C139.965 322.178 140.022 322.427 140.102 322.812ZM134.206 323.944C134.456 325.593 134.905 328.272 135.103 329.574L135.167 329.994L134.444 330.104L134.344 329.449C134.154 328.197 133.748 325.891 133.518 324.381L133.415 323.703C133.336 323.183 133.302 322.929 133.255 322.469L133.984 322.363C134.008 322.646 134.033 322.841 134.071 323.09C134.103 323.302 134.146 323.555 134.206 323.944ZM128.255 324.748C128.415 326.409 128.716 329.108 128.842 330.419L128.883 330.842L128.155 330.912L128.091 330.252C127.97 328.992 127.691 326.667 127.545 325.147L127.479 324.464C127.429 323.941 127.409 323.686 127.388 323.224L128.121 323.158C128.13 323.442 128.144 323.638 128.168 323.888C128.189 324.102 128.218 324.357 128.255 324.748ZM122.27 325.225C122.339 326.892 122.491 329.604 122.545 330.919L122.563 331.344L121.832 331.374L121.805 330.712C121.753 329.446 121.602 327.11 121.539 325.584L121.511 324.899C121.489 324.374 121.483 324.118 121.487 323.655L122.223 323.63C122.216 323.914 122.22 324.11 122.23 324.361C122.239 324.576 122.254 324.832 122.27 325.225ZM116.268 325.374C116.246 327.042 116.251 329.758 116.234 331.075L116.228 331.5L115.497 331.49L115.506 330.827C115.522 329.561 115.498 327.22 115.519 325.693L115.528 325.007C115.534 324.481 115.542 324.225 115.571 323.764L116.307 323.778C116.285 324.062 116.278 324.258 116.275 324.509C116.272 324.724 116.273 324.98 116.268 325.374ZM110.266 325.197C110.154 326.862 110.012 329.574 109.923 330.888L109.894 331.312L109.164 331.262L109.209 330.601C109.294 329.338 109.398 326.998 109.501 325.475L109.547 324.791C109.582 324.266 109.604 324.011 109.658 323.552L110.392 323.606C110.355 323.887 110.337 324.083 110.32 324.334C110.305 324.549 110.293 324.804 110.266 325.197ZM104.282 324.693C104.078 326.349 103.787 329.049 103.626 330.356L103.574 330.778L102.848 330.689L102.929 330.031C103.084 328.774 103.316 326.444 103.502 324.928L103.586 324.248C103.651 323.726 103.686 323.472 103.766 323.017L104.496 323.111C104.443 323.39 104.414 323.585 104.383 323.834C104.357 324.048 104.33 324.302 104.282 324.693ZM98.3333 323.851C98.031 325.493 97.5796 328.171 97.3412 329.466L97.2642 329.884L96.5447 329.751L96.6648 329.099C96.8942 327.854 97.2642 325.542 97.5407 324.04L97.665 323.366C97.7602 322.849 97.811 322.598 97.9172 322.148L98.6402 322.286C98.5709 322.561 98.5308 322.753 98.4853 323.001C98.4464 323.212 98.4045 323.465 98.3333 323.851ZM92.4458 322.666C92.0532 324.288 91.4543 326.937 91.1445 328.217L91.0445 328.63L90.3335 328.458L90.4895 327.813C90.7874 326.583 91.2848 324.295 91.644 322.81L91.8054 322.144C91.9291 321.633 91.9938 321.385 92.1246 320.942L92.839 321.119C92.7545 321.39 92.7038 321.58 92.6446 321.825C92.5941 322.034 92.5383 322.284 92.4458 322.666ZM86.6334 321.156C86.1517 322.754 85.4072 325.366 85.0271 326.627L84.9043 327.034L84.204 326.823L84.3953 326.188C84.7609 324.975 85.3841 322.718 85.8249 321.256L86.0229 320.6C86.1746 320.096 86.2529 319.852 86.4081 319.417L87.1115 319.634C87.0122 319.9 86.9511 320.087 86.8785 320.328C86.8164 320.533 86.7469 320.78 86.6334 321.156ZM80.9139 319.328C80.3447 320.897 79.457 323.463 79.0079 324.701L78.8629 325.101L78.1752 324.851L78.4014 324.228C78.8333 323.038 79.5802 320.819 80.1011 319.383L80.335 318.738C80.5144 318.244 80.606 318.005 80.785 317.579L81.4754 317.834C81.3615 318.094 81.2901 318.278 81.2044 318.514C81.1311 318.716 81.048 318.958 80.9139 319.328ZM75.3042 317.187C74.6494 318.722 73.6217 321.236 73.1051 322.447L72.9383 322.838L72.2654 322.551L72.5255 321.941C73.0224 320.776 73.8904 318.602 74.4896 317.197L74.7586 316.566C74.9649 316.083 75.0696 315.849 75.2718 315.433L75.9471 315.726C75.819 315.98 75.7377 316.159 75.639 316.39C75.5547 316.588 75.4585 316.825 75.3042 317.187ZM69.821 314.74C69.0829 316.237 67.9187 318.691 67.3363 319.872L67.1483 320.253L66.4922 319.929L66.7854 319.335C67.3455 318.199 68.3316 316.075 69.007 314.706L69.3103 314.091C69.5429 313.619 69.6602 313.391 69.885 312.987L70.5431 313.317C70.4013 313.563 70.3103 313.738 70.1991 313.963C70.104 314.156 69.9949 314.387 69.821 314.74ZM64.4801 311.996C63.6612 313.45 62.3644 315.837 61.7183 316.984L61.5096 317.354L60.8722 316.995L61.1975 316.418C61.819 315.314 62.9199 313.248 63.6692 311.917L64.0058 311.32C64.2638 310.862 64.3934 310.641 64.6399 310.25L65.279 310.615C65.124 310.853 65.0235 311.022 64.9001 311.241C64.7947 311.428 64.673 311.654 64.4801 311.996ZM59.2983 308.957C58.396 310.361 56.9622 312.668 56.2502 313.775L56.0203 314.133L55.4049 313.737L55.7634 313.18C56.4482 312.114 57.6677 310.116 58.4934 308.831L58.8642 308.254C59.1485 307.812 59.2908 307.599 59.5597 307.223L60.1764 307.625C60.0078 307.853 59.8976 308.016 59.7617 308.228C59.6455 308.409 59.5109 308.626 59.2983 308.957ZM54.302 305.623C53.3211 306.973 51.7581 309.195 50.9842 310.26L50.7343 310.604L50.1425 310.174L50.5321 309.638C51.2765 308.613 52.6081 306.687 53.5056 305.452L53.9087 304.897C54.2178 304.472 54.372 304.267 54.6619 303.907L55.2547 304.343C55.0733 304.562 54.954 304.718 54.8062 304.922C54.6799 305.096 54.5331 305.305 54.302 305.623ZM49.5024 302.015C48.4496 303.31 46.7683 305.443 45.9377 306.465L45.6694 306.795L45.1018 306.333L45.5201 305.819C46.319 304.836 47.7531 302.985 48.7165 301.801L49.1491 301.268C49.4808 300.861 49.6459 300.665 49.9549 300.321L50.5231 300.789C50.3301 300.997 50.2026 301.147 50.0439 301.342C49.9084 301.509 49.7504 301.71 49.5024 302.015ZM44.906 298.152C43.7846 299.388 41.9901 301.427 41.1053 302.402L40.8196 302.717L40.2778 302.225L40.7233 301.734C41.5743 300.796 43.1067 299.026 44.1329 297.895L44.5937 297.387C44.947 296.998 45.1225 296.811 45.4497 296.485L45.9917 296.983C45.7877 297.18 45.6522 297.323 45.4832 297.509C45.3388 297.668 45.1702 297.861 44.906 298.152ZM40.5258 294.046C39.3392 295.219 37.4369 297.158 36.5006 298.083L36.1982 298.382L35.6839 297.862L36.1553 297.396C37.0559 296.506 38.6819 294.821 39.7678 293.747L40.2555 293.265C40.6294 292.896 40.8147 292.719 41.1591 292.41L41.6734 292.937C41.4589 293.123 41.3159 293.258 41.1371 293.435C40.9843 293.586 40.8054 293.769 40.5258 294.046ZM36.3746 289.708C35.1261 290.815 33.1216 292.648 32.1365 293.522L31.8184 293.804L31.333 293.257L31.829 292.817C32.7765 291.976 34.4914 290.382 35.6338 289.369L36.1469 288.914C36.5403 288.565 36.7348 288.399 37.0955 288.109L37.5805 288.663C37.3563 288.838 37.2061 288.965 37.018 289.131C36.8572 289.274 36.6687 289.447 36.3746 289.708ZM32.4654 285.15C31.1574 286.186 29.0543 287.905 28.0223 288.722L27.689 288.986L27.2348 288.413L27.7544 288.001C28.747 287.215 30.5477 285.718 31.7446 284.77L32.2821 284.344C32.6942 284.018 32.8978 283.862 33.2739 283.593L33.7274 284.173C33.4939 284.335 33.3369 284.453 33.1398 284.609C32.9714 284.743 32.7736 284.905 32.4654 285.15ZM28.8191 280.375C27.4518 281.331 25.2502 282.922 24.1713 283.676L23.8229 283.92L23.4036 283.321L23.9468 282.941C24.9844 282.215 26.871 280.828 28.1222 279.953L28.6841 279.559C29.1149 279.258 29.3274 279.115 29.7188 278.869L30.137 279.475C29.8943 279.622 29.7306 279.731 29.5245 279.875C29.3485 279.999 29.1413 280.149 28.8191 280.375ZM25.4577 275.399C24.0403 276.279 21.7554 277.748 20.637 278.443L20.2758 278.667L19.8897 278.046L20.4528 277.696C21.5285 277.027 23.4878 275.745 24.7848 274.939L25.3673 274.577C25.8139 274.3 26.0337 274.169 26.438 273.944L26.8226 274.572C26.5722 274.706 26.4028 274.806 26.1892 274.939C26.0067 275.052 25.7917 275.191 25.4577 275.399ZM22.3727 270.247C20.9093 271.049 18.5476 272.391 17.3929 273.023L17.0201 273.228L16.6685 272.586L17.2498 272.268C18.3604 271.659 20.3868 270.486 21.7259 269.752L22.3273 269.422C22.7883 269.17 23.0151 269.051 23.431 268.849L23.7807 269.497C23.5234 269.617 23.3488 269.707 23.1283 269.828C22.9398 269.931 22.7175 270.058 22.3727 270.247ZM19.574 264.935C18.0688 265.656 15.6371 266.866 14.4495 267.434L14.066 267.618L13.7501 266.958L14.3481 266.672C15.4903 266.125 17.5779 265.065 18.9552 264.405L19.5738 264.109C20.048 263.882 20.2809 263.776 20.7073 263.597L21.021 264.263C20.7574 264.369 20.5782 264.449 20.3514 264.558C20.1575 264.651 19.9286 264.765 19.574 264.935ZM17.0708 259.477C15.5283 260.114 13.0338 261.188 11.8167 261.691L11.4237 261.853L11.1446 261.177L11.7573 260.924C12.9279 260.441 15.0707 259.497 16.4822 258.914L17.1161 258.652C17.6021 258.452 17.8405 258.358 18.276 258.203L18.5526 258.885C18.2837 258.977 18.1002 259.047 17.8678 259.143C17.6691 259.225 17.4342 259.327 17.0708 259.477ZM14.8718 253.89C13.2965 254.441 10.7465 255.376 9.50358 255.81L9.10222 255.951L8.86081 255.26L9.48659 255.041C10.6821 254.623 12.8736 253.799 14.3151 253.295L14.9625 253.069C15.4588 252.895 15.702 252.815 16.1454 252.684L16.384 253.381C16.1104 253.457 15.9233 253.517 15.6859 253.6C15.4831 253.671 15.2429 253.76 14.8718 253.89ZM12.9861 248.188C11.3823 248.648 8.78352 249.438 7.518 249.801L7.10935 249.919L6.90735 249.216L7.54451 249.033C8.76168 248.683 10.9963 247.984 12.464 247.562L13.1231 247.373C13.6284 247.228 13.8758 247.161 14.3259 247.056L14.5248 247.765C14.2473 247.825 14.0571 247.875 13.8154 247.945C13.6089 248.004 13.364 248.079 12.9861 248.188ZM11.4304 242.384C9.80199 242.749 7.16089 243.383 5.87599 243.67L5.46108 243.763L5.30125 243.049L5.94815 242.904C7.18397 242.628 9.45624 242.063 10.9464 241.729L11.6156 241.579C12.1286 241.464 12.3795 241.413 12.8351 241.334L12.9915 242.054C12.7108 242.098 12.518 242.136 12.2726 242.191C12.0629 242.238 11.8141 242.298 11.4304 242.384ZM10.2153 236.503C8.56929 236.778 5.89729 237.265 4.59849 237.481L4.17909 237.551L4.05883 236.829L4.71274 236.72C5.96193 236.512 8.26188 236.073 9.76813 235.822L10.4446 235.709C10.9632 235.623 11.2165 235.585 11.6757 235.532L11.7922 236.259C11.5096 236.287 11.315 236.315 11.0669 236.357C10.855 236.392 10.6032 236.439 10.2153 236.503ZM9.32604 230.565C7.66741 230.748 4.97267 231.087 3.66394 231.232L3.24133 231.279L3.16092 230.552L3.81983 230.479C5.07858 230.34 7.39918 230.028 8.91694 229.86L9.59857 229.785C10.1212 229.727 10.3761 229.703 10.8376 229.675L10.914 230.407C10.6302 230.42 10.4343 230.437 10.1844 230.465C9.97082 230.489 9.71684 230.521 9.32604 230.565ZM8.76413 224.587C7.09794 224.679 4.38867 224.871 3.07398 224.943L2.64945 224.967L2.60894 224.237L3.27085 224.2C4.53532 224.13 6.86951 223.945 8.39418 223.861L9.07892 223.823C9.60388 223.794 9.85977 223.784 10.3221 223.781L10.3583 224.517C10.0743 224.514 9.87771 224.52 9.62664 224.534C9.41209 224.546 9.15671 224.565 8.76413 224.587ZM8.52883 218.588C6.86009 218.59 4.14443 218.635 2.82772 218.637L2.40254 218.637L2.40152 217.906L3.06445 217.905C4.33087 217.903 6.67161 217.845 8.19862 217.843L8.88441 217.842C9.41018 217.841 9.66621 217.845 10.128 217.868L10.1245 218.604C9.84097 218.586 9.64437 218.581 9.39292 218.582C9.17804 218.582 8.92202 218.587 8.52883 218.588ZM8.61848 212.584C6.95208 212.496 4.238 212.393 2.92314 212.323L2.49855 212.301L2.53731 211.57L3.1993 211.605C4.46394 211.672 6.80438 211.742 8.32925 211.823L9.01407 211.859C9.53911 211.887 9.79453 211.905 10.2544 211.952L10.2109 212.687C9.92878 212.654 9.7327 212.639 9.4816 212.625C9.26702 212.614 9.01111 212.605 8.61848 212.584ZM9.0346 206.595C7.37549 206.416 4.67105 206.165 3.36194 206.024L2.93921 205.978L3.01771 205.251L3.67681 205.322C4.93592 205.458 7.2691 205.655 8.7873 205.819L9.46913 205.892C9.99186 205.949 10.2459 205.981 10.7026 206.053L10.619 206.784C10.3392 206.736 10.1442 206.71 9.8942 206.683C9.68056 206.66 9.42552 206.637 9.0346 206.595ZM9.77695 200.636C8.13012 200.367 5.44344 199.969 4.14403 199.756L3.72443 199.687L3.84261 198.965L4.49683 199.072C5.74661 199.277 8.06554 199.601 9.5725 199.848L10.2493 199.959C10.7681 200.044 11.0201 200.089 11.4721 200.187L11.3486 200.912C11.0718 200.848 10.8786 200.812 10.6304 200.772C10.4184 200.737 10.165 200.7 9.77695 200.636ZM10.8475 194.727C9.21854 194.365 6.55861 193.815 5.27327 193.53L4.85821 193.438L5.01694 192.723L5.66407 192.867C6.90032 193.142 9.19727 193.596 10.6879 193.928L11.3573 194.077C11.8706 194.191 12.1195 194.251 12.5653 194.373L12.4011 195.091C12.1284 195.011 11.9375 194.964 11.692 194.91C11.4823 194.863 11.2313 194.812 10.8475 194.727ZM12.2561 188.886C10.6516 188.427 8.02913 187.721 6.76312 187.359L6.35431 187.242L6.55535 186.539L7.19275 186.721C8.4104 187.069 10.6762 187.659 12.1444 188.079L12.8037 188.268C13.3093 188.412 13.5542 188.487 13.9919 188.636L13.7852 189.342C13.5177 189.247 13.3299 189.188 13.0881 189.119C12.8815 189.06 12.6341 188.994 12.2561 188.886ZM14.0016 183.14C12.4247 182.594 9.84513 181.744 8.60094 181.313L8.19917 181.174L8.43858 180.483L9.065 180.7C10.2617 181.114 12.4915 181.828 13.9344 182.328L14.5824 182.553C15.0793 182.725 15.3197 182.813 15.7485 182.986L15.5033 183.68C15.2414 183.569 15.0572 183.501 14.8196 183.419C14.6165 183.348 14.3731 183.269 14.0016 183.14ZM16.06 177.499C14.5155 176.867 11.9864 175.877 10.7677 175.379L10.3741 175.218L10.6511 174.541L11.2647 174.792C12.4368 175.271 14.6241 176.107 16.0375 176.685L16.6722 176.945C17.1588 177.144 17.394 177.245 17.8128 177.441L17.5298 178.12C17.2744 177.996 17.0942 177.917 16.8615 177.822C16.6626 177.741 16.4239 177.648 16.06 177.499ZM18.4243 171.98C16.9167 171.265 14.4455 170.138 13.2559 169.573L12.8717 169.391L13.1853 168.73L13.7843 169.014C14.9284 169.557 17.0668 170.511 18.4464 171.166L19.0659 171.46C19.5409 171.685 19.7703 171.799 20.1777 172.018L19.858 172.681C19.6098 172.543 19.4341 172.454 19.2069 172.346C19.0128 172.254 18.7795 172.149 18.4243 171.98ZM21.0865 166.598C19.6201 165.802 17.214 164.542 16.0569 163.914L15.6833 163.711L16.0324 163.068L16.615 163.384C17.7278 163.989 19.811 165.058 21.1529 165.786L21.7555 166.114C22.2176 166.365 22.4404 166.491 22.8352 166.731L22.4799 167.376C22.2396 167.225 22.069 167.127 21.848 167.007C21.6592 166.904 21.432 166.786 21.0865 166.598ZM24.0406 161.37C22.621 160.493 20.289 159.101 19.1688 158.409L18.807 158.185L19.1915 157.563L19.7555 157.911C20.8329 158.577 22.8532 159.76 24.1523 160.563L24.7357 160.923C25.183 161.2 25.3984 161.338 25.7792 161.6L25.3885 162.224C25.1569 162.06 24.9921 161.952 24.7782 161.82C24.5953 161.707 24.3751 161.577 24.0406 161.37ZM27.2897 156.316C25.925 155.356 23.6804 153.826 22.6036 153.069L22.2559 152.824L22.6769 152.226L23.219 152.607C24.2547 153.336 26.2006 154.638 27.4494 155.517L28.0102 155.912C28.4402 156.214 28.6469 156.365 29.0114 156.65L28.5841 157.249C28.3628 157.071 28.2046 156.954 27.999 156.81C27.8233 156.686 27.6113 156.542 27.2897 156.316ZM30.8245 151.462C29.5136 150.429 27.3549 148.781 26.3206 147.966L25.9866 147.703L26.4393 147.129L26.96 147.539C27.9548 148.323 29.8276 149.728 31.0271 150.673L31.5658 151.097C31.9788 151.423 32.177 151.585 32.5256 151.888L32.0665 152.464C31.8552 152.274 31.7036 152.149 31.5061 151.993C31.3373 151.86 31.1333 151.705 30.8245 151.462ZM34.6158 146.807C33.3625 145.705 31.2958 143.942 30.3069 143.073L29.9876 142.792L30.4706 142.243L30.9685 142.681C31.9196 143.517 33.7138 145.021 34.8606 146.03L35.3756 146.482C35.7705 146.83 35.9598 147.002 36.2914 147.324L35.802 147.874C35.6012 147.673 35.4566 147.54 35.2677 147.374C35.1063 147.232 34.911 147.066 34.6158 146.807ZM38.6524 142.362C37.4603 141.195 35.4915 139.324 34.5509 138.402L34.2472 138.105L34.759 137.582L35.2326 138.046C36.1373 138.932 37.8479 140.531 38.9387 141.6L39.4286 142.079C39.8042 142.447 39.9839 142.63 40.2978 142.969L39.7794 143.492C39.5897 143.281 39.4525 143.14 39.2728 142.964C39.1193 142.813 38.9332 142.637 38.6524 142.362ZM42.9226 138.142C41.7951 136.911 39.9299 134.937 39.0403 133.966L38.753 133.653L39.2923 133.159L39.7402 133.648C40.5959 134.581 42.2179 136.27 43.2496 137.396L43.7129 137.901C44.0682 138.289 44.2378 138.481 44.5329 138.836L43.9872 139.33C43.8091 139.109 43.6797 138.961 43.5098 138.776C43.3646 138.617 43.1882 138.432 42.9226 138.142ZM47.4233 134.162C46.3707 132.867 44.626 130.786 43.7955 129.764L43.5273 129.434L44.095 128.973L44.5131 129.487C45.3119 130.47 46.8308 132.252 47.7939 133.437L48.2265 133.969C48.5581 134.377 48.716 134.578 48.9895 134.951L48.4154 135.412C48.2508 135.18 48.1304 135.025 47.9718 134.83C47.8363 134.663 47.6712 134.467 47.4233 134.162ZM52.1466 130.453C51.1679 129.101 49.5419 126.926 48.7697 125.859L48.5204 125.515L49.1129 125.086L49.5017 125.623C50.2444 126.648 51.6616 128.512 52.5571 129.749L52.9593 130.305C53.2677 130.73 53.4141 130.941 53.6664 131.328L53.0675 131.756C52.9161 131.516 52.8045 131.354 52.657 131.15C52.531 130.976 52.3772 130.771 52.1466 130.453ZM57.0664 127.011C56.1624 125.608 54.6565 123.348 53.9431 122.241L53.7127 121.884L54.3276 121.488L54.6867 122.045C55.3729 123.109 56.6872 125.047 57.5145 126.331L57.886 126.907C58.1709 127.349 58.3057 127.567 58.5367 127.967L57.9155 128.362C57.7773 128.114 57.6747 127.946 57.5384 127.735C57.422 127.554 57.2795 127.341 57.0664 127.011ZM62.1653 123.841C61.3387 122.391 59.9577 120.052 59.3054 118.909L59.0948 118.539L59.7303 118.177L60.0587 118.753C60.686 119.853 61.8932 121.859 62.6496 123.186L62.9894 123.781C63.2498 124.238 63.3727 124.463 63.5815 124.875L62.9399 125.236C62.8153 124.981 62.7219 124.807 62.5974 124.589C62.4909 124.402 62.3601 124.182 62.1653 123.841ZM67.4291 120.952C66.6826 119.46 65.431 117.049 64.842 115.871L64.6518 115.491L65.306 115.164L65.6025 115.757C66.169 116.89 67.2652 118.959 67.9483 120.324L68.2551 120.938C68.4903 121.408 68.6007 121.639 68.7868 122.062L68.1264 122.387C68.016 122.126 67.9322 121.948 67.8197 121.723C67.7235 121.531 67.6049 121.304 67.4291 120.952ZM72.8434 118.355C72.1805 116.824 71.064 114.348 70.5409 113.14L70.372 112.749L71.0433 112.459L71.3067 113.067C71.8097 114.229 72.7899 116.356 73.3965 117.757L73.669 118.387C73.8778 118.869 73.9753 119.106 74.1378 119.539L73.4604 119.827C73.3646 119.56 73.2907 119.377 73.1908 119.147C73.1055 118.949 72.9996 118.716 72.8434 118.355ZM78.4007 116.07C77.8324 114.501 76.8689 111.961 76.4205 110.723L76.2757 110.324L76.9634 110.074L77.1892 110.698C77.6205 111.888 78.4693 114.071 78.9893 115.506L79.2228 116.151C79.4019 116.646 79.4848 116.888 79.6205 117.33L78.9269 117.576C78.8476 117.303 78.7849 117.117 78.6993 116.881C78.6261 116.679 78.5346 116.439 78.4007 116.07ZM84.0799 114.118C83.5985 112.52 82.7758 109.932 82.3959 108.671L82.2733 108.264L82.9737 108.053L83.1649 108.687C83.5302 109.9 84.258 112.126 84.6985 113.588L84.8963 114.244C85.0479 114.748 85.1174 114.994 85.2287 115.443L84.5226 115.651C84.4584 115.374 84.406 115.185 84.3335 114.944C84.2715 114.738 84.1933 114.494 84.0799 114.118ZM89.857 112.481C89.4641 110.859 88.7849 108.229 88.4749 106.95L88.3748 106.536L89.0858 106.364L89.2418 107.008C89.5399 108.239 90.1443 110.501 90.5037 111.986L90.6652 112.652C90.7889 113.163 90.8448 113.413 90.9312 113.867L90.2148 114.036C90.1658 113.756 90.124 113.564 90.0648 113.32C90.0142 113.111 89.9495 112.863 89.857 112.481ZM95.7154 111.164C95.4123 109.523 94.8786 106.86 94.6395 105.565L94.5623 105.147L95.2816 105.014L95.402 105.666C95.632 106.911 96.1111 109.203 96.3884 110.705L96.513 111.379C96.6084 111.896 96.6504 112.149 96.7118 112.607L95.9872 112.736C95.9537 112.454 95.9225 112.26 95.8768 112.013C95.8378 111.801 95.7868 111.551 95.7154 111.164ZM101.637 110.171C101.424 108.516 101.038 105.827 100.87 104.521L100.816 104.1L101.542 104.006L101.626 104.664C101.787 105.92 102.14 108.235 102.334 109.749L102.422 110.43C102.488 110.951 102.517 111.206 102.553 111.667L101.822 111.756C101.804 111.472 101.784 111.277 101.752 111.027C101.724 110.814 101.687 110.561 101.637 110.171ZM107.602 109.5C107.476 107.836 107.23 105.131 107.13 103.818L107.098 103.394L107.828 103.339L107.878 104C107.973 105.262 108.205 107.592 108.32 109.115L108.372 109.799C108.412 110.323 108.426 110.579 108.438 111.041L107.704 111.092C107.701 110.808 107.691 110.612 107.672 110.361C107.655 110.147 107.632 109.892 107.602 109.5Z" fill="black"/>
<path d="M107.24 191.712H122.927V208.524H107.24V191.712ZM107.24 238.462H122.927V255.274H107.24V238.462Z" fill="black"/>
</svg>
